<?xml version="1.0" encoding="utf-8"?><svg xmlns="http://www.w3.org/2000/svg" xmlns:xlink="http://www.w3.org/1999/xlink"><symbol viewBox="0 0 8 15" id="arrowl" xmlns="http://www.w3.org/2000/svg"><title>Group</title><desc>Created using Figma</desc><use xlink:href="#aa" transform="rotate(-45 9.041 3.745)"/><use xlink:href="#aa" transform="rotate(45 -8.1 4.345)"/><defs><path id="aa" d="M0 0h10v1H0V0z"/></defs></symbol><symbol viewBox="0 0 10 15" id="arrowr" xmlns="http://www.w3.org/2000/svg"><title>Group</title><desc>Created using Figma</desc><use xlink:href="#ba" transform="rotate(-45 15.716 5.52)"/><use xlink:href="#ba" transform="rotate(45 1.05 2.535)"/><defs><path id="ba" d="M0 0h10v2H0V0z"/></defs></symbol><symbol viewBox="0 0 26 15" id="arrowu" xmlns="http://www.w3.org/2000/svg"><title>Group</title><desc>Created using Figma</desc><use xlink:href="#ca" transform="rotate(45 5.462 16.122)"/><use xlink:href="#ca" transform="rotate(-45 8.54 -12.867)"/><defs><path id="ca" d="M0 0h2v18H0V0z"/></defs></symbol><symbol viewBox="0 0 438.529 438.529" id="asterisk" xmlns="http://www.w3.org/2000/svg"><path d="M421.833 285.36c-2.573-9.801-8.233-17.179-16.991-22.128l-75.944-43.966 75.944-43.968c8.758-4.949 14.421-12.322 16.991-22.126 2.566-9.803 1.379-19.082-3.572-27.836L399.99 93.932c-4.948-8.757-12.319-14.419-22.127-16.989-9.802-2.565-19.072-1.376-27.833 3.576l-75.944 43.677v-87.65c0-9.899-3.621-18.464-10.855-25.697C256 3.616 247.433 0 237.537 0h-36.54c-9.9 0-18.464 3.619-25.697 10.849-7.232 7.232-10.85 15.798-10.85 25.697v87.65l-75.945-43.68c-8.757-4.952-18.036-6.145-27.837-3.576-9.803 2.573-17.179 8.232-22.128 16.989l-18.271 31.405c-4.952 8.754-6.14 18.033-3.571 27.836 2.574 9.801 8.232 17.178 16.989 22.126l75.945 43.972-75.945 43.966c-8.757 4.949-14.419 12.323-16.989 22.128-2.568 9.801-1.377 19.075 3.571 27.829l18.272 31.408c4.947 8.761 12.32 14.421 22.126 16.995 9.805 2.562 19.08 1.375 27.837-3.58l75.945-43.681v87.655c0 9.891 3.617 18.466 10.85 25.694 7.233 7.234 15.8 10.848 25.697 10.848h36.54c9.896 0 18.466-3.613 25.693-10.848 7.238-7.229 10.855-15.804 10.855-25.694V314.34l75.944 43.681c8.761 4.948 18.031 6.143 27.833 3.573 9.804-2.574 17.179-8.23 22.127-16.991l18.271-31.405c4.953-8.76 6.141-18.037 3.574-27.838z"/></symbol><symbol viewBox="0 0 38 26" id="ccard" xmlns="http://www.w3.org/2000/svg"><title>card</title><desc>Created using Figma</desc><use xlink:href="#ea" transform="translate(4 16)"/><use xlink:href="#eb" transform="translate(4 20)"/><use xlink:href="#ec" transform="translate(0 6)"/><g transform="translate(16579 -3811)"><mask id="ee"><use xlink:href="#ed" transform="translate(-16579 3811)"/></mask><g mask="url(#ee)"><use xlink:href="#ef" transform="translate(-16579 3811)"/></g></g><defs><path id="ea" d="M1-2a1 1 0 0 0 0 2v-2zm14 2a1 1 0 1 0 0-2v2zM1 0h14v-2H1v2z"/><path id="eb" d="M1-2a1 1 0 0 0 0 2v-2zm9 2a1 1 0 1 0 0-2v2zM1 0h9v-2H1v2z"/><path id="ec" d="M0 0h38v5H0V0z"/><path id="ed" d="M0 4a4 4 0 0 1 4-4h30a4 4 0 0 1 4 4v18a4 4 0 0 1-4 4H4a4 4 0 0 1-4-4V4z"/><path id="ef" d="M4 2h30v-4H4v4zm32 2v18h4V4h-4zm-2 20H4v4h30v-4zM2 22V4h-4v18h4zM4-2a6 6 0 0 0-6 6h4a2 2 0 0 1 2-2v-4zm30 4a2 2 0 0 1 2 2h4a6 6 0 0 0-6-6v4zm2 20a2 2 0 0 1-2 2v4a6 6 0 0 0 6-6h-4zM4 24a2 2 0 0 1-2-2h-4a6 6 0 0 0 6 6v-4z"/></defs></symbol><symbol viewBox="0 0 98.48 98.48" id="eye" xmlns="http://www.w3.org/2000/svg"><path d="M97.204 45.788c-.865-1.02-21.537-24.945-47.963-24.945-26.427 0-47.098 23.925-47.965 24.946a5.307 5.307 0 0 0 .001 6.904c.866 1.02 21.537 24.944 47.964 24.944 26.426 0 47.098-23.926 47.964-24.946a5.306 5.306 0 0 0-.001-6.903zM57.313 35.215c1.777-.97 4.255.143 5.534 2.485 1.279 2.343.875 5.029-.902 5.999-1.776.971-4.255-.143-5.535-2.485-1.278-2.343-.875-5.029.903-5.999zm-8.072 33.754c-18.46 0-33.995-14.177-39.372-19.729 3.631-3.75 11.898-11.429 22.567-16.021a19.995 19.995 0 0 0-3.301 11.021c0 11.104 9.001 20.105 20.105 20.105s20.106-9.001 20.106-20.105c0-4.072-1.219-7.855-3.3-11.021C76.715 37.812 84.981 45.49 88.612 49.24 83.235 54.795 67.7 68.969 49.241 68.969z"/></symbol><symbol viewBox="0 0 9 17" id="fb" xmlns="http://www.w3.org/2000/svg"><title>facebook 1</title><desc>Created using Figma</desc><use xlink:href="#ga"/><defs><path id="ga" d="M5.571 17V9.25h2.533l.38-3.019H5.57V4.296c0-.87.235-1.472 1.46-1.472h1.56V.12A20.06 20.06 0 0 0 6.32 0C4.075 0 2.533 1.407 2.533 3.99v2.232H0v3.019h2.542v7.75h3.03V17z"/></defs></symbol><symbol viewBox="0 0 51.997 51.997" id="like" xmlns="http://www.w3.org/2000/svg"><path d="M51.911 16.242c-.759-8.354-6.672-14.415-14.072-14.415-4.93 0-9.444 2.653-11.984 6.905-2.517-4.307-6.846-6.906-11.697-6.906C6.759 1.826.845 7.887.087 16.241c-.06.369-.306 2.311.442 5.478 1.078 4.568 3.568 8.723 7.199 12.013l18.115 16.439 18.426-16.438c3.631-3.291 6.121-7.445 7.199-12.014.748-3.166.502-5.108.443-5.477z"/></symbol><symbol viewBox="0 0 33 30" id="liker" xmlns="http://www.w3.org/2000/svg"><title>Vector</title><desc>Created using Figma</desc><use xlink:href="#ia" transform="translate(1 1)"/><defs><path id="ia" d="M28.488 2.859l.722-.692-.722.692zM17 3.034l.695.72.027-.028L17 3.034zm-2 0l-.722.692.027.028.695-.72zm-12.344-.26l-.707-.707-.016.016.723.692zm0 13.37l-.723.692.723-.692zm.643.673l-.722.691.048.047.674-.738zM15.531 28l-.674.738a1 1 0 0 0 1.351-.002L15.532 28zm12.072-11.1l.676.737.046-.045-.722-.691zm.724-.756l-.723-.691.723.691zm2.656-6.727l-.998-.063-.002.063h1zM16 4l-.695.72a1 1 0 0 0 1.39 0L16 4zm13.21-1.833C27.288.16 25.044-.879 22.722-.828c-2.314.051-4.539 1.18-6.444 3.171l1.444 1.383c1.635-1.708 3.384-2.518 5.044-2.554 1.651-.037 3.381.687 5 2.378l1.444-1.383zm-13.488.176C13.968.51 12-1 9.094-1v2c2.083 0 3.558 1.027 5.184 2.726l1.444-1.383zM9.094-1C6.388-1 3.888.133 1.949 2.067l1.413 1.416C4.964 1.885 6.97 1 9.094 1v-2zm-7.16 3.083c-3.912 4.087-3.912 10.666 0 14.753l1.444-1.383c-3.17-3.313-3.17-8.674 0-11.987L1.933 2.083zm0 14.753l.643.672 1.445-1.383-.644-.672-1.445 1.383zm.69.719l12.233 11.183 1.35-1.476L3.973 16.079l-1.35 1.476zm13.584 11.181L28.28 17.637l-1.354-1.472-12.071 11.099 1.353 1.472zm12.117-11.144l.724-.756-1.444-1.383-.725.756 1.445 1.383zm.724-.756c1.87-1.955 2.934-4.558 2.934-7.419h-2c0 2.353-.869 4.458-2.378 6.036l1.444 1.383zm2.932-7.355c.18-2.835-.912-5.371-2.77-7.314L27.765 3.55c1.52 1.59 2.36 3.594 2.219 5.804l1.996.127zM16.305 2.315l-1 .966 1.39 1.438 1-.965-1.39-1.439zm.39.966l-1-.966-1.39 1.439 1 .965 1.39-1.438z"/></defs></symbol><symbol viewBox="0 0 27 30" id="logo" xmlns="http://www.w3.org/2000/svg"><title>LOGO</title><desc>Created using Figma</desc><use xlink:href="#ja" transform="translate(6.3 13.33)"/><use xlink:href="#jb" transform="translate(0 16.93)"/><use xlink:href="#jc" transform="translate(7 1.77)"/><use xlink:href="#jd" transform="translate(12.8)"/><use xlink:href="#je" transform="translate(17.3 2.87)"/><use xlink:href="#jf" transform="translate(21.4 9.01)"/><defs><path id="ja" fill-rule="evenodd" d="M15.53 11.223c-.89 2.636-3.152 4.591-6.235 5.163-3.015.571-5.825.241-7.492-.703-1.28-.725-1.805-1.472-1.782-2.9-.114-2.022.228-6.438 1.302-8.218.251-.417.662-.769 1.348-.967 1.096-.351 2.101-.33 1.964.044-.548 1.758-1.827 7.12-1.142 8.635.502 1.077 2.49 1.428 4.294 1.296 2.261-.153 3.86-.944 4.683-3.098.616-1.603.456-3.58-.526-5.207-1.919-3.12-7.286-3.581-10.461-2.57-.526.153-.64.373-.8.022-.41-.967.274-1.692 1.508-2.154 2.764-1.076 6.898-.527 9.548.88 4.043 2.13 5.002 6.261 3.791 9.776z"/><path id="jb" fill-rule="evenodd" d="M5.17 3.933a5.982 5.982 0 0 1-.662-.681C3.89 2.46 3.274 1.648 2.658.857 2.52.68 2.337.593 2.177.439 1.949.22 1.47 0 1.127 0 .853 0 .579.11.373.308.122.57-.037.967.008 1.318c.045.484.251.88.502 1.319.16.307.366.593.526.878.502.835.982 1.67 1.53 2.461.16.22 1.074 1.516 1.759 2.22.617.636 1.096.592 1.05-.242-.045-.835-.09-1.956-.045-2.373.114-.703.411-1.165-.16-1.648z"/><path id="jc" fill-rule="evenodd" d="M1.186 10.214c.068.154.114.242.296.307.206.088.389.022.572-.044.228-.065.41-.087.64-.153.228-.066.456-.044.707-.066.206-.022.411 0 .548-.154.274-.286.092-1.186.046-1.582-.114-.79-.685-4.548-.822-5.669-.092-.9-.137-2.02-1.028-2.636C1.55-.201.523-.003.249.7c-.297.791-.274 1.538-.206 2.351.115 1.406.366 2.835.571 4.24L.89 9.204c.045.308.182.835.297 1.01z"/><path id="jd" fill-rule="evenodd" d="M3.184.013c.297.044.594.22.823.528.228.33.32.593.32.966 0 1.121-.937 10.02-1.006 10.239-.045.198-.068.418-.32.461-.205.044-.388-.043-.593-.088a6.478 6.478 0 0 0-.64-.11c-.434-.043-.822-.043-1.256-.087-.434-.044-.548-.176-.503-.572.023-.197.023-.373.023-.57.114-1.868.343-3.714.594-5.56.137-.922.274-1.845.48-2.768.091-.505.182-1.142.502-1.604.366-.57.982-.922 1.576-.835z"/><path id="je" fill-rule="evenodd" d="M4.713.003c.25.022.48.132.685.285.457.33.365 1.407.251 1.956-.274 1.362-2.238 7.646-2.353 7.91-.114.241-.297.856-.57.922-.32.088-.663-.154-.891-.307-.252-.154-.503-.308-.777-.44-.206-.088-.343-.154-.571-.22-.183-.043-.434-.11-.48-.307-.045-.176.137-.66.229-.879.137-.373.228-.659.342-1.033.274-.944.617-1.889.937-2.812.297-.857.616-1.692.936-2.527.16-.395.274-.834.48-1.23.251-.461.457-.835.96-1.12.25-.11.525-.22.822-.198z"/><path id="jf" fill-rule="evenodd" d="M5.381.362C4.88-.297 4.125.055 3.668.538 3.166 1.065.698 4.8.333 5.328c-.182.263-.388.527-.32.857.092.351.366.703.572 1.01.114.154.205.308.296.462.069.131.16.263.32.33.16.065.343.021.594-.199.297-.285.503-.659.731-.988.548-.77 1.05-1.56 1.53-2.373l.96-1.648c.365-.637.89-1.736.365-2.417z"/></defs></symbol><symbol viewBox="0 0 30 21" id="menu" xmlns="http://www.w3.org/2000/svg"><title>Group</title><desc>Created using Figma</desc><use xlink:href="#ka"/><use xlink:href="#ka" transform="translate(0 9)"/><use xlink:href="#ka" transform="translate(0 18)"/><defs><path id="ka" d="M0 0h30v3H0V0z"/></defs></symbol><symbol viewBox="0 0 9 16" id="ok" xmlns="http://www.w3.org/2000/svg"><title>ok 1</title><desc>Created using Figma</desc><use xlink:href="#la" transform="translate(.5)"/><use xlink:href="#lb" transform="translate(0 8.12)"/><defs><path id="la" d="M3.825 7.977c2.106 0 3.825-1.783 3.825-3.988C7.65 1.793 5.94 0 3.825 0 1.72 0 0 1.783 0 3.989c0 2.205 1.71 3.988 3.825 3.988zm0-5.63c.873 0 1.584.74 1.584 1.651 0 .91-.71 1.652-1.584 1.652-.873 0-1.584-.742-1.584-1.652 0-.91.711-1.652 1.584-1.652z"/><path id="lb" d="M5.844 3.118a7.193 7.193 0 0 0 2.223-.957 1.2 1.2 0 0 0 .35-1.614C8.086.003 7.402-.166 6.87.181a4.702 4.702 0 0 1-5.148 0C1.2-.166.507.003.174.547a1.201 1.201 0 0 0 .35 1.614c.694.45 1.44.77 2.224.957L.615 5.343a1.196 1.196 0 0 0 0 1.651 1.094 1.094 0 0 0 1.584 0l2.097-2.186 2.097 2.186c.44.46 1.143.46 1.584 0a1.196 1.196 0 0 0 0-1.651L5.844 3.118z"/></defs></symbol><symbol viewBox="0 0 47 52" id="pig" xmlns="http://www.w3.org/2000/svg"><title>noun_1026237_cc</title><desc>Created using Figma</desc><use xlink:href="#ma" transform="scale(1.0086 .9913) rotate(-45 16.968 -21.435)"/><use xlink:href="#mb" transform="translate(17.8 5.83)"/><use xlink:href="#mc" transform="translate(18.1 21.15)"/><use xlink:href="#md" transform="translate(31.6 27.27)"/><g transform="translate(1 13.91)"><use xlink:href="#me"/><use xlink:href="#mf"/></g><defs><path id="ma" d="M7.096 4.048a3.048 3.048 0 0 1-3.048 3.048v2a5.048 5.048 0 0 0 5.048-5.048h-2zM4.048 7.096A3.048 3.048 0 0 1 1 4.048h-2a5.048 5.048 0 0 0 5.048 5.048v-2zM1 4.048A3.048 3.048 0 0 1 4.048 1v-2A5.048 5.048 0 0 0-1 4.048h2zM4.048 1a3.048 3.048 0 0 1 3.048 3.048h2A5.048 5.048 0 0 0 4.048-1v2z"/><path id="mb" d="M4.083 1a1 1 0 1 0 0-2v2zm5.083 3.013a1 1 0 1 0-2 0h2zM4.083-1C1.293-1-1 1.228-1 4.013h2C1 2.365 2.364 1 4.083 1v-2zM-1 4.013c0 2.784 2.292 5.012 5.083 5.012v-2C2.364 7.025 1 5.66 1 4.013h-2zm5.083 5.012c2.79 0 5.083-2.228 5.083-5.012h-2c0 1.647-1.364 3.012-3.083 3.012v2z"/><path id="mc" d="M1.007 3.549a.79.79 0 0 0 .61-.24c2.62-2.216 6.032-1.197 6.154-1.137.488.18 1.036-.12 1.22-.6.182-.479-.123-1.018-.61-1.197C8.198.315 3.81-1.063.337 1.872A.937.937 0 0 0 .215 3.19c.244.24.488.359.792.359z"/><path id="md" d="M1.828 3.594c1.01 0 1.828-.805 1.828-1.797C3.656.804 2.838 0 1.828 0 .818 0 0 .804 0 1.797c0 .992.818 1.797 1.828 1.797z"/><path id="me" d="M2.582 18.628c.731.36 1.463.539 2.255.539.305 0 .548-.06.853-.06.122 2.695 1.036 5.33 2.56 7.666-1.524 2.575-1.22 5.81.73 7.966 1.28 1.437 3.047 2.276 5.058 2.335h.183a7.239 7.239 0 0 0 4.936-1.976l.792-.779c2.316.48 4.692.54 7.008.18l.548.539c2.682 2.575 6.886 2.755 9.69.36a6.436 6.436 0 0 0 1.888-7.248 15.8 15.8 0 0 0 1.768-2.874c2.315-.06 4.143-1.917 4.143-4.193v-5.27a3.732 3.732 0 0 0-1.218-2.995c-.793-.778-1.829-1.258-2.925-1.258-.975-1.856-2.377-3.533-4.083-4.97l.183-1.737c.243-1.977.243-2.576.182-2.995C37.011.78 36.158.001 35.062.001c-2.255-.06-6.216 1.797-7.557 2.516h-.06c-1.28-.18-2.56-.36-3.352-.36-6.947 0-13.284 3.414-16.453 8.924-.061.06-.061.18-.122.24.061-.12.061-.24.122-.24-.67.959-1.645 2.815-2.011 5.45-.67.3-1.401.3-2.01-.06a2.336 2.336 0 0 1-1.098-1.317c-.183-.539-.122-1.198.183-1.737.305-.599.122-1.317-.487-1.617-.61-.3-1.341-.12-1.646.48-.61 1.077-.731 2.335-.365 3.533.426 1.257 1.218 2.216 2.376 2.815zm7.19-6.17c0-.059.062-.119.123-.179 2.742-4.791 8.226-7.726 14.32-7.726.67 0 2.315.24 2.986.3.304.06.548.06.61.06.243 0 .426-.06.608-.18.732-.42 4.51-2.156 6.338-2.336 0 .54-.122 1.617-.183 2.156L34.33 6.95c-.06.42.122.778.488 1.078 1.828 1.437 3.29 3.234 4.205 5.15.182.42.609.72 1.096.72h.67c.488 0 .915.179 1.28.538.366.36.549.779.488 1.318v5.27c0 .959-.853 1.797-1.767 1.797h-.67c-.488 0-.976.24-1.158.719-.67 1.437-1.402 2.635-2.133 3.473a1.45 1.45 0 0 0-.244 1.558c.792 1.737.366 3.773-1.097 4.97-1.828 1.558-4.57 1.438-6.337-.299l-.975-.958a1.24 1.24 0 0 0-1.097-.36c-2.377.42-4.936.36-7.313-.239-.426-.12-.853 0-1.157.3l-1.28 1.257a4.571 4.571 0 0 1-3.169 1.318h-.183a4.811 4.811 0 0 1-3.29-1.497c-1.402-1.558-1.463-3.953-.122-5.69a1.244 1.244 0 0 0 0-1.438c-1.706-2.275-2.62-4.91-2.62-7.606.122-2.934 1.157-4.97 1.828-5.87zM7.64 11.442c0 .12-.061.18-.061.3 0-.12 0-.24.061-.3z"/><path id="mf" d="M2.582 18.628l-.115.222.005.002.11-.224zm3.108.479l.25-.011-.011-.24H5.69v.25zm2.56 7.666l.214.127.08-.133-.085-.13-.21.136zm.73 7.966l.187-.167-.001-.001-.185.168zm5.058 2.335l-.007.25h.007v-.25zm5.119-1.976l.171.182.004-.004-.175-.178zm.792-.779l.05-.245-.13-.026-.095.093.175.178zm7.008.18l.175-.178-.09-.088-.123.019.038.247zm.548.539l-.175.178.002.002.173-.18zm9.69.36l-.162-.192-.001.001.162.19zm1.888-7.248l-.197-.154-.086.111.05.132.233-.088zm1.768-2.874l-.007-.25-.152.004-.067.137.226.109zm4.143-9.463l-.25-.014v.014h.25zm-1.218-2.995l-.176.179.007.006.169-.185zM40.85 11.56l-.222.117.07.133h.152v-.25zm-4.083-4.97l-.249-.027-.014.132.102.086.16-.191zm.183-1.737l-.249-.031v.004l.249.027zm.182-2.995l-.248.028.001.008.247-.036zM35.062.001l-.007.25h.007v-.25zm-7.557 2.516l-.118-.22.118.47v-.25zm-.06 0l-.035.247.017.003h.018v-.25zM7.64 11.08l.175.179.025-.024.017-.03-.217-.125zm-.122.24l-.223-.113.398.291-.175-.178zm.122-.24l.205.144.275-.394h-.48v.25zm-2.011 5.45l.102.229.127-.057.019-.137-.248-.034zm-2.01-.06l.126-.215-.007-.004-.12.22zm-.915-3.054l.218.123.005-.01-.223-.113zM.571 12.28l.218.123.005-.01-.223-.113zm-.365 3.534l-.24.073.003.007.237-.08zm9.567-3.354l.2.15.05-.067v-.083h-.25zm.122-.18l.175.178.024-.024.018-.03-.217-.124zM27.2 4.853l.048-.246-.013-.002-.013-.001-.022.249zm1.218-.12l-.124-.217-.006.004-.007.004.137.209zm6.338-2.336h.25v-.276l-.275.027.025.25zm-.183 2.156l-.248-.028v.003l.248.025zM34.33 6.95l.248.036.001-.01-.249-.026zm.488 1.078l-.159.193.004.003.155-.196zm4.205 5.15l.229-.1-.004-.007-.225.108zm3.534 2.576l-.249-.028-.001.014v.014h.25zm-3.596 7.786l.227.105.004-.008.003-.008-.233-.09zm-2.132 3.473l-.189-.164.189.165zm-.244 1.558l-.228.103.228-.103zm-1.097 4.97l-.158-.193-.004.003.162.19zm-6.337-.299l-.176.179.176-.179zm-.975-.958l.175-.178-.175.178zm-1.097-.36l-.035-.247-.009.002.044.246zm-7.313-.239l-.067.24.006.003.061-.243zm-1.157.3l.175.178-.175-.178zm-1.28 1.257l-.175-.178.175.178zm-3.352 1.318l-.011.25h.011v-.25zm-3.29-1.497l-.186.167.005.005.18-.172zm-.122-5.69l.198.153.004-.006-.202-.147zm0-1.438l.202-.146-.002-.003-.2.15zm-2.62-7.606l-.25-.01v.01h.25zm-.305-6.887h.25v-.597l-.425.418.175.179zm-5.168 7.411a5.35 5.35 0 0 0 2.365.565v-.5c-.762.002-1.438-.165-2.145-.514l-.22.45zm2.365.565c.335-.002.578-.062.853-.06v-.5c-.335.002-.578.062-.853.06v.5zm.603-.299c.126 2.731 1.061 5.43 2.6 7.792l.419-.274c-1.509-2.309-2.402-4.881-2.52-7.54l-.499.022zm2.594 7.528c-1.577 2.666-1.265 6.02.761 8.26l.371-.335c-1.874-2.072-2.17-5.187-.702-7.67l-.43-.255zm.76 8.259c1.325 1.489 3.158 2.357 5.237 2.42l.015-.5c-1.943-.058-3.645-.867-4.879-2.253l-.373.333zm5.244 2.42h.183v-.5h-.183v.5zm.183 0c1.876-.005 3.73-.759 5.107-2.045l-.342-.364c-1.305 1.23-2.985 1.913-4.765 1.908v.5zm5.111-2.049l.793-.778-.351-.357-.792.779.35.356zm.567-.712a20.04 20.04 0 0 0 7.096.182l-.076-.494a19.342 19.342 0 0 1-6.92-.178l-.1.49zm6.883.113l.548.54.35-.357-.548-.54-.35.357zm.55.541c2.771 2.662 7.12 2.851 10.025.37l-.325-.38c-2.702 2.309-6.762 2.14-9.353-.35l-.347.36zm10.023.37a6.686 6.686 0 0 0 1.962-7.526l-.467.177a6.186 6.186 0 0 1-1.817 6.967l.322.383zm1.925-7.283a16.16 16.16 0 0 0 1.796-2.92l-.45-.218a15.437 15.437 0 0 1-1.74 2.83l.394.308zm1.577-2.78c2.448-.063 4.387-2.027 4.387-4.442h-.5c0 2.138-1.717 3.886-3.9 3.943l.013.5zm4.387-4.442v-5.27h-.5v5.27h.5zm0-5.257a3.982 3.982 0 0 0-1.3-3.192l-.337.369a3.482 3.482 0 0 1 1.138 2.796l.499.027zM43.95 12.64c-.833-.818-1.93-1.33-3.1-1.33v.5c1.022 0 1.997.447 2.75 1.186l.35-.356zm-2.88-1.196c-.988-1.88-2.42-3.594-4.142-5.046l-.322.383c1.69 1.422 3.06 3.062 4.022 4.896l.443-.233zm-4.055-4.828l.183-1.737-.497-.053-.183 1.737.497.053zm.183-1.733c.243-1.973.248-2.604.182-3.06l-.495.071c.055.381.06.948-.184 2.928l.497.061zm.183-3.053c-.136-1.203-1.094-2.079-2.32-2.079v.5c.967 0 1.715.682 1.823 1.635l.497-.056zM35.068-.248c-1.18-.032-2.775.434-4.216.981a32.11 32.11 0 0 0-3.465 1.564l.236.44a31.35 31.35 0 0 1 3.406-1.536c1.439-.546 2.952-.978 4.026-.95l.013-.5zm-7.563 2.765v-.25h-.06v.5h.06v-.25zm-.026-.248c-1.28-.18-2.576-.36-3.386-.361v.5c.775-.001 2.037.177 3.317.356l.07-.495zm-3.386-.361c-7.025 0-13.451 3.452-16.67 9.049l.434.249c3.119-5.423 9.367-8.798 16.236-8.798v-.5zM7.465 10.903a.43.43 0 0 0-.088.128 1.033 1.033 0 0 0-.035.09c-.007.022-.01.032-.015.04-.002.006.002-.005.016-.018l.35.356a.43.43 0 0 0 .088-.127c.015-.033.027-.068.035-.09.007-.023.01-.033.015-.041.002-.006-.002.005-.016.019l-.35-.357zm.276.531c.02-.042.039-.088.05-.12l.025-.078.003-.01a.1.1 0 0 1-.013.023.211.211 0 0 1-.166.082v-.5a.293.293 0 0 0-.238.124.45.45 0 0 0-.06.12c-.018.055-.027.098-.047.133l.446.226zm-.306-.496c-.69.987-1.682 2.88-2.054 5.56l.496.068c.36-2.592 1.317-4.411 1.968-5.341l-.41-.287zm-1.908 5.365c-.609.272-1.253.265-1.782-.047l-.254.431c.69.407 1.508.4 2.24.073l-.204-.457zm-1.79-.05a1.991 1.991 0 0 1-.979-1.18l-.473.161a2.691 2.691 0 0 0 1.213 1.457l.24-.439zm-.979-1.18c-.159-.468-.107-1.053.164-1.533l-.436-.246c-.338.599-.408 1.331-.201 1.94l.473-.16zm.169-1.543c.359-.704.152-1.585-.6-1.954l-.22.448c.466.23.625.787.374 1.28l.446.226zm-.6-1.954c-.71-.35-1.601-.152-1.979.59l.446.227c.232-.457.804-.619 1.312-.369l.22-.448zm-1.973.58c-.645 1.14-.772 2.47-.387 3.73l.478-.146c-.347-1.135-.23-2.322.344-3.338l-.435-.246zm-.385 3.737c.446 1.315 1.28 2.326 2.498 2.957l.23-.444C1.6 17.838.85 16.933.442 15.733l-.473.16zm10.054-3.434a.14.14 0 0 1-.011.057c-.004.008-.006.01-.002.005a1.584 1.584 0 0 1 .06-.063l-.35-.357c-.031.03-.074.073-.108.116a.4.4 0 0 0-.09.242h.5zm.089-.056c2.691-4.703 8.086-7.6 14.103-7.6v-.5c-6.171 0-11.745 2.973-14.537 7.852l.434.248zm14.103-7.6c.322 0 .887.059 1.464.126s1.16.142 1.5.173l.044-.498c-.33-.03-.906-.104-1.486-.172-.58-.067-1.174-.128-1.522-.129v.5zm2.938.295c.328.063.596.065.657.065v-.5c-.06 0-.28 0-.561-.056l-.096.49zm.657.065c.283-.004.535-.085.747-.221l-.275-.418a.714.714 0 0 1-.472.139v.5zm.734-.213c.357-.205 1.469-.737 2.726-1.243 1.266-.51 2.637-.975 3.511-1.061l-.049-.498c-.954.094-2.386.587-3.648 1.095-1.272.512-2.415 1.059-2.789 1.273l.249.434zm5.963-2.553c0 .525-.12 1.59-.181 2.128l.496.056c.061-.539.184-1.63.185-2.184h-.5zm-.182 2.13l-.243 2.397.497.05.244-2.396-.498-.05zm-.242 2.386c-.077.53.164.97.576 1.307l.317-.387c-.318-.26-.443-.54-.398-.848l-.495-.072zm.58 1.31c1.808 1.42 3.234 3.172 4.134 5.062l.451-.215c-.928-1.943-2.427-3.784-4.276-5.24l-.309.393zm4.13 5.054c.221.507.736.87 1.326.87v-.5a.954.954 0 0 1-.867-.57l-.459.2zm1.326.87h.67v-.5h-.67v.5zm.67 0c.419 0 .783.15 1.105.467l.35-.357c-.41-.403-.898-.61-1.454-.61v.5zm1.105.467c.318.312.466.658.414 1.11l.497.057c.07-.625-.148-1.118-.56-1.524l-.35.357zm.413 1.139v5.27h.5v-5.27h-.5zm0 5.27c0 .822-.743 1.547-1.517 1.547v.5c1.053 0 2.017-.952 2.017-2.047h-.5zM40.79 22.57h-.67v.5h.67v-.5zm-.67 0c-.56 0-1.162.277-1.392.88l.467.178c.136-.355.508-.558.924-.558v-.5zm-1.385.863c-.664 1.425-1.377 2.593-2.095 3.415l.377.329c.745-.855 1.494-2.083 2.171-3.532l-.453-.212zm-2.095 3.415a1.7 1.7 0 0 0-.283 1.825l.456-.206a1.2 1.2 0 0 1 .204-1.29l-.377-.329zm-.282 1.826c.747 1.639.342 3.551-1.028 4.673l.317.387c1.554-1.273 2.002-3.433 1.165-5.268l-.454.207zm-1.032 4.676c-1.726 1.47-4.322 1.362-6-.287l-.35.357c1.856 1.824 4.744 1.955 6.674.311l-.324-.38zm-6-.287l-.975-.958-.35.356.974.959.35-.357zm-.975-.958a1.49 1.49 0 0 0-1.307-.429l.07.495a.992.992 0 0 1 .886.29l.35-.356zm-1.316-.427c-2.352.416-4.858.357-7.207-.236l-.123.485c2.404.604 5.016.665 7.417.243l-.087-.493zm-7.201-.235a1.424 1.424 0 0 0-1.4.362l.35.357a.924.924 0 0 1 .915-.237l.135-.482zm-1.4.362l-1.28 1.258.35.357 1.28-1.258-.35-.357zm-1.28 1.258a4.322 4.322 0 0 1-2.994 1.246v.5a4.818 4.818 0 0 0 3.344-1.39l-.35-.356zm-2.994 1.246h-.183v.5h.183v-.5zm-.17 0a4.562 4.562 0 0 1-3.122-1.42l-.363.345a5.062 5.062 0 0 0 3.46 1.575l.024-.5zm-3.117-1.415c-1.317-1.462-1.381-3.723-.11-5.37l-.396-.305c-1.41 1.827-1.353 4.358.134 6.01l.372-.335zm-.106-5.375a1.495 1.495 0 0 0 0-1.731l-.404.293a.994.994 0 0 1 0 1.144l.404.294zm-.002-1.734c-1.686-2.244-2.574-4.803-2.57-7.457h-.5c.003 2.737.943 5.448 2.67 7.756l.4-.3zm-2.57-7.446c.12-2.883 1.137-4.87 1.778-5.73l-.4-.3c-.7.937-1.754 3.022-1.878 6.009l.5.02zM7.39 11.44c.003.019-.002.024-.017.07a.808.808 0 0 0-.044.23h.5c-.003-.02.002-.025.017-.07a.808.808 0 0 0 .044-.23h-.5zm.439.3c0-.065 0-.106.005-.137.002-.016.005-.02.003-.016a.094.094 0 0 1-.022.031l-.35-.357a.464.464 0 0 0-.126.27c-.01.07-.01.148-.01.208h.5z"/></defs></symbol><symbol viewBox="0 0 51 42" id="qwestions" xmlns="http://www.w3.org/2000/svg"><title>qwestions</title><desc>Created using Figma</desc><use xlink:href="#na" transform="translate(31.4)"/><use xlink:href="#nb" transform="translate(0 7.61)"/><use xlink:href="#nc" transform="translate(0 14.51)"/><use xlink:href="#nc" transform="translate(0 19.18)"/><use xlink:href="#nd" transform="translate(0 23.86)"/><use xlink:href="#ne" transform="translate(0 28.53)"/><use xlink:href="#nf" transform="translate(0 33.21)"/><use xlink:href="#ng" transform="translate(28.2 20.3)"/><use xlink:href="#nh" transform="translate(28.2 27.2)"/><use xlink:href="#ni" transform="translate(28.2 31.87)"/><use xlink:href="#ni" transform="translate(28.2 36.55)"/><defs><path id="na" d="M3.422 11.029c0-1.058.12-1.89.36-2.5a3.91 3.91 0 0 1 1.17-1.597c.54-.449.948-.858 1.225-1.227.284-.377.426-.79.426-1.24 0-1.093-.473-1.64-1.42-1.64-.438 0-.792.16-1.061.478-.27.319-.412.75-.427 1.293H0c.015-1.449.474-2.575 1.378-3.379C2.28.406 3.549 0 5.182 0c1.625 0 2.883.373 3.772 1.12.896.745 1.345 1.807 1.345 3.183 0 .601-.12 1.148-.361 1.64-.24.493-.627.997-1.159 1.511L7.522 8.617c-.357.34-.605.691-.744 1.054-.138.355-.215.807-.23 1.358H3.423zm-.448 3.303c0-.536.193-.974.58-1.315.393-.347.881-.521 1.464-.521s1.068.174 1.454.521c.394.34.59.779.59 1.315 0 .536-.196.978-.59 1.326-.386.34-.87.51-1.454.51-.583 0-1.071-.17-1.465-.51a1.705 1.705 0 0 1-.58-1.326z"/><path id="nb" d="M11.407 0C9.5 0 0 .194 0 4.007 0 7.82 9.501 8.013 11.407 8.013c1.906 0 11.407-.193 11.407-4.006S13.313 0 11.407 0zm0 5.342c-4.482 0-7.381-.768-8.428-1.335 1.047-.568 3.946-1.336 8.428-1.336 4.482 0 7.38.768 8.428 1.336-1.047.567-3.946 1.335-8.428 1.335z"/><path id="nc" d="M21.476.111a1.346 1.346 0 0 0-.88.313c-.247.206-.41.493-.462.809-.59.56-3.657 1.55-8.723 1.55-5.066 0-8.152-1.002-8.723-1.55A1.335 1.335 0 0 0 1.761.065 1.352 1.352 0 0 0 .32.471a1.338 1.338 0 0 0-.317.976c0 3.813 9.502 4.006 11.407 4.006 1.906 0 11.407-.193 11.407-4.006 0-.355-.141-.694-.393-.945a1.345 1.345 0 0 0-.949-.39z"/><path id="nd" d="M21.476.111a1.346 1.346 0 0 0-.88.313c-.247.206-.41.493-.462.809-.59.56-3.657 1.55-8.723 1.55-5.066 0-8.152-1.002-8.723-1.55A1.338 1.338 0 0 0 2.22.32 1.35 1.35 0 0 0 .321.47c-.231.27-.345.621-.317.976 0 3.813 9.502 4.006 11.407 4.006 1.906 0 11.407-.193 11.407-4.006 0-.355-.141-.694-.393-.945a1.345 1.345 0 0 0-.949-.39z"/><path id="ne" d="M21.476.111a1.346 1.346 0 0 0-.88.313c-.247.206-.41.493-.462.809-.59.56-3.657 1.55-8.723 1.55-5.066 0-8.152-1.002-8.723-1.55A1.338 1.338 0 0 0 2.22.32 1.35 1.35 0 0 0 .321.47c-.231.27-.345.621-.317.976 0 3.813 9.502 4.006 11.407 4.006 1.906 0 11.407-.193 11.407-4.006 0-.355-.141-.694-.393-.945a1.345 1.345 0 0 0-.949-.39z"/><path id="nf" d="M21.476.111a1.346 1.346 0 0 0-.88.313c-.247.206-.41.493-.462.809-.59.56-3.657 1.55-8.723 1.55-5.066 0-8.152-1.002-8.723-1.55A1.335 1.335 0 0 0 1.761.065 1.352 1.352 0 0 0 .32.471a1.338 1.338 0 0 0-.317.976c0 3.813 9.502 4.006 11.407 4.006 1.906 0 11.407-.193 11.407-4.006 0-.355-.141-.694-.393-.945a1.345 1.345 0 0 0-.949-.39z"/><path id="ng" d="M11.407 8.013c1.906 0 11.407-.193 11.407-4.006S13.313 0 11.407 0C9.5 0 0 .194 0 4.007 0 7.82 9.501 8.013 11.407 8.013zm0-5.342c4.482 0 7.38.768 8.428 1.336-1.047.567-3.946 1.335-8.428 1.335-4.482 0-7.381-.768-8.428-1.335 1.047-.568 3.946-1.336 8.428-1.336z"/><path id="nh" d="M21.476.111a1.346 1.346 0 0 0-.88.313c-.247.206-.41.493-.462.809-.59.56-3.657 1.55-8.723 1.55-5.066 0-8.152-1.002-8.723-1.55A1.338 1.338 0 0 0 2.22.32 1.35 1.35 0 0 0 .321.47c-.231.27-.345.621-.317.976 0 3.813 9.502 4.006 11.407 4.006 1.906 0 11.407-.193 11.407-4.006 0-.355-.141-.694-.393-.945a1.345 1.345 0 0 0-.949-.39z"/><path id="ni" d="M21.476.111a1.346 1.346 0 0 0-.88.313c-.247.206-.41.493-.462.809-.59.56-3.657 1.55-8.723 1.55-5.066 0-8.152-1.002-8.723-1.55A1.338 1.338 0 0 0 2.22.32 1.35 1.35 0 0 0 .321.47c-.231.27-.345.621-.317.976 0 3.813 9.502 4.006 11.407 4.006 1.906 0 11.407-.193 11.407-4.006 0-.355-.141-.694-.393-.945a1.345 1.345 0 0 0-.949-.39z"/></defs></symbol><symbol viewBox="0 0 511.626 511.627" id="share" xmlns="http://www.w3.org/2000/svg"><path d="M506.206 179.012L360.025 32.834c-3.617-3.617-7.898-5.426-12.847-5.426s-9.233 1.809-12.847 5.426c-3.617 3.619-5.428 7.902-5.428 12.85v73.089H264.95c-135.716 0-218.984 38.354-249.823 115.06C5.042 259.335 0 291.03 0 328.907c0 31.594 12.087 74.514 36.259 128.762.57 1.335 1.566 3.614 2.996 6.849a603.829 603.829 0 0 0 3.854 8.565c1.146 2.471 2.384 4.565 3.715 6.276 2.282 3.237 4.948 4.859 7.994 4.859 2.855 0 5.092-.951 6.711-2.854 1.615-1.902 2.424-4.284 2.424-7.132 0-1.718-.238-4.236-.715-7.569-.476-3.333-.715-5.564-.715-6.708-.953-12.938-1.429-24.653-1.429-35.114 0-19.223 1.668-36.449 4.996-51.675 3.333-15.229 7.948-28.407 13.85-39.543 5.901-11.14 13.512-20.745 22.841-28.835 9.325-8.09 19.364-14.702 30.118-19.842 10.756-5.141 23.413-9.186 37.974-12.135 14.56-2.95 29.215-4.997 43.968-6.14s31.455-1.711 50.109-1.711h63.953v73.091c0 4.948 1.807 9.232 5.421 12.847 3.62 3.613 7.901 5.424 12.847 5.424 4.948 0 9.232-1.811 12.854-5.424l146.178-146.183c3.617-3.617 5.424-7.898 5.424-12.847-.001-4.948-1.807-9.232-5.421-12.856z"/></symbol><symbol viewBox="0 0 16 13" id="tw" xmlns="http://www.w3.org/2000/svg"><title>twitter 1</title><desc>Created using Figma</desc><use xlink:href="#pa"/><defs><path id="pa" d="M15.62 1.465a6.833 6.833 0 0 1-1.844.495A3.176 3.176 0 0 0 15.188.229a6.765 6.765 0 0 1-2.033.76A3.259 3.259 0 0 0 10.812 0c-1.77 0-3.209 1.401-3.209 3.123 0 .247.028.485.085.714A9.181 9.181 0 0 1 1.082.577 3.065 3.065 0 0 0 .65 2.143a3.1 3.1 0 0 0 1.43 2.601A3.218 3.218 0 0 1 .63 4.35v.037c0 1.51 1.101 2.775 2.57 3.059a3.276 3.276 0 0 1-1.45.055c.405 1.236 1.59 2.143 2.993 2.17A6.586 6.586 0 0 1 0 10.962a9.235 9.235 0 0 0 4.912 1.402c5.9 0 9.128-4.754 9.128-8.884 0-.137 0-.265-.01-.403a6.255 6.255 0 0 0 1.59-1.612z"/></defs></symbol><symbol viewBox="0 0 18 11" id="vk" xmlns="http://www.w3.org/2000/svg"><title>vk x5F alt 1</title><desc>Created using Figma</desc><use xlink:href="#qa"/><defs><path id="qa" fill-rule="evenodd" d="M8.42 10h1.022s.314-.038.466-.213c.144-.156.144-.46.144-.46s-.018-1.417.618-1.62c.628-.202 1.444 1.362 2.296 1.97.645.46 1.138.359 1.138.359l2.296-.037s1.201-.073.627-1.04c-.045-.083-.332-.718-1.703-2.025-1.435-1.372-1.247-1.15.484-3.517 1.058-1.445 1.48-2.329 1.345-2.706-.126-.359-.906-.267-.906-.267l-2.582.019s-.188-.028-.332.064c-.134.083-.224.285-.224.285s-.412 1.114-.95 2.072c-1.148 2.006-1.614 2.108-1.803 1.988-.439-.295-.331-1.17-.331-1.786 0-1.942.287-2.752-.556-2.964-.278-.074-.484-.12-1.202-.12-.923-.009-1.703 0-2.143.221-.296.147-.52.479-.385.497.17.028.556.11.762.396.269.368.251 1.197.251 1.197s.152 2.283-.359 2.568c-.35.193-.825-.202-1.847-2.025-.529-.93-.923-1.96-.923-1.96S3.543.701 3.408.6C3.246.47 3.013.435 3.013.435L.556.453S.19.463.054.628c-.116.147-.009.451-.009.451S1.964 5.691 4.143 8.02C6.16 10.137 8.42 10 8.42 10z"/></defs></symbol><symbol viewBox="0 0 37 28" id="wallet" xmlns="http://www.w3.org/2000/svg"><title>wallet</title><desc>Created using Figma</desc><use xlink:href="#ra"/><defs><path id="ra" d="M35.844 11.667h-1.157V5.833a1.16 1.16 0 0 0-1.156-1.166h-1.156v-3.5A1.16 1.16 0 0 0 31.219 0H5.78C2.593 0 0 2.617 0 5.833v16.334C0 25.383 2.593 28 5.781 28h27.75a1.16 1.16 0 0 0 1.157-1.167V21h1.156A1.16 1.16 0 0 0 37 19.833v-7a1.16 1.16 0 0 0-1.156-1.166zm-3.469 14H5.781c-1.912 0-3.468-1.57-3.468-3.5V5.833c0-1.93 1.556-3.5 3.468-3.5h24.282v2.334H5.78a1.16 1.16 0 0 0-1.156 1.166A1.162 1.162 0 0 0 5.781 7h26.594v4.667h-5.781a1.16 1.16 0 0 0-1.157 1.166v7A1.16 1.16 0 0 0 26.595 21h5.781v4.667zm2.313-7H27.75V14h6.938v4.667z"/></defs></symbol></svg>