<svg width="1900" height="671" viewBox="0 0 1900 671" version="1.1" xmlns="http://www.w3.org/2000/svg" xmlns:xlink="http://www.w3.org/1999/xlink">
<title>&#209;&#132;&#208;&#190;&#208;&#189;</title>
<desc>Created using Figma</desc>
<g id="Canvas" transform="translate(-4311 -11361)">
<g id="&#209;&#132;&#208;&#190;&#208;&#189;">
<g id="Vector">
<use xlink:href="#path0_fill" transform="matrix(-1 0 0 1 6195.44 11572.3)" fill="#B5DAEA"/>
</g>
<g id="Group">
<g id="Group">
<g id="Vector">
<use xlink:href="#path1_fill" transform="matrix(-1 0 0 1 5648.04 11872.9)" fill="#6DBB48"/>
</g>
<g id="Vector">
<use xlink:href="#path2_fill" transform="matrix(-1 0 0 1 6211.5 11872.2)" fill="#8FC342"/>
</g>
</g>
</g>
<g id="Group">
<g id="Vector">
<use xlink:href="#path3_fill" transform="translate(6137.25 11816.4)" fill="#8D633A"/>
</g>
<g id="Vector">
<use xlink:href="#path4_fill" transform="translate(6054.13 11716.8)" fill="#8DC641"/>
</g>
<g id="Vector">
<use xlink:href="#path5_fill" transform="translate(6115.59 11680.9)" fill="#3DB54A"/>
</g>
<g id="Vector">
<use xlink:href="#path6_fill" transform="translate(6174.38 11732.6)" fill="#079247"/>
</g>
</g>
<g id="Vector">
<use xlink:href="#path7_fill" transform="translate(4371.76 11555.9)" fill="#FFFFFF"/>
</g>
<g id="Vector">
<use xlink:href="#path8_fill" transform="translate(6088.34 11462.2)" fill="#FFFFFF"/>
</g>
<g id="Vector" opacity="0.79">
<use xlink:href="#path9_fill" transform="translate(5877.11 11361)" fill="#FFFFFF"/>
</g>
<g id="Group">
<g id="Vector">
<use xlink:href="#path10_fill" transform="translate(5698.76 11978.8)" fill="#4E4E4E"/>
</g>
<g id="Vector">
<use xlink:href="#path11_fill" transform="translate(5926.2 11978.8)" fill="#4E4E4E"/>
</g>
<g id="Vector">
<use xlink:href="#path12_fill" transform="translate(5692.66 11967.2)" fill="#754D25"/>
</g>
<g id="Vector">
<use xlink:href="#path13_fill" transform="translate(5716.02 11895.2)" fill="#4E4E4E"/>
</g>
<g id="Vector">
<use xlink:href="#path14_fill" transform="translate(5915.05 11895.2)" fill="#4E4E4E"/>
</g>
<g id="Vector">
<use xlink:href="#path15_fill" transform="translate(5699.21 11895.2)" fill="#A67D52"/>
</g>
<g id="Vector">
<use xlink:href="#path16_fill" transform="translate(5699.21 11914.1)" fill="#A67D52"/>
</g>
<g id="Vector">
<use xlink:href="#path17_fill" transform="translate(5699.21 11932.8)" fill="#A67D52"/>
</g>
<g id="Vector">
<use xlink:href="#path15_fill" transform="translate(5699.21 11951.7)" fill="#A67D52"/>
</g>
<g id="Vector">
<use xlink:href="#path18_fill" transform="translate(5716.61 11899.2)" fill="#754D25"/>
</g>
<g id="Vector">
<use xlink:href="#path19_fill" transform="translate(5717.36 11918)" fill="#754D25"/>
</g>
<g id="Vector">
<use xlink:href="#path20_fill" transform="translate(5716.61 11936.9)" fill="#754D25"/>
</g>
<g id="Vector">
<use xlink:href="#path21_fill" transform="translate(5717.36 11955.6)" fill="#754D25"/>
</g>
<g id="Vector">
<use xlink:href="#path22_fill" transform="translate(5915.79 11955.6)" fill="#754D25"/>
</g>
<g id="Vector">
<use xlink:href="#path23_fill" transform="translate(5915.79 11936.9)" fill="#754D25"/>
</g>
<g id="Vector">
<use xlink:href="#path24_fill" transform="translate(5915.79 11917.1)" fill="#754D25"/>
</g>
<g id="Vector">
<use xlink:href="#path24_fill" transform="translate(5915.79 11899.2)" fill="#754D25"/>
</g>
</g>
<g id="Vector">
<use xlink:href="#path25_fill" transform="translate(5552.84 11514.3)" fill="#FFFFFF"/>
</g>
<g id="Vector" opacity="0.79">
<use xlink:href="#path26_fill" transform="translate(4428.29 11475.6)" fill="#FFFFFF"/>
</g>
<g id="Group">
<g id="Vector">
<use xlink:href="#path27_fill" transform="translate(5514.16 11869.3)" fill="#B0E00C"/>
</g>
<g id="Vector">
<use xlink:href="#path28_fill" transform="translate(5533.63 11828.2)" fill="#90C541"/>
</g>
<g id="Vector">
<use xlink:href="#path29_fill" transform="translate(5571.59 11866.6)" fill="#74A334"/>
</g>
<g id="Vector">
<use xlink:href="#path30_fill" transform="translate(5542.91 11862.7)" fill="#8C6239"/>
</g>
<g id="Group">
<g id="Vector">
<use xlink:href="#path31_fill" transform="translate(5543.86 11900.5)" fill="#90C541"/>
</g>
</g>
<clipPath id="clip-0" clip-rule="evenodd">
<path d="M 5559.72 11847.3L 5598.3 11847.3L 5598.3 11891L 5559.72 11891L 5559.72 11847.3Z" fill="#FFFFFF"/>
</clipPath>
<g id="Group" clip-path="url(#clip-0)">
</g>
<clipPath id="clip-1" clip-rule="evenodd">
<path d="M 5613.68 11897.6L 5652.02 11897.6L 5652.02 11941.1L 5613.68 11941.1L 5613.68 11897.6Z" fill="#FFFFFF"/>
</clipPath>
<g id="Group" clip-path="url(#clip-1)">
</g>
</g>
<g id="Group">
<g id="Vector">
<use xlink:href="#path32_fill" transform="translate(4301.38 11721.2)" fill="#8C6239"/>
</g>
<g id="Group">
<g id="Vector">
<use xlink:href="#path33_fill" transform="translate(4315.56 11694.3)" fill="#B0E00C"/>
</g>
<g id="Vector">
<use xlink:href="#path34_fill" transform="translate(4314.75 11772.7)" fill="#B0E00C"/>
</g>
<g id="Vector">
<use xlink:href="#path35_fill" transform="translate(4378.56 11726.4)" fill="#B0E00C"/>
</g>
</g>
<g id="Vector">
<use xlink:href="#path36_fill" transform="translate(4299.04 11785.9)" fill="#39B54A"/>
</g>
<g id="Group">
<g id="Vector">
<use xlink:href="#path37_fill" transform="translate(4284 11826.8)" fill="#74A334"/>
</g>
<g id="Vector">
<use xlink:href="#path38_fill" transform="translate(4300.83 11785.9)" fill="#74A334"/>
</g>
<g id="Vector">
<use xlink:href="#path39_fill" transform="translate(4391.12 11746.9)" fill="#74A334"/>
</g>
<g id="Vector">
<use xlink:href="#path40_fill" transform="translate(4362.71 11842.3)" fill="#74A334"/>
</g>
</g>
<g id="Group">
<g id="Vector">
<use xlink:href="#path41_fill" transform="translate(4361.55 11813.1)" fill="#90C541"/>
</g>
<g id="Vector">
<use xlink:href="#path42_fill" transform="translate(4316.62 11706)" fill="#90C541"/>
</g>
<g id="Vector">
<use xlink:href="#path43_fill" transform="translate(4284.05 11756.8)" fill="#90C541"/>
</g>
<g id="Vector">
<use xlink:href="#path44_fill" transform="translate(4361.55 11748.1)" fill="#90C541"/>
</g>
</g>
</g>
<g id="Group">
<g id="Group">
<g id="Vector">
<use xlink:href="#path45_fill" transform="translate(5966.07 12018.1)" fill="#333333"/>
</g>
</g>
<g id="Group">
<g id="Vector">
<use xlink:href="#path46_fill" transform="translate(5983.62 11764.4)" fill="#161A37"/>
</g>
</g>
<g id="Group">
<g id="Vector">
<use xlink:href="#path47_fill" transform="translate(5979.75 11761.1)" fill="#42210B"/>
</g>
</g>
<g id="Vector" opacity="0.3">
<use xlink:href="#path48_fill" transform="translate(6010.54 11705.9)" fill="#FCEE21"/>
</g>
<g id="Vector" opacity="0.3">
<use xlink:href="#path49_fill" transform="translate(5925.46 11705.6)" fill="#FCEE21"/>
</g>
<g id="Group">
<g id="Vector">
<use xlink:href="#path50_fill" transform="translate(5979.16 11928.7)" fill="#060D2D"/>
</g>
</g>
<g id="Group">
<g id="Group">
<g id="Vector">
<use xlink:href="#path51_fill" transform="matrix(0.969871 -0.243717 0.243483 0.969929 5923.77 11707.9)" fill="#3D3D3D"/>
</g>
</g>
<g id="Group">
<g id="Vector">
<use xlink:href="#path52_fill" transform="matrix(0.243529 -0.969918 0.969882 0.243671 5950.58 11761.3)" fill="#3D3D3D"/>
</g>
</g>
<g id="Group">
<g id="Vector">
<use xlink:href="#path53_fill" transform="translate(5923.82 11686.9)" fill="#191D39"/>
</g>
</g>
<g id="Group">
<g id="Vector">
<use xlink:href="#path54_fill" transform="translate(5921.74 11704.3)" fill="#333333"/>
</g>
</g>
<g id="Group">
<g id="Vector">
<use xlink:href="#path55_fill" transform="translate(5935.42 11758.3)" fill="#333333"/>
</g>
</g>
</g>
<g id="Group">
<g id="Group">
<g id="Vector">
<use xlink:href="#path56_fill" transform="matrix(0.969833 -0.243867 0.243333 0.969967 6008.41 11707.9)" fill="#3D3D3D"/>
</g>
</g>
<g id="Group">
<g id="Vector">
<use xlink:href="#path57_fill" transform="matrix(0.243529 -0.969918 0.969882 0.243671 6035.11 11761.4)" fill="#3D3D3D"/>
</g>
</g>
<g id="Group">
<g id="Vector">
<use xlink:href="#path58_fill" transform="translate(6008.31 11686.9)" fill="#191D39"/>
</g>
</g>
<g id="Group">
<g id="Vector">
<use xlink:href="#path59_fill" transform="translate(6006.38 11704.3)" fill="#333333"/>
</g>
</g>
<g id="Group">
<g id="Vector">
<use xlink:href="#path60_fill" transform="translate(6019.91 11758.3)" fill="#333333"/>
</g>
</g>
</g>
<g id="Group">
<g id="Vector">
<use xlink:href="#path61_fill" transform="translate(5935.42 11760.5)" fill="#191D39"/>
</g>
</g>
</g>
</g>
</g>
<defs>
<path id="path0_fill" d="M 861.709 133.47L 739.436 133.47L 739.436 250.573C 733.933 247.895 726.941 246.407 719.355 246.407L 700.166 246.407C 681.87 246.407 666.846 255.781 666.846 267.387L 666.846 310.092L 599.76 310.092L 599.76 128.56C 599.76 116.954 584.885 107.58 566.44 107.58L 547.251 107.58C 528.955 107.58 513.931 116.954 513.931 128.56L 513.931 292.087L 506.643 292.087L 506.643 40.919L 490.429 40.919L 490.429 -4.54091e-06L 430.929 -4.54091e-06L 430.929 40.919L 414.715 40.919L 414.715 292.087L 410.699 292.087L 410.699 123.203L 288.426 123.203L 288.426 292.087L 207.358 292.087L 207.358 246.258L 121.826 246.258L 121.826 75.1422L 36.295 75.1422L 36.295 292.087L -7.09295e-08 292.087L -7.09295e-08 388.21L 36.1463 388.21L 121.826 388.21L 207.506 388.21L 288.575 388.21L 410.848 388.21L 414.864 388.21L 506.791 388.21L 514.08 388.21L 534.013 388.21L 574.473 388.21L 599.76 388.21L 666.846 388.21L 752.526 388.21L 916.3 388.21L 916.3 309.943L 861.709 309.943L 861.709 133.47Z"/>
<path id="path1_fill" d="M 397.307 46.6711C 241.651 70.9239 109.09 101.773 1.14601e-05 132.429L 1338.75 132.429L 1338.75 12.1352C 1123.39 -3.96864 782.596 -13.4757 397.307 46.6711Z"/>
<path id="path2_fill" d="M -7.09295e-08 12.0855L -7.09295e-08 133.355L 1169.92 133.355C 1074.57 102.554 958.694 71.4553 822.588 47.0526C 485.818 -13.5075 188.169 -3.98451 -7.09295e-08 12.0855Z"/>
<path id="path3_fill" d="M 71.0582 15.4703C 63.7284 23.8161 53.9553 25.2409 51.5121 25.4445C 51.9193 17.9129 52.3265 10.1778 52.7337 2.64621C 49.6796 2.64621 46.6255 2.64621 43.7751 2.64621C 43.7751 9.77067 43.7751 16.8951 43.7751 24.0196C 43.7751 33.3832 43.9787 42.5432 43.9787 51.7032C 37.2597 48.2427 26.0614 41.729 16.0848 29.312C 9.16223 20.5591 5.29373 12.2134 3.05408 6.10669C 2.03605 6.5138 1.01803 6.71736 2.8934e-14 7.12447C 1.62884 12.824 4.4793 19.5414 8.5514 26.6658C 19.3425 44.7823 34.2056 54.7565 42.7571 59.4383C 43.9787 75.1121 43.7751 88.3433 43.1643 98.5211C 42.1462 120.098 39.2958 128.647 34.6129 136.179C 31.7624 140.657 28.7083 143.71 26.4687 145.746C 41.1282 145.746 55.5842 145.746 70.2437 145.746C 67.5969 143.303 64.1356 139.232 61.2851 133.94C 57.6202 127.222 56.3986 121.523 55.5842 117.859C 51.3085 96.8926 51.3085 73.2801 51.3085 69.8197C 51.3085 59.8454 51.5121 47.0214 52.3265 31.7547C 55.177 31.3476 63.7284 29.9227 70.8546 22.7982C 80.0168 13.6382 80.424 2.23913 80.424 1.24241e-05C 79.6096 1.24241e-05 78.9987 0.203581 78.1843 0.203581C 77.7771 2.23914 76.5555 9.16004 71.0582 15.4703Z"/>
<path id="path4_fill" d="M 121.399 22.8862C 109.386 10.2658 91.2654 13.3191 90.0438 13.5227C 81.4924 2.32709 67.0364 -2.55825 53.5985 1.30931C 39.9569 5.38042 30.1839 17.5938 29.3695 32.0463C 24.8902 33.064 11.4522 36.9316 4.32606 49.1449C -5.03977 65.4294 0.864778 90.4668 21.4289 106.955C 23.2613 117.133 30.7947 125.478 40.7714 128.328C 51.1552 131.382 62.3535 127.921 69.2761 119.779C 90.2474 131.382 114.884 124.868 124.86 108.38C 132.19 96.3699 131.172 80.289 122.621 67.0579C 133.004 52.809 131.783 34.0818 121.399 22.8862Z"/>
<path id="path5_fill" d="M 138.53 25.966C 124.889 11.5136 104.121 15.1776 102.696 15.3812C 92.9228 2.55713 76.4308 -2.93892 61.1605 1.53931C 45.4829 6.01754 34.2846 20.2665 33.4702 36.551C 28.3801 37.7723 12.9061 42.2505 4.96549 56.0923C -5.82558 74.6159 1.09699 103.317 24.5116 122.044C 26.7512 133.647 35.3026 143.214 46.5009 146.471C 58.31 149.932 71.1371 146.064 79.0777 136.7C 103.103 149.932 131.201 142.4 142.602 123.673C 150.95 110.035 149.729 91.5111 140.159 76.4479C 151.765 60.1635 150.543 38.79 138.53 25.966Z"/>
<path id="path6_fill" d="M 114.963 15.1766C 101.525 4.18463 83.811 9.68064 82.5894 10.0877C 72.8163 0.113509 57.7496 -2.73629 44.9225 2.75972C 31.8917 8.45929 23.7475 22.0975 24.9692 36.3465C 20.6935 37.9749 7.86634 43.6745 2.36901 56.4985C -4.75717 73.8008 4.40505 98.0239 27.0052 111.459C 30.2629 121.433 38.8143 128.557 48.9946 130.186C 59.582 131.814 70.1695 126.929 76.074 117.972C 98.4706 126.725 122.089 116.955 129.826 99.4488C 135.527 86.6248 132.269 70.7474 122.292 58.7376C 130.437 43.2673 126.975 24.9473 114.963 15.1766Z"/>
<path id="path7_fill" d="M 89.1013 28.1225C 89.1013 27.9737 89.1013 27.6761 89.1013 27.5273C 89.1013 20.8315 83.5975 15.326 76.6063 15.326C 75.4163 15.326 74.375 15.4748 73.3338 15.7724C 73.0363 9.37417 67.5325 4.3151 60.9875 4.3151C 58.0125 4.3151 55.335 5.35668 53.1038 6.99344C 49.385 2.67834 43.8813 -2.27045e-06 37.6338 -2.27045e-06C 28.1138 -2.27045e-06 20.23 6.39824 17.9988 14.8796C 16.065 15.9212 14.28 17.4092 12.9413 19.1947C 5.50375 21.1291 1.13487e-06 27.0809 1.13487e-06 34.8184C 1.13487e-06 44.1925 7.73501 51.0372 17.255 51.0372L 89.6963 51.0372L 89.6963 52.2275C 95.6463 52.2275 101.745 46.7221 101.745 40.0262C 101.745 33.628 95.9438 28.1225 89.1013 28.1225Z"/>
<path id="path8_fill" d="M 89.1012 28.1225C 89.1012 27.9737 89.1012 27.6761 89.1012 27.5273C 89.1012 20.8315 83.5975 15.326 76.6063 15.326C 75.4163 15.326 74.375 15.4748 73.3338 15.7724C 73.0363 9.37417 67.5325 4.3151 60.9875 4.3151C 58.0125 4.3151 55.335 5.35668 53.1038 6.99344C 49.385 2.67834 43.8813 9.08181e-06 37.6338 9.08181e-06C 28.1138 9.08181e-06 20.23 6.39825 17.9987 14.8796C 16.065 15.9212 14.28 17.4092 12.9413 19.1947C 5.50379 21.1291 1.8158e-05 27.0809 1.8158e-05 34.8184C 1.8158e-05 44.1925 7.73498 51.0372 17.255 51.0372L 89.6963 51.0372L 89.6963 52.2275C 95.6463 52.2275 101.745 46.7221 101.745 40.0262C 101.745 33.628 95.9437 28.1225 89.1012 28.1225Z"/>
<path id="path9_fill" d="M 78.0938 24.5514C 78.0938 24.4026 78.0938 24.2538 78.0938 24.105C 78.0938 18.1532 73.185 13.3917 67.235 13.3917C 66.1938 13.3917 65.3013 13.5405 64.26 13.8381C 63.9625 8.18381 59.2025 3.71991 53.4013 3.71991C 50.7238 3.71991 48.3438 4.61268 46.5588 6.10064C 43.2863 2.38073 38.3775 4.54091e-06 33.0225 4.54091e-06C 24.6925 4.54091e-06 17.7013 5.50548 15.7675 13.0941C 13.9825 13.9869 12.495 15.326 11.305 16.814C 4.76 18.4508 -9.07898e-06 23.6586 -9.07898e-06 30.6521C -9.07898e-06 38.8359 6.84251 44.9365 15.1725 44.9365L 79.135 44.9365L 79.135 45.9781C 83.5975 45.9781 89.5475 41.2166 89.5475 35.2647C 89.3988 29.4617 84.0438 24.7002 78.0938 24.5514Z"/>
<path id="path10_fill" d="M 9.07375 1.81636e-05L 0 1.81636e-05L 0 52.2275L 9.07375 52.2275L 9.07375 1.81636e-05Z"/>
<path id="path11_fill" d="M 9.07375 1.81636e-05L -9.07898e-06 1.81636e-05L -9.07898e-06 52.2275L 9.07375 52.2275L 9.07375 1.81636e-05Z"/>
<path id="path12_fill" d="M 249.008 -9.08181e-06L 2.26975e-06 -9.08181e-06L 2.26975e-06 11.6061L 249.008 11.6061L 249.008 -9.08181e-06Z"/>
<path id="path13_fill" d="M 6.39625 0L -2.26975e-06 0L -2.26975e-06 72.0174L 6.39625 72.0174L 6.39625 0Z"/>
<path id="path14_fill" d="M 6.39625 0L -9.07898e-06 0L -9.07898e-06 72.0174L 6.39625 72.0174L 6.39625 0Z"/>
<path id="path15_fill" d="M 236.066 0L 0 0L 0 12.9453L 236.066 12.9453L 236.066 0Z"/>
<path id="path16_fill" d="M 236.066 1.81636e-05L 0 1.81636e-05L 0 12.9453L 236.066 12.9453L 236.066 1.81636e-05Z"/>
<path id="path17_fill" d="M 236.066 -1.81636e-05L 0 -1.81636e-05L 0 12.9453L 236.066 12.9453L 236.066 -1.81636e-05Z"/>
<path id="path18_fill" d="M 2.52875 5.05909C 3.92534 5.05909 5.0575 3.92656 5.0575 2.52953C 5.0575 1.1325 3.92534 1.81636e-05 2.52875 1.81636e-05C 1.13216 1.81636e-05 0 1.1325 0 2.52953C 0 3.92656 1.13216 5.05909 2.52875 5.05909Z"/>
<path id="path19_fill" d="M 2.52875 5.0591C 3.92534 5.0591 5.0575 3.92656 5.0575 2.52954C 5.0575 1.13251 3.92534 -1.81636e-05 2.52875 -1.81636e-05C 1.13216 -1.81636e-05 0 1.13251 0 2.52954C 0 3.92656 1.13216 5.0591 2.52875 5.0591Z"/>
<path id="path20_fill" d="M 2.52875 5.05907C 3.92534 5.05907 5.0575 3.92658 5.0575 2.52956C 5.0575 1.13253 3.92534 0 2.52875 0C 1.13216 0 0 1.13253 0 2.52956C 0 3.92658 1.13216 5.05907 2.52875 5.05907Z"/>
<path id="path21_fill" d="M 2.52875 5.05908C 3.92534 5.05908 5.0575 3.92655 5.0575 2.52952C 5.0575 1.13249 3.92534 9.08181e-06 2.52875 9.08181e-06C 1.13216 9.08181e-06 0 1.13249 0 2.52952C 0 3.92655 1.13216 5.05908 2.52875 5.05908Z"/>
<path id="path22_fill" d="M 2.52876 5.05908C 3.92535 5.05908 5.05751 3.92655 5.05751 2.52952C 5.05751 1.13249 3.92535 9.08181e-06 2.52876 9.08181e-06C 1.13217 9.08181e-06 -9.07898e-06 1.13249 -9.07898e-06 2.52952C -9.07898e-06 3.92655 1.13217 5.05908 2.52876 5.05908Z"/>
<path id="path23_fill" d="M 2.52876 5.05907C 3.92535 5.05907 5.05751 3.92658 5.05751 2.52956C 5.05751 1.13253 3.92535 0 2.52876 0C 1.13217 0 -9.07898e-06 1.13253 -9.07898e-06 2.52956C -9.07898e-06 3.92658 1.13217 5.05907 2.52876 5.05907Z"/>
<path id="path24_fill" d="M 2.52876 5.05909C 3.92535 5.05909 5.05751 3.92656 5.05751 2.52953C 5.05751 1.1325 3.92535 1.81636e-05 2.52876 1.81636e-05C 1.13217 1.81636e-05 -9.07898e-06 1.1325 -9.07898e-06 2.52953C -9.07898e-06 3.92656 1.13217 5.05909 2.52876 5.05909Z"/>
<path id="path25_fill" d="M 78.9863 24.7002C 78.9863 24.5514 78.9863 24.4026 78.9863 24.2538C 78.9863 18.302 74.0775 13.5405 67.9788 13.5405C 66.9375 13.5405 66.045 13.6893 65.0038 13.9869C 64.7063 8.33261 59.9462 3.7199 53.9962 3.7199C 51.3187 3.7199 48.9388 4.61269 47.0051 6.10066C 43.7326 2.38075 38.8238 -4.54091e-06 33.32 -4.54091e-06C 24.99 -4.54091e-06 17.85 5.65427 15.9163 13.2429C 14.1313 14.2845 12.6438 15.4748 11.4538 17.1116C 4.90875 18.7483 -1.8158e-05 23.9562 -1.8158e-05 30.9496C -1.8158e-05 39.2822 6.84247 45.2341 15.3212 45.2341L 79.135 45.2341L 79.135 46.4245C 85.085 46.4245 89.9938 41.5142 89.9938 35.7111C 89.9938 29.6105 85.0851 24.849 78.9863 24.7002Z"/>
<path id="path26_fill" d="M 65.0038 20.6827C 65.0038 20.5339 65.0038 20.3851 65.0038 20.2363C 65.0038 15.326 60.9875 11.3085 55.93 11.3085C 55.0375 11.3085 54.2937 11.4573 53.55 11.6061C 53.2525 6.84463 49.385 3.12472 44.4763 3.12472C 42.245 3.12472 40.3113 3.8687 38.8238 5.05907C 36.1463 1.93435 32.13 1.13523e-06 27.5187 1.13523e-06C 20.6762 1.13523e-06 14.7262 4.61269 13.09 10.8621C 11.6025 11.6061 10.4125 12.7965 9.37121 13.9869C 4.01621 15.326 -1.8158e-05 20.0875 -1.8158e-05 25.8906C -1.8158e-05 32.7352 5.65248 38.0919 12.6437 38.0919L 65.7475 38.0919L 65.7475 38.2407C 70.21 38.2407 74.375 34.2232 74.375 29.3129C 74.375 24.7002 70.0613 20.8315 65.0038 20.6827Z"/>
<path id="path27_fill" d="M 15.4975 77.2601C 0.586819 65.4499 -3.67341 47.2623 3.19025 35.4522C 8.16048 26.7127 18.101 23.8783 21.4145 23.1697C 21.8878 12.7768 28.9882 3.8011 38.9287 0.966673C 48.6325 -1.86776 59.283 1.67524 65.4366 9.70612C 66.3833 9.46992 79.6372 7.10794 88.1576 16.3198C 95.7313 24.3507 96.4414 38.0504 89.1044 48.4433C 95.258 58.1276 95.9679 69.7016 90.761 78.4411C 83.424 90.2512 65.6732 95.2114 50.2892 86.7082C 45.0823 92.6132 37.0352 94.9753 29.6982 92.8494C 22.1245 90.7236 16.6809 84.5823 15.4975 77.2601Z"/>
<path id="path28_fill" d="M 17.8009 88.3045C 0.760136 74.6048 -4.2101 54.0552 3.60027 40.5917C 9.28053 30.435 20.6411 27.3643 24.1913 26.4195C 24.9013 14.6094 32.9483 4.45264 44.3089 1.14581C 55.4327 -2.16103 67.5033 1.85444 74.367 11.0663C 75.3137 10.8301 90.461 8.23187 100.402 18.6248C 109.159 27.8367 109.869 43.4261 101.585 55.2362C 108.449 66.1015 109.395 79.565 103.242 89.4855C 94.9578 103.185 74.6035 108.618 57.0894 98.9337C 51.1724 105.784 41.942 108.382 33.4216 106.02C 25.6112 103.422 19.4577 96.5716 17.8009 88.3045Z"/>
<path id="path29_fill" d="M 16.2914 81.3665C 0.670667 68.8478 -3.82621 49.7154 3.27412 37.4328C 8.48103 28.2209 18.8948 25.1503 22.2083 24.4417C 22.9184 13.5764 30.2554 4.1283 40.6692 1.05766C 50.8463 -2.01297 61.9702 1.76626 68.3605 10.2695C 69.3072 10.0333 83.2711 7.67132 92.2649 17.3556C 100.312 25.8589 101.022 40.0311 93.4483 50.8964C 99.8386 61.0531 100.549 73.3356 95.105 82.3113C 87.5313 94.8301 68.5971 99.7903 52.7397 91.0508C 47.2961 97.1921 38.7757 99.7903 30.9653 97.6645C 23.3916 95.5387 17.7115 89.1612 16.2914 81.3665Z"/>
<path id="path30_fill" d="M 77.1569 51.0198C 73.1334 51.256 69.5833 52.437 66.9798 53.3818C 76.2102 35.4304 87.0974 22.4393 94.9077 14.4084C 90.1742 18.66 84.2572 24.0927 78.3403 31.1788C 78.577 28.5805 79.287 25.5099 80.7071 22.203C 82.8372 17.0066 85.914 13.2274 87.8074 11.1015C 85.914 12.755 83.3105 15.5894 80.9437 19.3686C 77.8669 24.5651 77.157 29.7615 76.9203 32.5959C 74.7902 35.1941 72.66 38.0286 70.7666 40.863C 70.2932 38.0286 69.3465 34.2494 67.2164 30.4701C 65.0863 26.4547 62.483 23.8564 60.3529 22.203C 62.483 24.3288 65.3231 27.8719 67.4532 33.3046C 68.8733 36.8476 69.5833 39.9182 69.82 42.2802C 67.4532 45.5871 65.0864 49.3663 62.9563 53.3818C 59.4061 59.523 56.5659 65.6643 54.1992 71.5693C 53.7258 69.2073 52.5424 66.3729 51.1224 63.5385C 48.9923 59.523 46.3888 56.9248 44.2587 55.2714C 46.3888 57.3972 49.2289 60.9403 51.359 66.3729C 52.5424 68.9712 53.0158 71.5694 53.4892 73.6952C 51.3591 79.1279 49.7024 84.5605 48.519 89.5207C 46.8622 81.2537 44.2588 71.5694 40.2353 61.4127C 40.4719 59.0506 41.182 55.98 42.602 52.9094C 44.7321 47.7129 47.8089 43.9337 49.7024 41.8079C 47.8089 43.4613 45.2054 46.2957 42.8387 50.075C 40.9452 53.3818 39.9985 56.6886 39.2885 59.5231C 37.1584 54.799 35.0283 49.8387 32.1882 44.8785C 30.5314 41.8078 28.638 38.7372 26.7446 35.9028C 26.9813 33.3046 27.4546 29.5253 29.1114 25.5098C 31.2415 20.3134 34.3183 16.5342 36.2117 14.4084C 34.3183 16.0618 31.7148 18.8962 29.348 22.6755C 26.7445 27.1633 25.7979 31.4149 25.5612 34.2494C 22.4844 29.7615 19.4076 25.5099 16.0941 21.7307C 16.0941 21.7307 16.0941 21.7307 16.3307 21.7307C 16.0941 18.8962 15.384 13.6997 12.3072 8.26709C 10.1771 4.25165 7.57371 1.65342 5.44362 -2.68531e-13C 7.57371 2.12582 10.4138 5.66889 12.5439 11.1015C 13.964 14.6446 14.674 18.1876 14.9107 20.7858C 9.46714 14.6445 4.26026 9.68429 5.77826e-05 5.66885C 7.81042 13.6997 18.9342 26.9271 28.1646 45.1147C 26.9812 44.1699 25.5611 43.4613 24.1411 42.5165C 20.1175 40.3906 16.3307 39.6821 13.964 39.4459C 16.8041 40.1545 21.3011 41.3354 26.0346 44.6423C 27.218 45.5871 28.4013 46.2957 29.348 47.2405C 31.0047 50.5473 32.4249 53.8541 33.8449 57.3972C 36.4484 64.0109 38.5785 70.3883 40.2353 76.2934C 38.5785 74.64 36.2117 72.9865 33.3716 71.5693C 29.348 69.4435 25.5612 68.7349 23.1944 68.4987C 26.0346 69.2073 30.5314 70.3884 35.2649 73.6952C 37.395 75.1124 39.2884 76.7658 40.7085 78.4193C 43.312 88.576 44.4954 98.0241 45.2054 105.583C 44.7321 109.834 44.2587 113.377 44.022 116.684C 45.6788 117.393 47.5722 118.101 49.229 118.81C 49.4657 115.739 49.7023 111.96 50.1756 108.181C 50.4123 108.181 50.649 107.945 50.649 107.945C 50.649 107.236 50.4124 106.291 50.4124 105.346C 51.1224 99.4413 52.5425 92.8276 54.4359 85.7415C 56.566 84.7967 59.1694 83.8519 62.2463 83.1433C 67.9265 81.9623 72.4233 82.6709 75.5002 83.1433C 73.1334 82.4347 69.3465 81.7261 64.8497 81.9623C 60.8261 82.1985 57.5126 83.1433 54.9092 84.3243C 56.5659 78.6555 58.4594 72.5142 61.0629 66.3729C 62.7196 62.5937 64.3763 58.8144 66.033 55.2714C 68.1631 54.0904 71.0034 53.1456 74.5535 52.437C 80.2338 51.256 84.7306 51.9646 87.8074 52.437C 85.4406 51.4922 81.6538 50.7836 77.1569 51.0198Z"/>
<path id="path31_fill" d="M 2.13013 4.25162C 3.30655 4.25162 4.26014 3.29987 4.26014 2.12581C 4.26014 0.951749 3.30655 0 2.13013 0C 0.953707 0 -2.88913e-05 0.951749 -2.88913e-05 2.12581C -2.88913e-05 3.29987 0.953707 4.25162 2.13013 4.25162Z"/>
<path id="path32_fill" d="M 30.6871 239.711C 32.4721 238.074 35.1496 235.396 37.5296 231.676C 41.5459 225.427 43.9259 218.136 44.8184 199.685C 45.2646 191.055 45.4134 179.746 44.3721 166.503C 37.0834 162.486 24.4396 154.004 15.2171 138.678C 11.6471 132.726 9.41589 126.923 7.92839 122.162C 8.82089 121.864 9.71337 121.567 10.6059 121.418C 12.5396 126.626 15.8121 133.917 21.7621 141.208C 30.0921 151.624 39.6121 157.278 45.4134 160.254C 45.2646 152.516 45.2647 144.63 45.2647 136.744C 45.2647 132.131 45.2647 127.667 45.2647 127.37C 45.2647 124.096 45.2647 121.269 45.2647 118.591C 45.2647 113.383 45.4134 112.788 45.4134 109.514C 45.4134 107.431 45.4134 104.157 45.1159 100.289C 35.1496 97.0152 27.5634 92.849 22.5059 89.5754C 16.4071 85.5579 8.96965 80.4988 3.61464 71.2735C 0.937144 66.6608 -0.252893 62.7921 0.0446069 62.6433C 0.490857 62.3457 5.39964 75.7374 10.3084 75.291C 15.2171 74.8446 17.8946 59.9649 18.3409 60.1137C 18.6384 60.1137 17.8946 63.9825 16.5559 69.4879C 15.0684 75.4398 14.0271 77.9693 15.3659 80.4988C 16.2584 82.1356 17.8946 83.0284 18.7871 83.4748C 27.4146 87.9387 43.4796 94.6345 44.9671 95.2297C 45.4134 91.8074 45.8596 86.7483 46.1571 80.4988C 46.3059 76.9277 46.3059 74.1006 46.3059 72.6127C 46.3059 64.4289 46.4546 56.0962 46.6034 47.9124C 46.7521 26.0394 46.9009 -9.08181e-06 47.4959 -9.08181e-06C 47.9422 -9.08181e-06 48.5371 8.92779 50.0246 47.9124C 55.5284 46.7221 62.3709 44.6389 69.5109 41.0678C 85.1296 33.3304 94.6497 22.3195 99.8559 15.326C 100.302 14.7308 95.9884 22.617 90.9309 28.2713C 88.4021 31.0984 85.8734 33.3304 83.7909 35.1159C 89.2947 39.431 94.7984 43.7462 100.302 48.0613C 94.0547 44.3413 87.9559 40.6214 81.7084 36.9015C 79.7747 37.9431 76.9484 39.5798 73.5272 41.5142C 68.0234 44.4901 65.3459 46.1269 62.8171 47.1685C 59.9909 48.5076 55.9746 50.1444 50.6196 51.4836C 50.7684 76.4813 51.2146 101.777 52.1071 127.37C 52.2559 130.941 52.4046 134.363 52.5534 137.934C 54.6359 137.785 62.8172 136.595 69.0647 129.453C 73.6759 124.096 74.8659 118.293 75.1634 115.912C 75.7584 115.912 76.3534 115.764 76.9484 115.764C 76.9484 117.698 76.6509 127.519 68.9159 135.107C 62.8172 141.208 55.5284 142.398 53.1484 142.845C 52.5534 155.79 52.4046 166.801 52.4046 175.133C 52.4046 178.109 52.5534 198.048 55.9746 215.904C 56.5696 219.028 57.7597 223.939 60.8834 229.593C 63.4122 234.206 66.3871 237.628 68.6184 239.711C 55.3796 239.711 43.0334 239.711 30.6871 239.711Z"/>
<path id="path33_fill" d="M 9.35604 46.5281C 0.431038 39.3859 -2.24646 28.375 1.91854 21.3815C 4.89354 16.0249 10.8435 14.3881 12.7773 13.9417C 13.0748 7.69226 17.3885 2.33559 23.3385 0.55003C 29.1398 -1.08673 35.5361 0.996429 39.2548 5.90671C 39.8498 5.75791 47.7335 4.41874 52.9398 9.92421C 57.551 14.8345 57.9973 23.0183 53.5348 29.2677C 57.2535 35.0708 57.6998 42.0642 54.4273 47.2721C 50.1135 54.4143 39.2548 57.2415 30.181 52.1824C 27.0573 55.7535 22.1486 57.2415 17.6861 55.9023C 13.3723 54.5631 10.0998 50.992 9.35604 46.5281Z"/>
<path id="path34_fill" d="M 4.82244 23.9734C 0.211192 20.2535 -1.12757 14.748 0.954933 11.0281C 2.59118 8.34975 5.56621 7.45696 6.60746 7.15937C 6.75621 3.88585 8.98743 1.20755 12.1112 0.314774C 15.0862 -0.578004 18.3587 0.463552 20.2924 2.99309C 20.5899 2.99309 24.6062 2.2491 27.2837 5.07623C 29.6637 7.60577 29.8124 11.7721 27.5812 15.0456C 29.5149 18.0215 29.6637 21.5926 28.0275 24.271C 25.7962 27.9909 20.2925 29.4788 15.5325 26.8005C 13.8962 28.5861 11.5162 29.33 9.13618 28.7348C 6.90493 28.1397 5.26869 26.2053 4.82244 23.9734Z"/>
<path id="path35_fill" d="M 6.01092 29.9587C 0.209673 25.3461 -1.4266 18.2038 1.25091 13.74C 3.18466 10.3176 7.05217 9.27604 8.24218 8.97845C 8.39092 4.96095 11.2171 1.53865 15.0846 0.348276C 18.8034 -0.693298 22.9684 0.645851 25.3484 3.77058C 25.6459 3.77058 30.8522 2.729 34.1247 6.44891C 37.0997 9.57364 37.3972 14.7815 34.5709 18.9478C 36.9509 22.6677 37.2484 27.2804 35.1659 30.5539C 32.3396 35.1666 25.3484 37.101 19.5471 33.8275C 17.6134 36.2082 14.3409 37.101 11.5146 36.2082C 8.6884 35.1666 6.45717 32.7859 6.01092 29.9587Z"/>
<path id="path36_fill" d="M 5.20642 25.8861C 0.148921 21.8686 -1.18986 15.7679 1.04139 11.8992C 2.67764 8.92329 6.0989 8.03053 7.14015 7.73294C 7.2889 4.31062 9.6689 1.1859 13.0902 0.293117C 16.3627 -0.599662 19.9326 0.590709 21.8664 3.26904C 22.1639 3.26904 26.6264 2.37627 29.4527 5.50099C 31.9814 8.17933 32.2789 12.792 29.7502 16.2143C 31.8327 19.4878 31.9814 23.3565 30.1964 26.1837C 27.8164 30.2012 21.7176 31.8379 16.6601 29.0108C 15.0239 30.9452 12.1977 31.8379 9.66892 31.0939C 7.43767 30.4988 5.65267 28.4156 5.20642 25.8861Z"/>
<path id="path37_fill" d="M 7.60294 37.8069C 0.314185 32.0038 -1.76832 23.076 1.50418 17.4218C 4.03293 13.1067 8.79292 11.7675 10.2804 11.3211C 10.5779 6.26205 13.9992 1.94697 18.9079 0.459006C 23.6679 -0.880161 28.7254 0.75659 31.7004 4.77409C 32.1467 4.6253 38.5429 3.58369 42.8567 8.04759C 46.5754 12.0651 46.8729 18.6121 43.3029 23.6712C 46.2779 28.2839 46.5754 34.087 44.0467 38.2533C 40.4767 44.0563 31.8492 46.4371 24.4117 42.2708C 21.8829 45.2467 18.0154 46.2883 14.2967 45.2467C 10.8754 44.3539 8.19794 41.378 7.60294 37.8069Z"/>
<path id="path38_fill" d="M 5.20639 25.8861C 0.148894 21.8686 -1.18984 15.7679 1.04141 11.8992C 2.67766 8.92329 6.09892 8.03053 7.14017 7.73294C 7.28892 4.31062 9.66892 1.1859 13.0902 0.293117C 16.3627 -0.599662 19.9327 0.590709 21.8664 3.26904C 22.1639 3.26904 26.6264 2.37627 29.4527 5.50099C 31.9814 8.17933 32.2789 12.792 29.7502 16.2143C 31.8327 19.4878 31.9814 23.3565 30.1964 26.1837C 27.8164 30.2012 21.7177 31.8379 16.6602 29.0108C 15.0239 30.9452 12.1976 31.8379 9.6689 31.0939C 7.43764 30.4988 5.65265 28.4156 5.20639 25.8861Z"/>
<path id="path39_fill" d="M 5.20641 25.8861C 0.148912 21.8686 -1.18987 15.7679 1.04138 11.8992C 2.67764 8.92329 6.0989 8.03051 7.14015 7.73292C 7.2889 4.3106 9.6689 1.18588 13.0901 0.293098C 16.3626 -0.59968 19.9326 0.590691 21.8664 3.26903C 22.1639 3.26903 26.6264 2.37625 29.4527 5.50097C 31.9814 8.17931 32.2789 12.792 29.7502 16.2143C 31.8327 19.4879 31.9814 23.3565 30.1964 26.1837C 27.8164 30.2012 21.7176 31.838 16.6601 29.0108C 15.0239 30.9452 12.1977 31.838 9.66891 31.094C 7.43766 30.35 5.65266 28.4156 5.20641 25.8861Z"/>
<path id="path40_fill" d="M 5.2064 25.8861C 0.148903 21.8686 -1.18983 15.7679 1.04142 11.8992C 2.67767 8.92328 6.09889 8.03052 7.14014 7.73293C 7.28889 4.31061 9.66889 1.18589 13.0901 0.293108C 16.3626 -0.599671 19.9327 0.590701 21.8664 3.26904C 22.1639 3.26904 26.6264 2.37626 29.4526 5.50098C 31.9814 8.17932 32.2789 12.792 29.7502 16.2143C 31.8327 19.4879 31.9814 23.3565 30.1964 26.1837C 27.8164 30.2012 21.7177 31.8379 16.6602 29.0108C 15.0239 30.9451 12.1977 31.838 9.66891 31.094C 7.5864 30.35 5.8014 28.2668 5.2064 25.8861Z"/>
<path id="path41_fill" d="M 9.19048 38.3124C 1.45548 33.6997 -1.66828 25.3671 0.860474 19.4153C 2.64547 14.9514 7.10799 13.017 8.59549 12.4218C 8.14924 7.51154 10.9755 2.89883 15.438 0.964477C 19.7518 -0.969876 24.958 0.0717165 28.3792 3.49403C 28.8255 3.34524 34.7755 1.4109 39.3868 5.27961C 43.403 8.55313 44.593 14.9514 41.9155 20.1592C 45.3367 24.3255 46.378 29.6822 44.4443 34.1461C 41.7668 40.2467 33.7342 43.5203 26.148 40.5443C 24.0655 43.6691 20.4955 45.3058 16.9255 44.7107C 13.2068 44.2643 10.2317 41.7347 9.19048 38.3124Z"/>
<path id="path42_fill" d="M 9.19051 38.3124C 1.45551 33.6997 -1.66825 25.3671 0.860501 19.4152C 2.6455 14.9514 7.10797 13.017 8.59548 12.4218C 8.14922 7.51154 10.9755 2.89885 15.438 0.964499C 19.7517 -0.969854 24.958 0.0717165 28.3793 3.49403C 28.8255 3.34524 34.7755 1.41088 39.3867 5.27959C 43.403 8.55311 44.593 14.9514 41.9155 20.1592C 45.3368 24.3255 46.378 29.6822 44.4442 34.1461C 41.7667 40.2467 33.7343 43.5203 26.148 40.5443C 24.0655 43.6691 20.4955 45.3058 16.9255 44.7106C 13.2067 44.2642 10.2318 41.7347 9.19051 38.3124Z"/>
<path id="path43_fill" d="M 9.19048 38.3124C 1.45547 33.6997 -1.66824 25.3671 0.86051 19.4152C 2.64551 14.9513 7.10798 13.017 8.59548 12.4218C 8.14923 7.51155 10.9755 2.89885 15.438 0.964495C 19.7517 -0.969858 24.958 0.0717119 28.3793 3.49403C 28.8255 3.34523 34.7755 1.41087 39.3868 5.27958C 43.403 8.5531 44.593 14.9513 41.9155 20.1592C 45.3367 24.3255 46.378 29.6822 44.4442 34.1461C 41.7667 40.2467 33.7343 43.5203 26.148 40.5443C 24.0655 43.6691 20.4955 45.3058 16.9255 44.7106C 13.2067 44.1154 10.2317 41.7347 9.19048 38.3124Z"/>
<path id="path44_fill" d="M 9.19048 38.3124C 1.45548 33.6997 -1.66828 25.3671 0.860474 19.4152C 2.64547 14.9514 7.10799 13.017 8.59549 12.4218C 8.14924 7.51154 10.9755 2.89886 15.438 0.964504C 19.7518 -0.969849 24.958 0.0717211 28.3792 3.49404C 28.8255 3.34524 34.7755 1.41088 39.3868 5.27959C 43.403 8.55311 44.593 14.9514 41.9155 20.1592C 45.3367 24.3255 46.378 29.6822 44.4443 34.1461C 41.7668 40.2467 33.7342 43.5203 26.148 40.5444C 24.0655 43.6691 20.4955 45.3058 16.9255 44.7106C 13.2068 44.2642 10.2317 41.7347 9.19048 38.3124Z"/>
<path id="path45_fill" d="M 43.2863 -9.08181e-06L -9.07898e-06 -9.08181e-06L -9.07898e-06 10.5645L 43.2863 10.5645L 43.2863 -9.08181e-06Z"/>
<path id="path46_fill" d="M 8.32998 -9.08181e-06L 1.8158e-05 -9.08181e-06L 1.8158e-05 253.698L 8.32998 253.698L 8.32998 -9.08181e-06Z"/>
<path id="path47_fill" d="M 15.9162 1.81636e-05L 9.07898e-06 1.81636e-05L 9.07898e-06 3.12471L 15.9162 3.12471L 15.9162 1.81636e-05Z"/>
<path id="path48_fill" d="M -1.8158e-05 9.08181e-06C 12.9412 0.148805 25.8825 0.446389 38.8237 0.595186C 34.6587 18.7483 30.6425 36.9015 26.4775 55.0547C 21.7175 54.6083 16.8087 54.1619 12.0487 53.7155C 8.03249 35.86 4.01623 18.0044 -1.8158e-05 9.08181e-06Z"/>
<path id="path49_fill" d="M 9.07898e-06 -9.08181e-06C 12.9413 0.148787 25.8825 0.446394 38.8238 0.59519C 35.105 18.4508 31.3863 36.4551 27.6675 54.3107C 22.4613 54.1619 17.255 54.0131 12.0487 53.8643C 7.88375 35.8599 3.86751 18.0044 9.07898e-06 -9.08181e-06Z"/>
<path id="path50_fill" d="M 17.1063 -1.81636e-05L 1.8158e-05 -1.81636e-05L 1.8158e-05 89.2778L 17.1063 89.2778L 17.1063 -1.81636e-05Z"/>
<path id="path51_fill" d="M 3.12382 9.08164e-06L 0 9.08164e-06L 0 55.9464L 3.12382 55.9464L 3.12382 9.08164e-06Z"/>
<path id="path52_fill" d="M 55.9464 4.53957e-06L 4.54082e-06 4.53957e-06L 4.54082e-06 3.1238L 55.9464 3.1238L 55.9464 4.53957e-06Z"/>
<path id="path53_fill" d="M 21.7175 4.54091e-06C 9.66876 4.54091e-06 -4.22773e-14 9.82055 -4.22773e-14 21.7243L 43.5837 21.7243C 43.435 9.82055 33.6175 4.54091e-06 21.7175 4.54091e-06Z"/>
<path id="path54_fill" d="M 47.3025 0L 9.07898e-06 0L 9.07898e-06 4.46389L 47.3025 4.46389L 47.3025 0Z"/>
<path id="path55_fill" d="M 20.23 -1.81636e-05L 4.53949e-06 -1.81636e-05L 4.53949e-06 4.46387L 20.23 4.46387L 20.23 -1.81636e-05Z"/>
<path id="path56_fill" d="M 3.12381 9.08164e-06L -9.07915e-06 9.08164e-06L -9.07915e-06 55.9464L 3.12381 55.9464L 3.12381 9.08164e-06Z"/>
<path id="path57_fill" d="M 55.9464 4.53957e-06L 9.08164e-06 4.53957e-06L 9.08164e-06 3.1238L 55.9464 3.1238L 55.9464 4.53957e-06Z"/>
<path id="path58_fill" d="M 21.7175 4.54091e-06C 9.66874 4.54091e-06 -1.8158e-05 9.82055 -1.8158e-05 21.7243L 43.5838 21.7243C 43.435 9.82055 33.7662 4.54091e-06 21.7175 4.54091e-06Z"/>
<path id="path59_fill" d="M 47.3025 0L 0 0L 0 4.46389L 47.3025 4.46389L 47.3025 0Z"/>
<path id="path60_fill" d="M 20.23 -1.81636e-05L 9.07898e-06 -1.81636e-05L 9.07898e-06 4.46387L 20.23 4.46387L 20.23 -1.81636e-05Z"/>
<path id="path61_fill" d="M 104.72 -1.81636e-05L 4.53949e-06 -1.81636e-05L 4.53949e-06 6.69582L 104.72 6.69582L 104.72 -1.81636e-05Z"/>
</defs>
</svg>
