<svg width="384" height="750" viewBox="0 0 384 750" version="1.1" xmlns="http://www.w3.org/2000/svg" xmlns:xlink="http://www.w3.org/1999/xlink">
<title>Nerd 1</title>
<desc>Created using Figma</desc>
<g id="Canvas" transform="translate(-4605 -11413)">
<g id="Nerd 1">
<g id="Character 1">
<g id="Body 1">
<g id="Group">
<g id="Vector">
<use xlink:href="#path0_fill" transform="translate(4667.73 11936.7)" fill="#1864AC"/>
</g>
</g>
<g id="Vector">
<use xlink:href="#path1_fill" transform="translate(4820.01 11682.3)" fill="#FCCFB2"/>
</g>
<g id="Vector">
<use xlink:href="#path2_fill" transform="translate(4605.24 11748.1)" fill="#FCCFB2"/>
</g>
<g id="Vector">
<use xlink:href="#path3_fill" transform="translate(4614.35 11658.7)" fill="#FFFFFF"/>
</g>
<g id="Vector">
<use xlink:href="#path4_fill" transform="translate(4708.82 11630.7)" fill="#FCCFB2"/>
</g>
</g>
<g id="Group">
<g id="Front 1">
<g id="Head 1">
<g id="teen 1">
<g id="Group">
<g id="Vector">
<use xlink:href="#path5_fill" transform="matrix(0.0425816 -0.9991 0.9991 0.0425934 4800.05 11578.9)" fill="#FCCFB2"/>
</g>
<g id="Vector">
<use xlink:href="#path6_fill" transform="translate(4651.46 11439)" fill="#FCCFB2"/>
</g>
<g id="Vector">
<use xlink:href="#path7_fill" transform="matrix(0.0425366 -0.9991 0.9991 0.0425484 4626.28 11574.9)" fill="#FCCFB2"/>
</g>
<g id="Vector">
<use xlink:href="#path8_fill" transform="translate(4646.84 11463.6)" fill="#BA6338"/>
</g>
<g id="Vector">
<use xlink:href="#path9_fill" transform="translate(4802.74 11469.5)" fill="#BA6338"/>
</g>
<g id="Vector">
<use xlink:href="#path10_fill" transform="translate(4663.36 11413)" fill="#A55532"/>
</g>
</g>
</g>
<g id="Group">
<g id="Vector">
<use xlink:href="#path11_fill" transform="matrix(0.988097 -0.153921 0.153879 0.988103 4750.45 11571.2)" fill="#9B4B10"/>
</g>
<g id="Vector">
<use xlink:href="#path12_fill" transform="translate(4740.61 11565.5)" fill="#9B4B10"/>
</g>
<g id="Vector">
<use xlink:href="#path13_fill" transform="matrix(0.987997 -0.154321 0.154279 0.988003 4732.53 11573.9)" fill="#9B4B10"/>
</g>
<g id="Vector">
<use xlink:href="#path14_fill" transform="matrix(0.988097 -0.153921 0.153879 0.988103 4727.51 11565.4)" fill="#9B4B10"/>
</g>
<g id="Vector">
<use xlink:href="#path15_fill" transform="matrix(0.988097 -0.154121 0.154079 0.988103 4718.73 11572.1)" fill="#9B4B10"/>
</g>
<g id="Vector">
<use xlink:href="#path16_fill" transform="matrix(0.988097 -0.153621 0.153579 0.988103 4709.05 11577.7)" fill="#9B4B10"/>
</g>
<g id="Vector">
<use xlink:href="#path17_fill" transform="matrix(0.987997 -0.154221 0.154179 0.988003 4761.66 11577.3)" fill="#9B4B10"/>
</g>
<g id="Vector">
<use xlink:href="#path18_fill" transform="matrix(0.988097 -0.153921 0.153879 0.988103 4760.19 11567.7)" fill="#9B4B10"/>
</g>
<g id="Vector">
<use xlink:href="#path19_fill" transform="matrix(0.987997 -0.154521 0.154479 0.988003 4772.97 11575.5)" fill="#9B4B10"/>
</g>
</g>
</g>
<g id="Group">
<g id="Vector">
<use xlink:href="#path20_fill" transform="translate(4660.59 11528.5)"/>
</g>
</g>
</g>
<g id="Group">
<g id="Vector">
<use xlink:href="#path21_fill" transform="translate(4707.69 11592.8)" fill="#FFFFFF"/>
</g>
<g id="Vector">
<use xlink:href="#path22_fill" transform="matrix(0.964091 -0.265734 0.265666 0.964109 4772.78 11554.6)"/>
</g>
<g id="Vector">
<use xlink:href="#path23_fill" transform="matrix(0.963991 -0.265734 0.265666 0.964009 4691.73 11554.6)"/>
</g>
</g>
</g>
</g>
<g id="Group">
<g id="Vector">
<use xlink:href="#path24_fill" transform="translate(4916.13 11682.4)" fill="#FFFFFF"/>
</g>
<g id="Vector">
<use xlink:href="#path25_fill" transform="translate(4906.32 11676)" fill="#FFFFFF"/>
</g>
<g id="Vector">
<use xlink:href="#path26_fill" transform="translate(4968.39 11690.5)" fill="#FFFFFF"/>
</g>
<g id="Vector">
<use xlink:href="#path27_fill" transform="translate(4975.23 11686.3)" fill="#FFFFFF"/>
</g>
</g>
</g>
</g>
<defs>
<path id="path0_fill" d="M 0 0L 0 61.2806C 2.1312 70.4461 9.59044 80.5707 16.4103 86.006L 17.2628 331.448L 53.5998 331.448L 53.067 88.8836L 108.905 89.2033L 109.118 331.448L 142.791 331.448L 142.791 0L 0 0Z"/>
<path id="path1_fill" d="M 31.3287 62.2978C 31.3287 62.511 33.5665 85.5312 39.9601 108.018C 47.2062 134.023 55.8375 143.721 59.5671 143.934C 60.7393 143.508 73.7397 137.327 93.0271 81.1616C 98.3551 65.6016 102.831 50.0417 106.027 38.1053C 106.134 35.0146 107.519 15.0851 107.519 15.0851C 107.519 12.6339 109.224 10.8221 111.249 10.9287C 113.273 11.0353 114.872 13.0602 114.872 15.5114L 115.298 21.9059L 123.397 3.04214C 124.143 0.804063 126.38 -0.47485 128.298 0.1646C 130.217 0.80405 131.176 3.25527 130.43 5.49335L 127.766 16.1508C 127.872 16.1508 134.479 4.10789 134.479 4.10789C 135.438 1.86981 137.676 0.804043 139.594 1.65664C 141.512 2.50924 142.258 4.96047 141.299 7.09197L 136.717 20.5204C 136.823 20.5204 142.364 11.9944 142.364 11.9944C 143.43 9.86293 145.774 8.90375 147.586 9.86293C 149.397 10.8221 150.037 13.2733 148.865 15.4048C 148.865 15.4048 136.823 45.7787 136.397 46.4181C 132.881 59.6334 127.872 76.8986 121.692 94.4834C 102.404 149.583 83.7563 174.521 61.059 175.48C 60.5262 175.48 59.9934 175.48 59.4606 175.48C 37.2961 175.48 20.5661 155.657 9.59045 116.651C 2.55747 91.4994 0.106586 66.5608 2.60157e-05 65.4951L 31.3287 62.2978Z"/>
<path id="path2_fill" d="M 36.0633 248.107C 34.2517 225.939 31.0549 177.98 32.2271 135.777C 33.5058 87.3915 49.5964 7.14052 49.703 6.28792L 18.3743 0C 17.7349 3.4104 1.64431 83.7679 0.259028 134.817C -0.806574 173.717 1.64431 216.241 3.45583 241.392C 3.45583 241.499 0.791829 279.333 0.791829 279.333C 0.472148 281.784 1.75086 283.916 3.88207 284.235C 5.90671 284.555 7.93136 282.85 8.25104 280.399C 8.25104 280.399 10.9151 270.274 11.0216 270.274L 10.915 284.768C 10.7019 287.22 12.1938 289.351 14.325 289.564C 16.3496 289.777 18.2677 287.966 18.4808 285.514C 18.4808 285.514 20.9317 271.66 21.0383 271.766L 21.8907 282.85C 21.8907 285.301 23.5957 287.326 25.6203 287.326C 27.7516 287.326 29.35 285.408 29.4565 282.957L 31.2681 262.174L 33.7189 268.143C 34.4649 270.487 36.7026 271.979 38.6207 271.34C 40.6453 270.807 41.6044 268.462 40.8585 266.118C 40.6454 266.224 36.0633 248.107 36.0633 248.107Z"/>
<path id="path3_fill" d="M 205.768 119.471L 248.605 102.205C 244.769 55.3124 198.309 6.50482e-06 124.356 6.50482e-06C 50.2964 6.50482e-06 3.83616 55.3124 -6.50392e-06 102.205L 42.7306 119.471L 42.7306 337.736L 205.768 337.736L 205.768 119.471Z"/>
<path id="path4_fill" d="M 59.7178 31.2265C 55.562 30.2673 53.1111 29.9476 47.9962 29.2015L 45.3322 1.06574L 15.4953 -6.50482e-06L 14.3232 28.8818C 8.14271 29.5213 4.83932 30.0542 0.0441127 31.2265C -0.0624475 32.7185 0.0441517 33.9974 0.150712 35.4895C 0.896633 53.8204 14.856 68.1014 31.2663 67.2488C 47.7831 66.3962 60.4638 50.8363 59.8244 32.5054C 59.7179 32.1856 59.7178 31.4396 59.7178 31.2265Z"/>
<path id="path5_fill" d="M 23.4465 46.8865C 36.3956 46.8865 46.893 36.3906 46.893 23.4433C 46.893 10.4959 36.3956 1.30078e-05 23.4465 1.30078e-05C 10.4973 1.30078e-05 -2.60193e-05 10.4959 -2.60193e-05 23.4433C -2.60193e-05 36.3906 10.4973 46.8865 23.4465 46.8865Z"/>
<path id="path6_fill" d="M 174.305 123.526C 172.28 171.698 131.574 208.999 83.5153 206.974C 35.3501 204.949 -1.94598 164.238 0.0786669 116.173L 1.46397 83.6672C 2.31645 64.2705 1.25085 36.8807 12.6528 22.8129C 29.4893 2.03074 63.5886 -0.95336 92.3598 0.218964C 140.525 2.24389 177.821 42.9555 175.796 91.0208L 174.305 123.526Z"/>
<path id="path7_fill" d="M 23.4465 46.8865C 36.3956 46.8865 46.893 36.3906 46.893 23.4433C 46.893 10.4959 36.3956 6.50392e-06 23.4465 6.50392e-06C 10.4974 6.50392e-06 0 10.4959 0 23.4433C 0 36.3906 10.4974 46.8865 23.4465 46.8865Z"/>
<path id="path8_fill" d="M 12.0444 78.8655C 12.0444 78.8655 9.38032 77.1603 7.35568 75.1354C 7.35568 75.1354 -3.83312 48.385 1.38833 29.4147C 3.30642 20.9953 8.74096 10.3378 15.8805 6.50482e-06L 37.7253 19.6098C 28.8808 32.1856 16.5199 48.2785 12.0444 78.8655Z"/>
<path id="path9_fill" d="M 1.30078e-05 6.50107L 17.1562 6.50482e-06C 17.1562 6.50482e-06 33.673 23.5531 25.681 64.2647L 23.6564 65.0107C 23.6564 64.9042 22.5908 24.1925 1.30078e-05 6.50107Z"/>
<path id="path10_fill" d="M 0.00140603 49.764L 22.0594 69.2672C 22.0594 69.2672 107.947 77.8998 147.268 62.0201C 166.342 54.3467 171.35 50.1903 176.145 6.92083C 149.825 46.5667 -0.531395 -56.3847 0.00140603 49.764Z"/>
<path id="path11_fill" d="M 2.02464 4.04984C 3.14282 4.04984 4.04931 3.14326 4.04931 2.02492C 4.04931 0.906593 3.14282 1.30096e-05 2.02464 1.30096e-05C 0.906454 1.30096e-05 2.60158e-05 0.906593 2.60158e-05 2.02492C 2.60158e-05 3.14326 0.906454 4.04984 2.02464 4.04984Z"/>
<path id="path12_fill" d="M 0.0135371 1.74674C 0.120097 2.49277 0.865993 3.13223 1.71847 2.91908C 2.57096 2.8125 3.10377 2.06647 2.99721 1.21387C 2.89065 0.467844 2.14469 -0.17158 1.29221 0.0415703C 0.439726 0.25472 -0.0930231 1.00072 0.0135371 1.74674Z"/>
<path id="path13_fill" d="M 2.02465 4.04984C 3.14283 4.04984 4.04933 3.14326 4.04933 2.02493C 4.04933 0.9066 3.14283 -1.30096e-05 2.02465 -1.30096e-05C 0.906467 -1.30096e-05 -2.60158e-05 0.9066 -2.60158e-05 2.02493C -2.60158e-05 3.14326 0.906467 4.04984 2.02465 4.04984Z"/>
<path id="path14_fill" d="M 1.81153 3.41039C 2.81201 3.41039 3.62307 2.64694 3.62307 1.70519C 3.62307 0.763435 2.81201 -1.30096e-05 1.81153 -1.30096e-05C 0.811049 -1.30096e-05 -1.30079e-05 0.763435 -1.30079e-05 1.70519C -1.30079e-05 2.64694 0.811049 3.41039 1.81153 3.41039Z"/>
<path id="path15_fill" d="M 2.13119 4.04983C 3.30822 4.04983 4.2624 3.14325 4.2624 2.02492C 4.2624 0.906587 3.30822 6.5048e-06 2.13119 6.5048e-06C 0.95415 6.5048e-06 -2.60158e-05 0.906587 -2.60158e-05 2.02492C -2.60158e-05 3.14325 0.95415 4.04983 2.13119 4.04983Z"/>
<path id="path16_fill" d="M 1.70494 3.19723C 2.64657 3.19723 3.40995 2.48151 3.40995 1.59861C 3.40995 0.71572 2.64657 -6.5048e-06 1.70494 -6.5048e-06C 0.763315 -6.5048e-06 0 0.71572 0 1.59861C 0 2.48151 0.763315 3.19723 1.70494 3.19723Z"/>
<path id="path17_fill" d="M 1.8115 3.62353C 2.81198 3.62353 3.62305 2.81239 3.62305 1.81178C 3.62305 0.811169 2.81198 0 1.8115 0C 0.811023 0 2.60158e-05 0.811169 2.60158e-05 1.81178C 2.60158e-05 2.81239 0.811023 3.62353 1.8115 3.62353Z"/>
<path id="path18_fill" d="M 1.81154 3.62353C 2.81202 3.62353 3.62309 2.81239 3.62309 1.81178C 3.62309 0.811169 2.81202 0 1.81154 0C 0.811062 0 0 0.811169 0 1.81178C 0 2.81239 0.811062 3.62353 1.81154 3.62353Z"/>
<path id="path19_fill" d="M 1.81154 3.62355C 2.81202 3.62355 3.62308 2.81238 3.62308 1.81177C 3.62308 0.811156 2.81202 -1.30096e-05 1.81154 -1.30096e-05C 0.811062 -1.30096e-05 0 0.811156 0 1.81177C 0 2.81238 0.811062 3.62355 1.81154 3.62355Z"/>
<path id="path20_fill" d="M 156.75 0.319712L 104.536 0.213163L 65.7477 0.106581L 65.3214 0.106581L 13.5331 0C 6.28705 0 0.319668 6.50108 -1.30078e-05 14.4942L -1.30078e-05 14.8139L -1.30078e-05 15.1337C -1.30078e-05 15.8797 2.34434 36.5552 4.15586 42.3103C 5.6477 46.9996 10.2298 55.7387 17.4759 55.8453L 56.1572 55.9519C 69.3707 55.9519 76.4037 24.0859 78.0021 16.5191C 79.2808 13.7482 81.8383 11.8298 84.822 11.8298C 87.5925 11.8298 89.9368 13.6416 91.109 16.1994C 91.8549 23.0202 96.2239 56.0584 109.65 56.0584L 148.332 56.165C 155.578 56.165 161.012 47.4259 162.824 42.7366C 165.062 36.9815 169.111 16.306 169.324 15.56L 169.431 15.2402L 169.431 14.9205C 169.537 6.92737 163.996 0.319712 156.75 0.319712ZM 72.5675 18.2243C 70.5429 28.7752 64.0427 49.9837 56.3704 49.9837L 19.6071 50.0902C 14.2791 50.5165 12.8938 44.7615 11.6151 40.7117C 10.1232 35.8092 8.95108 20.7821 8.6314 18.4375C 8.95108 13.7482 10.4429 10.018 14.7053 10.018L 65.0017 9.91146C 67.4526 9.91146 69.9035 11.1904 71.3953 13.2153C 72.2478 14.3876 72.9938 16.0928 72.5675 18.2243ZM 155.791 39.5393C 154.193 43.5892 152.381 49.7705 146.414 49.9837L 109.65 50.0902C 101.872 50.0902 97.6091 28.9884 96.437 18.4375C 96.2239 16.306 97.1829 14.6008 97.9288 13.535C 99.5273 11.5101 102.085 10.2312 104.642 10.2312L 154.939 10.1246C 159.201 10.1246 161.332 14.0679 161.226 18.7572C 160.799 21.2084 157.709 34.7434 155.791 39.5393Z"/>
<path id="path21_fill" d="M 75.2315 1.38548L 0 -1.30096e-05C 0 -1.30096e-05 12.7872 26.8569 37.0829 26.8569C 61.1656 26.8569 74.1659 6.8208 75.2315 1.38548Z"/>
<path id="path22_fill" d="M 9.80363 20.6753C 15.218 20.6753 19.6073 16.047 19.6073 10.3377C 19.6073 4.62833 15.218 1.30095e-05 9.80363 1.30095e-05C 4.38924 1.30095e-05 -1.3008e-05 4.62833 -1.3008e-05 10.3377C -1.3008e-05 16.047 4.38924 20.6753 9.80363 20.6753Z"/>
<path id="path23_fill" d="M 9.80363 20.6754C 15.218 20.6754 19.6073 16.047 19.6073 10.3377C 19.6073 4.62833 15.218 1.30095e-05 9.80363 1.30095e-05C 4.38924 1.30095e-05 -1.3008e-05 4.62833 -1.3008e-05 10.3377C -1.3008e-05 16.047 4.38924 20.6754 9.80363 20.6754Z"/>
<path id="path24_fill" d="M 4.04931 32.3455C 3.40995 32.3455 2.77057 32.0258 2.55745 31.3863C 0.852482 27.7628 -2.60157e-05 23.9261 -2.60157e-05 19.8762C -2.60157e-05 12.416 2.98371 5.59517 8.31172 0.479574C 8.95108 -0.159875 10.0166 -0.159875 10.656 0.479574C 11.2954 1.11902 11.2954 2.18479 10.656 2.82424C 5.96735 7.30038 3.40991 13.3752 3.40991 19.7696C 3.40991 23.2866 4.15587 26.697 5.64772 29.8943C 6.07396 30.7469 5.64767 31.7061 4.79518 32.1324C 4.4755 32.3455 4.26243 32.3455 4.04931 32.3455Z"/>
<path id="path25_fill" d="M 5.22144 42.517C 4.58208 42.517 4.04931 42.1973 3.72963 41.5578C 1.27875 36.7619 2.60157e-05 31.6463 2.60157e-05 26.211C 2.60157e-05 16.2995 4.36894 6.81436 11.9347 0.419862C 12.6806 -0.219588 13.7463 -0.113 14.2791 0.633025C 14.9184 1.37905 14.8118 2.44481 14.0659 2.97769C 7.24607 8.73274 3.30337 17.2587 3.30337 26.211C 3.30337 31.1135 4.36894 35.6962 6.60671 40.0658C 7.03295 40.9184 6.71332 41.8775 5.86084 42.3038C 5.75428 42.4104 5.43456 42.517 5.22144 42.517Z"/>
<path id="path26_fill" d="M 1.6517 32.4802C 1.22546 32.4802 0.799176 32.2671 0.479495 31.9473C -0.159866 31.3079 -0.159866 30.2421 0.479495 29.6027C 2.93038 27.1515 4.84848 24.1674 6.02064 20.8636C 8.15184 14.7888 7.83216 8.18111 4.95504 2.42606C 4.5288 1.57346 4.84849 0.614316 5.70097 0.188016C 6.55345 -0.238284 7.51247 0.0814217 7.93871 0.934022C 11.2421 7.54167 11.6683 15.0019 9.21745 22.0359C 7.83216 25.8726 5.701 29.1764 2.93043 32.0539C 2.61075 32.3737 2.1845 32.4802 1.6517 32.4802Z"/>
<path id="path27_fill" d="M 1.74571 42.8431C 1.31946 42.8431 0.893211 42.63 0.46697 42.3103C -0.172391 41.6708 -0.172417 40.6051 0.573504 39.9656C 4.08999 36.6618 6.75405 32.6119 8.35245 28.0292C 11.3361 19.6098 10.4836 10.3378 6.00811 2.55779C 5.58187 1.70519 5.79497 0.746038 6.64745 0.213163C 7.49993 -0.213137 8.45899 -1.30223e-05 8.99179 0.852587C 14.0001 9.48516 14.9592 19.8229 11.5493 29.2015C 9.73773 34.3171 6.86057 38.7933 2.91784 42.4168C 2.59816 42.7365 2.17195 42.8431 1.74571 42.8431Z"/>
</defs>
</svg>
