<svg width="194" height="562" viewBox="0 0 194 562" version="1.1" xmlns="http://www.w3.org/2000/svg" xmlns:xlink="http://www.w3.org/1999/xlink">
<title>person</title>
<desc>Created using Figma</desc>
<g id="Canvas" transform="translate(-172 -9531)">
<g id="person">
<g id="Group">
<g id="Vector">
<use xlink:href="#path0_fill" transform="translate(331.772 9808)" fill="#FCCFB2"/>
</g>
<g id="Girl 1">
<g id="Body 1">
<g id="Group">
<g id="Vector">
<use xlink:href="#path1_fill" transform="translate(225.521 9937.17)" fill="#1864AC"/>
</g>
</g>
<g id="Vector">
<use xlink:href="#path2_fill" transform="translate(194.207 9750)" fill="#373737"/>
</g>
<g id="Vector">
<use xlink:href="#path3_fill" transform="translate(192.389 9580.79)" fill="#FFF1B9"/>
</g>
<g id="Vector">
<use xlink:href="#path4_fill" transform="translate(256 9730.08)" fill="#FCCFB2"/>
</g>
<g id="Head 1">
<g id="Group">
<g id="Vector">
<use xlink:href="#path5_fill" transform="translate(216.268 9590.41)" fill="#FCCFB2"/>
</g>
<g id="Vector">
<use xlink:href="#path6_fill" transform="matrix(0.999899 -0.016449 0.0163686 0.999901 200.917 9658.8)" fill="#FCCFB2"/>
</g>
<g id="Vector">
<use xlink:href="#path7_fill" transform="translate(213.406 9587.33)" fill="#FFF1B9"/>
</g>
<g id="Vector">
<use xlink:href="#path8_fill" transform="translate(283.866 9600)" fill="#FFF1B9"/>
</g>
</g>
<g id="Group">
<g id="Vector">
<use xlink:href="#path9_fill" transform="matrix(0.300629 -0.953712 0.953287 0.301972 244.683 9679.95)"/>
</g>
<g id="Vector">
<use xlink:href="#path10_fill" transform="matrix(0.30053 -0.953812 0.953388 0.301872 301.854 9681.06)"/>
</g>
<g id="Vector">
<use xlink:href="#path11_fill" transform="translate(260.195 9700.13)" fill="#FFFFFF"/>
</g>
</g>
<g id="Group">
<g id="Vector">
<use xlink:href="#path12_fill" transform="translate(201.311 9531)" fill="#EE509C"/>
</g>
<g id="Vector">
<use xlink:href="#path13_fill" transform="translate(192.952 9605.81)" fill="#D84C96"/>
</g>
</g>
</g>
</g>
</g>
<g id="Vector">
<use xlink:href="#path14_fill" transform="translate(172 9819)" fill="#FCCFB2"/>
</g>
<g id="Vector">
<use xlink:href="#path15_fill" transform="matrix(-0.993045 0.117736 0.117862 0.99303 362.992 9972.71)" fill="#FCCFB2"/>
</g>
</g>
</g>
</g>
<defs>
<path id="path0_fill" d="M 29.9768 177.75L 8.48264 175.666C 8.55453 175.235 12.8677 129.899 11.7894 91.5331C 10.9268 58.9146 0.0718868 4.81374 2.04315e-14 4.23897L 21.1347 -4.3852e-06C 21.566 2.2991 32.4209 56.4718 33.3555 90.8865C 34.5057 130.69 30.1206 175.882 29.9768 177.75Z"/>
<path id="path1_fill" d="M -6.22145e-07 0L -6.22145e-07 35.9312C -6.22145e-07 42.4642 6.52366 48.9971 9.7855 52.9169L 9.7855 209.054L 40.4467 209.054L 40.1205 54.8768L 70.1294 54.8768L 70.1294 209.054L 101.117 209.054L 101.117 0L -6.22145e-07 0Z"/>
<path id="path2_fill" d="M 28.0518 78.722L -3.11073e-07 67.2894C 2.60947 36.2579 32.9445 2.49212e-06 81.872 2.49212e-06C 130.473 2.49212e-06 161.461 36.5845 163.744 67.2894L 135.692 78.722L 135.692 223.1L 28.0518 223.1L 28.0518 78.722Z"/>
<path id="path3_fill" d="M 169.013 97.6721C 165.239 72.2223 152.202 4.4709 90.4489 0C 90.4489 0 89.7627 0 89.4197 0C 88.0474 0 86.6751 0 85.3028 0C 83.9305 0 82.5582 0 81.1859 0C 80.8428 0 80.1567 0 80.1567 0C 18.4033 4.4709 5.70959 72.2223 1.5927 97.6721C -2.18111 125.873 1.93578 161.296 1.93578 161.296C 110.347 175.053 169.013 161.296 169.013 161.296C 169.013 161.296 172.787 125.873 169.013 97.6721Z"/>
<path id="path4_fill" d="M 0.352649 21.3228C 3.09724 20.6349 4.81261 20.291 8.58642 19.9471L 10.3018 0.687837L 30.8862 2.62387e-06L 31.5724 19.9471C 35.6893 20.291 38.0908 20.9789 41.5215 21.6667C 41.5215 22.6984 41.5215 23.7302 41.5215 24.7619C 41.1784 37.4868 31.2293 47.4604 19.9079 46.7725C 8.58642 46.0847 -0.3335 35.4233 0.00957386 22.6984C 0.352648 22.0106 0.352649 21.3228 0.352649 21.3228Z"/>
<path id="path5_fill" d="M 123.176 83.5843C 123.862 117.632 96.7596 145.489 62.7953 146.177C 28.831 146.865 1.04197 119.695 0.355819 85.6478L 0.0127468 62.6054C -0.673401 28.5578 26.4294 0.700606 60.3938 0.0127747C 94.3581 -0.675057 122.147 26.4943 122.833 60.542L 123.176 83.5843Z"/>
<path id="path6_fill" d="M 16.4676 33.0159C 25.5623 33.0159 32.9351 25.625 32.9351 16.5079C 32.9351 7.39086 25.5623 -5.24773e-06 16.4676 -5.24773e-06C 7.37278 -5.24773e-06 0 7.39086 0 16.5079C 0 25.625 7.37278 33.0159 16.4676 33.0159Z"/>
<path id="path7_fill" d="M 16.2555 147.54L 0.817183 151.323C 0.817183 151.323 -1.58433 87.6985 1.84641 53.3069C 1.84641 53.3069 9.05096 18.2275 17.9709 11.0053C 29.2923 1.71958 75.2642 -1.31193e-06 75.2642 -1.31193e-06C 75.2642 -1.31193e-06 20.3724 21.3228 16.2555 147.54Z"/>
<path id="path8_fill" d="M 0 0.735086L 69.9871 115.947C 69.9871 115.947 76.1624 61.6082 56.2641 33.751C 26.7598 -7.86281 0 0.735086 0 0.735086Z"/>
<path id="path9_fill" d="M 7.22063 13.726C 11.2085 13.726 14.4413 10.6533 14.4413 6.86301C 14.4413 3.07267 11.2085 0 7.22063 0C 3.23279 0 0 3.07267 0 6.86301C 0 10.6533 3.23279 13.726 7.22063 13.726Z"/>
<path id="path10_fill" d="M 7.22063 13.726C 11.2085 13.726 14.4413 10.6533 14.4413 6.86301C 14.4413 3.07268 11.2085 2.61803e-06 7.22063 2.61803e-06C 3.23278 2.61803e-06 2.62329e-06 3.07268 2.62329e-06 6.86301C 2.62329e-06 10.6533 3.23278 13.726 7.22063 13.726Z"/>
<path id="path11_fill" d="M 1.30872e-06 2.62387e-06L 45.2858 2.62387e-06C 45.2858 2.62387e-06 38.0812 13.7566 26.7598 15.4762C 11.3214 17.5397 0.686149 3.43916 1.30872e-06 2.62387e-06Z"/>
<path id="path12_fill" d="M 0.560281 118.92C -3.55661 99.3167 16.3417 43.9462 17.0278 23.3113C 17.3709 8.179 30.0646 3.02027 39.3276 0.956775C 50.9922 -1.45063 66.4305 0.268944 71.9197 10.9303C 78.7812 23.9991 95.2487 36.0362 100.052 39.8193C 114.804 50.8246 136.075 74.5547 140.191 93.814L 0.560281 118.92Z"/>
<path id="path13_fill" d="M 160.902 28.2887C 161.245 29.6644 159.872 30.6961 158.5 30.6961L 3.08767 55.802C 1.71537 56.1459 0.343074 55.4581 0 54.0824L 1.02922 25.1935C 0.686148 23.8178 2.05844 22.7861 3.43074 22.7861L 146.836 0.0876388C 148.208 -0.256277 149.58 0.431555 149.923 1.80722L 160.902 28.2887Z"/>
<path id="path14_fill" d="M 130.783 57.5495C 130.783 55.6096 129.201 53.9571 127.261 53.9571L 109.433 53.9571C 110.295 51.0833 112.164 45.8384 111.589 43.5393C 110.798 40.3062 109.72 37.0012 108.139 35.8517C 106.485 34.7021 103.969 35.5643 103.969 37.0731C 103.969 38.51 103.969 45.4792 103.969 45.4792L 95.0552 57.4776C 95.0552 57.4776 63.2813 58.4835 58.9681 58.5554C 38.4084 58.9864 27.9849 57.9806 22.8809 57.1184C 25.972 48.2812 34.3828 30.3194 46.4598 8.04686L 26.4033 4.3852e-06C 23.7435 4.95745 20.7962 10.5615 17.8488 16.3093C -1.48872 54.3164 -0.410421 60.8545 0.308447 64.7342C 2.32128 76.3734 17.13 78.2414 23.456 78.9599C 30.1415 79.7502 38.9835 80.1813 49.6947 80.1813C 50.9167 80.1813 95.0552 79.7502 95.0552 79.7502C 96.8524 80.7561 100.303 81.9056 104.976 81.9056L 122.516 81.9056C 124.457 81.9056 126.038 80.2532 126.038 78.3133C 126.038 76.3734 124.457 74.7209 122.516 74.7209L 124.241 74.7209C 126.182 74.7209 127.764 73.4277 127.764 71.4878C 127.764 69.548 126.182 68.2547 124.241 68.2547L 126.182 68.2547C 128.123 68.2547 129.705 66.6022 129.705 64.6624C 129.705 62.7225 128.123 61.07 126.182 61.07L 127.404 61.07C 129.201 61.1418 130.783 59.4894 130.783 57.5495Z"/>
<path id="path15_fill" d="M 22.8495 3.67289C 22.8495 3.67289 1.29827 -0.732201 0 0.106085C 0.00108881 -0.826615 4.30837 34.4554 4.30837 34.4554C 4.11451 35.9426 4.88997 37.2358 6.18241 37.4298C 7.41023 37.6237 8.63806 36.5892 8.83193 35.102C 8.83193 35.102 10.4475 28.9593 10.5121 28.9593L 10.4475 37.7531C 10.3182 39.2402 11.2229 40.5334 12.5154 40.6628C 13.7432 40.7921 14.9064 39.6929 15.0356 38.2057C 15.0356 38.2057 16.522 29.7999 16.5866 29.8646L 17.1036 36.5892C 17.1036 38.0764 18.1375 39.3049 19.3653 39.3049C 20.6578 39.3049 21.6271 38.141 21.6917 36.6538L 22.7903 24.0452L 24.2766 27.6661C 24.729 29.0886 26.086 29.9939 27.2492 29.6059C 28.4771 29.2826 29.0587 27.8601 28.6063 26.4376C 28.4771 26.5023 22.8495 3.67289 22.8495 3.67289Z"/>
</defs>
</svg>
