<svg width="33" height="30" viewBox="0 0 33 30" version="1.1" xmlns="http://www.w3.org/2000/svg" xmlns:xlink="http://www.w3.org/1999/xlink">
<title>Vector</title>
<desc>Created using Figma</desc>
<g id="Canvas" transform="translate(28981 -3939)">
<g id="Vector">
<use xlink:href="#path0_stroke" transform="translate(-28980 3940)" fill="#3D4054"/>
</g>
</g>
<defs>
<path id="path0_stroke" d="M 28.4879 2.85886L 29.2103 2.16743L 28.4879 2.85886ZM 17 3.03448L 17.6946 3.75388L 17.7224 3.72591L 17 3.03448ZM 15 3.03448L 14.2776 3.72591L 14.3054 3.75388L 15 3.03448ZM 2.65565 2.77477L 1.94948 2.06673L 1.93321 2.08334L 2.65565 2.77477ZM 2.65565 16.1441L 1.93321 16.8356L 1.93321 16.8356L 2.65565 16.1441ZM 3.29945 16.8168L 2.57701 17.5082L 2.62469 17.5549L 3.29945 16.8168ZM 15.5315 28L 14.8568 28.738C 15.2396 29.0881 15.8265 29.0872 16.2084 28.7361L 15.5315 28ZM 27.6027 16.9009L 28.2795 17.637L 28.3251 17.5923L 27.6027 16.9009ZM 28.327 16.1441L 27.6045 15.4527L 27.6045 15.4527L 28.327 16.1441ZM 30.9826 9.41742L 29.9846 9.35375L 29.9826 9.41742L 30.9826 9.41742ZM 16 4L 15.3054 4.7194C 15.6929 5.09353 16.3071 5.09353 16.6946 4.7194L 16 4ZM 29.2103 2.16743C 27.2878 0.158685 25.0444 -0.879185 22.7219 -0.82786C 20.4081 -0.776727 18.1835 0.351571 16.2776 2.34305L 17.7224 3.72591C 19.3573 2.01769 21.1063 1.20833 22.766 1.17165C 24.417 1.13517 26.1471 1.85933 27.7655 3.55029L 29.2103 2.16743ZM 15.7224 2.34305C 13.968 0.509936 11.9997 -1 9.09359 -1L 9.09359 1C 11.1769 1 12.6521 2.0275 14.2776 3.72591L 15.7224 2.34305ZM 9.09359 -1C 6.38842 -1 3.88798 0.133348 1.94948 2.06673L 3.36182 3.48281C 4.9642 1.88467 6.97032 1 9.09359 1L 9.09359 -1ZM 1.93321 2.08334C -1.97774 6.16972 -1.97774 12.7492 1.93321 16.8356L 3.3781 15.4527C 0.207301 12.1397 0.207301 6.77923 3.3781 3.4662L 1.93321 2.08334ZM 1.93321 16.8356L 2.57701 17.5082L 4.02189 16.1254L 3.37809 15.4527L 1.93321 16.8356ZM 2.62469 17.5549L 14.8568 28.738L 16.2063 27.262L 3.9742 16.0788L 2.62469 17.5549ZM 16.2084 28.7361L 28.2795 17.637L 26.9258 16.1648L 14.8547 27.2639L 16.2084 28.7361ZM 28.3251 17.5923L 29.0494 16.8356L 27.6045 15.4527L 26.8802 16.2095L 28.3251 17.5923ZM 29.0494 16.8356C 30.9197 14.8813 31.9826 12.2784 31.9826 9.41742L 29.9826 9.41742C 29.9826 11.7697 29.1141 13.8754 27.6045 15.4527L 29.0494 16.8356ZM 31.9806 9.4811C 32.1615 6.64595 31.0692 4.10972 29.2103 2.16743L 27.7655 3.55029C 29.2865 5.13953 30.1256 7.14385 29.9846 9.35375L 31.9806 9.4811ZM 16.3054 2.31508L 15.3054 3.2806L 16.6946 4.7194L 17.6946 3.75388L 16.3054 2.31508ZM 16.6946 3.2806L 15.6946 2.31508L 14.3054 3.75388L 15.3054 4.7194L 16.6946 3.2806Z"/>
</defs>
</svg>
