<svg width="27" height="30" viewBox="0 0 27 30" version="1.1" xmlns="http://www.w3.org/2000/svg" xmlns:xlink="http://www.w3.org/1999/xlink">
<title>LOGO</title>
<desc>Created using Figma</desc>
<g id="Canvas" transform="translate(12969 -3321)">
<g id="LOGO">
<g id="Vector">
<use xlink:href="#path0_fill" transform="translate(-12962.7 3334.33)"/>
</g>
<g id="Vector">
<use xlink:href="#path1_fill" transform="translate(-12969 3337.93)"/>
</g>
<g id="Vector">
<use xlink:href="#path2_fill" transform="translate(-12962 3322.77)"/>
</g>
<g id="Vector">
<use xlink:href="#path3_fill" transform="translate(-12956.2 3321)"/>
</g>
<g id="Vector">
<use xlink:href="#path4_fill" transform="translate(-12951.7 3323.87)"/>
</g>
<g id="Vector">
<use xlink:href="#path5_fill" transform="translate(-12947.6 3330.01)"/>
</g>
</g>
</g>
<defs>
<path id="path0_fill" fill-rule="evenodd" d="M 15.5304 11.2225C 14.6395 13.859 12.3782 15.8145 9.29461 16.3857C 6.27951 16.957 3.46999 16.6274 1.80255 15.6826C 0.523422 14.9576 -0.00193509 14.2106 0.0209065 12.7824C -0.0933016 10.7611 0.249323 6.34489 1.32288 4.56523C 1.57414 4.14777 1.98529 3.79624 2.67054 3.59849C 3.76693 3.24696 4.77196 3.26893 4.63491 3.64244C 4.08672 5.40013 2.80759 10.7611 3.49283 12.2771C 3.99535 13.3537 5.98257 13.7052 7.78706 13.5734C 10.0484 13.4196 11.6473 12.6286 12.4696 10.4755C 13.0863 8.87158 12.9264 6.89417 11.9442 5.2683C 10.0255 2.1484 4.65776 1.687 1.48277 2.69768C 0.957414 2.85148 0.843205 3.07119 0.683314 2.71965C 0.272165 1.75292 0.957413 1.02787 2.19086 0.566473C 4.9547 -0.510115 9.08903 0.0391656 11.7387 1.44532C 15.7816 3.57652 16.741 7.70711 15.5304 11.2225Z"/>
<path id="path1_fill" fill-rule="evenodd" d="M 5.16999 3.93284C 4.91873 3.71313 4.66747 3.44947 4.50758 3.25173C 3.89086 2.46077 3.27413 1.64784 2.65741 0.856876C 2.52036 0.681106 2.33762 0.593221 2.17773 0.439423C 1.94932 0.219711 1.46964 -3.35254e-07 1.12702 -3.35254e-07C 0.852919 -3.35254e-07 0.578819 0.109856 0.373244 0.307596C 0.121986 0.57125 -0.037905 0.966731 0.00777828 1.31827C 0.0534615 1.80164 0.259036 2.19712 0.510294 2.63654C 0.670186 2.94414 0.87576 3.22976 1.03565 3.51539C 1.53817 4.35029 2.01784 5.1852 2.56604 5.97616C 2.72593 6.19587 3.6396 7.49217 4.32485 8.19525C 4.94157 8.83241 5.42124 8.78847 5.37556 7.95357C 5.32988 7.11866 5.28419 5.99813 5.32988 5.58068C 5.44409 4.8776 5.74103 4.41621 5.16999 3.93284Z"/>
<path id="path2_fill" fill-rule="evenodd" d="M 1.18554 10.2138C 1.25406 10.3676 1.29975 10.4555 1.48248 10.5214C 1.68805 10.6093 1.87079 10.5434 2.05352 10.4775C 2.28194 10.4116 2.46467 10.3896 2.69309 10.3237C 2.9215 10.2578 3.14992 10.2797 3.40118 10.2578C 3.60675 10.2358 3.81233 10.2578 3.94938 10.104C 4.22347 9.81835 4.04074 8.91754 3.99506 8.52206C 3.88085 7.73109 3.30981 3.97402 3.17276 2.85349C 3.08139 1.95267 3.03571 0.832145 2.14489 0.216952C 1.551 -0.200501 0.523131 -0.00275997 0.249031 0.700318C -0.0479098 1.49128 -0.0250681 2.2383 0.0434568 3.05123C 0.157665 4.45739 0.408923 5.88551 0.614498 7.29167C 0.705864 7.92883 0.79723 8.566 0.888597 9.20316C 0.93428 9.51076 1.07133 10.0381 1.18554 10.2138Z"/>
<path id="path3_fill" fill-rule="evenodd" d="M 3.18435 0.0134111C 3.4813 0.0573535 3.77824 0.233123 4.00665 0.540719C 4.23507 0.870287 4.32644 1.13394 4.32644 1.50745C 4.32644 2.62798 3.38993 11.5263 3.3214 11.746C 3.27572 11.9438 3.25288 12.1635 3.00162 12.2074C 2.79605 12.2514 2.61331 12.1635 2.40774 12.1195C 2.20216 12.0756 1.97375 12.0316 1.76817 12.0097C 1.33418 11.9657 0.945874 11.9657 0.511883 11.9218C 0.077892 11.8778 -0.0363163 11.746 0.00936693 11.3505C 0.0322086 11.1528 0.0322082 10.977 0.0322082 10.7793C 0.146416 8.91174 0.374833 7.06616 0.626091 5.22058C 0.763141 4.29779 0.90019 3.375 1.10576 2.45221C 1.19713 1.94687 1.2885 1.30971 1.60828 0.848316C 1.97375 0.277065 2.59047 -0.0744736 3.18435 0.0134111Z"/>
<path id="path4_fill" fill-rule="evenodd" d="M 4.71259 0.00282798C 4.96384 0.0247992 5.19226 0.134655 5.39784 0.288453C 5.85467 0.618021 5.7633 1.69461 5.64909 2.24389C 5.375 3.6061 3.41061 9.88986 3.29641 10.1535C 3.1822 10.3952 2.99946 11.0104 2.72537 11.0763C 2.40558 11.1642 2.06296 10.9225 1.83454 10.7687C 1.58328 10.6149 1.33203 10.4611 1.05793 10.3293C 0.852351 10.2414 0.715301 10.1755 0.486885 10.1096C 0.304152 10.0656 0.0528944 9.99971 0.00721114 9.80197C -0.0384721 9.6262 0.144261 9.14284 0.235627 8.92313C 0.372677 8.54962 0.464044 8.26399 0.578252 7.89048C 0.852351 6.94572 1.19498 6.00096 1.51476 5.07817C 1.8117 4.22129 2.13148 3.38639 2.45127 2.55148C 2.61116 2.156 2.72537 1.71658 2.93094 1.3211C 3.1822 0.859704 3.38777 0.486194 3.89029 0.200568C 4.14155 0.0907126 4.41565 -0.0191432 4.71259 0.00282798Z"/>
<path id="path5_fill" fill-rule="evenodd" d="M 5.38128 0.362173C 4.87876 -0.296962 4.12499 0.0545761 3.66816 0.537942C 3.16564 1.06525 0.698745 4.80035 0.333279 5.32766C 0.150546 5.59131 -0.0550288 5.85497 0.0134961 6.18453C 0.104863 6.53607 0.378962 6.88761 0.584537 7.19521C 0.698745 7.34901 0.790112 7.5028 0.881479 7.6566C 0.950004 7.78843 1.04137 7.92026 1.20126 7.98617C 1.36115 8.05208 1.54389 8.00814 1.79514 7.78843C 2.09208 7.5028 2.29766 7.12929 2.52608 6.79973C 3.07427 6.03074 3.57679 5.23977 4.05647 4.42684C 4.37625 3.87756 4.69603 3.32828 5.01581 2.779C 5.38128 2.14184 5.90664 1.04328 5.38128 0.362173Z"/>
</defs>
</svg>
