<svg width="9" height="16" viewBox="0 0 9 16" version="1.1" xmlns="http://www.w3.org/2000/svg" xmlns:xlink="http://www.w3.org/1999/xlink">
<title>ok 1</title>
<desc>Created using Figma</desc>
<g id="Canvas" transform="translate(22705 -7490)">
<g id="ok 1">
<g id="Vector">
<use xlink:href="#path0_fill" transform="translate(-22704.5 7490)" fill="#FFFFFF"/>
</g>
<g id="Vector">
<use xlink:href="#path1_fill" transform="translate(-22705 7498.12)" fill="#FFFFFF"/>
</g>
</g>
</g>
<defs>
<path id="path0_fill" d="M 3.82507 7.97715C 5.93111 7.97715 7.65014 6.19402 7.65014 3.98857C 7.65014 1.79251 5.94011 -7.16009e-08 3.82507 -7.16009e-08C 1.71903 -7.16009e-08 -4.39461e-06 1.78313 -4.39461e-06 3.98857C -4.39461e-06 6.19402 1.71003 7.97715 3.82507 7.97715ZM 3.82507 2.34622C 4.69808 2.34622 5.4091 3.08762 5.4091 3.99796C 5.4091 4.90829 4.69808 5.6497 3.82507 5.6497C 2.95205 5.6497 2.24104 4.90829 2.24104 3.99796C 2.24104 3.08762 2.95205 2.34622 3.82507 2.34622Z"/>
<path id="path1_fill" d="M 5.84365 3.11843C 6.61767 2.93073 7.37368 2.61165 8.06669 2.16117C 8.5887 1.81393 8.7507 1.10068 8.4177 0.546973C 8.08469 0.00265031 7.40067 -0.166278 6.86966 0.180962C 5.30363 1.20391 3.2876 1.20391 1.72157 0.180962C 1.19956 -0.166278 0.506555 0.00265031 0.173549 0.546973C -0.159457 1.0913 0.00253673 1.81393 0.524546 2.16117C 1.21756 2.61165 1.96458 2.93073 2.74759 3.11843L 0.614548 5.34264C 0.17354 5.8025 0.17354 6.53452 0.614548 6.99438C 0.830552 7.21962 1.11856 7.33224 1.40657 7.33224C 1.69457 7.33224 1.98258 7.21962 2.19859 6.99438L 4.29562 4.80771L 6.39266 6.99438C 6.83367 7.45424 7.53568 7.45424 7.97669 6.99438C 8.4177 6.53452 8.4177 5.8025 7.97669 5.34264L 5.84365 3.11843Z"/>
</defs>
</svg>
