<svg width="47" height="52" viewBox="0 0 47 52" version="1.1" xmlns="http://www.w3.org/2000/svg" xmlns:xlink="http://www.w3.org/1999/xlink">
<title>noun_1026237_cc</title>
<desc>Created using Figma</desc>
<g id="Canvas" transform="translate(16584 -3737)">
<g id="noun_1026237_cc">
<g id="Vector">
<use xlink:href="#path0_stroke" transform="matrix(0.71319 -0.700957 0.71319 0.700957 -16563.7 3742.67)" fill="#4141BE"/>
</g>
<g id="Vector">
<use xlink:href="#path1_stroke" transform="translate(-16566.2 3742.83)" fill="#4141BE"/>
</g>
<g id="Vector">
<use xlink:href="#path2_fill" transform="translate(-16565.9 3758.15)" fill="#4141BE"/>
</g>
<g id="Vector">
<use xlink:href="#path3_fill" transform="translate(-16552.4 3764.27)" fill="#4141BE"/>
</g>
<g id="Vector">
<use xlink:href="#path4_fill" transform="translate(-16583 3750.91)" fill="#4141BE"/>
<use xlink:href="#path5_stroke" transform="translate(-16583 3750.91)" fill="#4141BE"/>
</g>
</g>
</g>
<defs>
<path id="path0_stroke" d="M 7.09581 4.04791C 7.09581 5.73122 5.73122 7.09581 4.04791 7.09581L 4.04791 9.09581C 6.83579 9.09581 9.09581 6.83579 9.09581 4.04791L 7.09581 4.04791ZM 4.04791 7.09581C 2.36459 7.09581 0.999999 5.73122 0.999999 4.04791L -1 4.04791C -1 6.83579 1.26002 9.09581 4.04791 9.09581L 4.04791 7.09581ZM 0.999999 4.04791C 0.999999 2.36459 2.36459 1 4.04791 1L 4.04791 -1C 1.26002 -1 -1 1.26003 -1 4.04791L 0.999999 4.04791ZM 4.04791 1C 5.73122 1 7.09581 2.36459 7.09581 4.04791L 9.09581 4.04791C 9.09581 1.26003 6.83579 -1 4.04791 -1L 4.04791 1Z"/>
<path id="path1_stroke" d="M 4.08277 1C 4.63506 1 5.08277 0.552285 5.08277 2.28468e-07C 5.08277 -0.552285 4.63506 -1 4.08277 -1L 4.08277 1ZM 9.16554 4.01274C 9.16554 3.46046 8.71783 3.01274 8.16554 3.01274C 7.61326 3.01274 7.16554 3.46046 7.16554 4.01274L 9.16554 4.01274ZM 4.08277 -1C 1.2922 -1 -1 1.22822 -1 4.01274L 1 4.01274C 1 2.36527 2.36401 1 4.08277 1L 4.08277 -1ZM -1 4.01274C -1 6.79726 1.2922 9.02548 4.08277 9.02548L 4.08277 7.02548C 2.36401 7.02548 1 5.66021 1 4.01274L -1 4.01274ZM 4.08277 9.02548C 6.87334 9.02548 9.16554 6.79726 9.16554 4.01274L 7.16554 4.01274C 7.16554 5.66021 5.80153 7.02548 4.08277 7.02548L 4.08277 9.02548Z"/>
<path id="path2_fill" d="M 1.00737 3.54903C 1.25112 3.54903 1.43393 3.48914 1.61674 3.30947C 4.23703 1.09348 7.64949 2.11164 7.77137 2.17153C 8.25886 2.3512 8.80729 2.05174 8.99011 1.57261C 9.17292 1.09348 8.86823 0.554452 8.38074 0.374777C 8.19793 0.314886 3.81047 -1.06262 0.337067 1.87207C -0.0894917 2.23142 -0.0894921 2.83034 0.215192 3.18969C 0.45894 3.42925 0.702687 3.54903 1.00737 3.54903Z"/>
<path id="path3_fill" d="M 1.82811 3.5935C 2.83774 3.5935 3.65621 2.78907 3.65621 1.79675C 3.65621 0.804433 2.83774 0 1.82811 0C 0.818473 0 0 0.804433 0 1.79675C 0 2.78907 0.818473 3.5935 1.82811 3.5935Z"/>
<path id="path4_fill" d="M 2.5822 18.6277C 3.31344 18.9871 4.04469 19.1667 4.83687 19.1667C 5.14155 19.1667 5.3853 19.1068 5.68998 19.1068C 5.81185 21.802 6.72591 24.4372 8.24933 26.773C 6.72591 29.3483 7.03059 32.5825 8.98057 34.7386C 10.2602 36.176 12.0274 37.0145 14.0383 37.0743L 14.2211 37.0743C 16.0493 37.0743 17.8164 36.3556 19.157 35.0979L 19.9492 34.3193C 22.2648 34.7985 24.6414 34.8584 26.957 34.499L 27.5054 35.038C 30.1866 37.6134 34.3913 37.793 37.1944 35.3974C 39.3271 33.6006 40.0584 30.7258 39.0834 28.1505C 39.6928 27.3719 40.3021 26.4136 40.8506 25.2757C 43.1662 25.2158 44.9943 23.3592 44.9943 21.0833L 44.9943 15.8128C 45.0552 14.6749 44.6287 13.5968 43.7755 12.8182C 42.9834 12.0396 41.9474 11.5605 40.8506 11.5605C 39.8756 9.70386 38.474 8.0269 36.7678 6.5895L 36.9506 4.85264C 37.1944 2.87622 37.1944 2.2773 37.1334 1.85806C 37.0115 0.780007 36.1584 0.00141581 35.0616 0.00141581C 32.8069 -0.0584758 28.846 1.79816 27.5054 2.51686C 27.5054 2.51686 27.5054 2.51686 27.4445 2.51686C 26.1648 2.33719 24.8851 2.15752 24.0929 2.15752C 17.1461 2.15752 10.8087 5.57134 7.63996 11.0814C 7.57903 11.1413 7.57902 11.261 7.51809 11.3209C 7.57902 11.2012 7.57903 11.0814 7.63996 11.0814C 6.96966 12.0396 5.99467 13.8963 5.62904 16.5315C 4.95874 16.831 4.2275 16.831 3.61813 16.4716C 3.0697 16.1722 2.70407 15.693 2.52126 15.154C 2.33845 14.615 2.39939 13.9562 2.70407 13.4171C 3.00876 12.8182 2.82595 12.0995 2.21658 11.8001C 1.60721 11.5006 0.875968 11.6803 0.571284 12.2792C -0.0380853 13.3573 -0.159959 14.615 0.205662 15.8128C 0.63222 17.0705 1.4244 18.0288 2.5822 18.6277ZM 9.77275 12.4589C 9.77275 12.399 9.83369 12.3391 9.89463 12.2792C 12.6368 7.48787 18.1211 4.55318 24.2148 4.55318C 24.8851 4.55318 26.5304 4.79275 27.2007 4.85264C 27.5054 4.91253 27.7491 4.91253 27.8101 4.91253C 28.0538 4.91253 28.2366 4.85264 28.4194 4.73286C 29.1507 4.31361 32.9288 2.57676 34.7569 2.39708C 34.7569 2.93611 34.635 4.01416 34.5741 4.55318L 34.3303 6.94885C 34.2694 7.36809 34.4522 7.72744 34.8178 8.0269C 36.6459 9.4643 38.1084 11.261 39.0225 13.1776C 39.2053 13.5968 39.6318 13.8963 40.1193 13.8963L 40.7896 13.8963C 41.2771 13.8963 41.7037 14.076 42.0693 14.4353C 42.4349 14.7947 42.6177 15.2139 42.5568 15.7529L 42.5568 21.0234C 42.5568 21.9816 41.7037 22.8201 40.7896 22.8201L 40.1193 22.8201C 39.6318 22.8201 39.1443 23.0597 38.9615 23.5388C 38.2912 24.9762 37.56 26.1741 36.8287 27.0125C 36.4631 27.4318 36.3412 28.0307 36.585 28.5697C 37.3772 30.3066 36.9506 32.3429 35.4881 33.5407C 33.66 35.0979 30.9179 34.9781 29.1507 33.2413L 28.1757 32.283C 27.871 31.9836 27.5054 31.8638 27.0788 31.9237C 24.7023 32.3429 22.1429 32.283 19.7664 31.6841C 19.3398 31.5643 18.9133 31.6841 18.6086 31.9836L 17.3289 33.2413C 16.4758 34.0798 15.318 34.5589 14.1602 34.5589L 13.9774 34.5589C 12.6977 34.499 11.5399 33.96 10.6868 33.0616C 9.28526 31.5044 9.22432 29.1088 10.5649 27.3719C 10.8696 26.9527 10.8696 26.3537 10.5649 25.9345C 8.8587 23.6586 7.94465 21.0234 7.94465 18.3283C 8.06652 15.3936 9.10245 13.3573 9.77275 12.4589ZM 7.63996 11.4407C 7.63996 11.5605 7.57902 11.6204 7.57902 11.7402C 7.57902 11.6204 7.57903 11.5006 7.63996 11.4407Z"/>
<path id="path5_stroke" d="M 2.5822 18.6277L 2.46731 18.8498L 2.47194 18.8521L 2.5822 18.6277ZM 5.68998 19.1068L 5.93973 19.0956L 5.92893 18.8568L 5.68998 18.8568L 5.68998 19.1068ZM 8.24933 26.773L 8.4645 26.9003L 8.5436 26.7665L 8.45873 26.6364L 8.24933 26.773ZM 8.98057 34.7386L 9.1673 34.5723L 9.16599 34.5709L 8.98057 34.7386ZM 14.0383 37.0743L 14.0309 37.3243L 14.0383 37.3243L 14.0383 37.0743ZM 19.157 35.0979L 19.3281 35.2803L 19.3323 35.2762L 19.157 35.0979ZM 19.9492 34.3193L 19.9999 34.0745L 19.8692 34.0475L 19.774 34.141L 19.9492 34.3193ZM 26.957 34.499L 27.1322 34.3207L 27.0427 34.2327L 26.9186 34.252L 26.957 34.499ZM 27.5054 35.038L 27.3301 35.2163L 27.3322 35.2183L 27.5054 35.038ZM 37.1944 35.3974L 37.0333 35.2062L 37.0319 35.2073L 37.1944 35.3974ZM 39.0834 28.1505L 38.8865 27.9964L 38.7997 28.1073L 38.8496 28.239L 39.0834 28.1505ZM 40.8506 25.2757L 40.8441 25.0258L 40.6916 25.0297L 40.6254 25.1672L 40.8506 25.2757ZM 44.9943 15.8128L 44.7443 15.7994L 44.7443 15.8128L 44.9943 15.8128ZM 43.7755 12.8182L 43.6002 12.9966L 43.607 13.0029L 43.7755 12.8182ZM 40.8506 11.5605L 40.6292 11.6767L 40.6995 11.8105L 40.8506 11.8105L 40.8506 11.5605ZM 36.7678 6.5895L 36.5192 6.56333L 36.5053 6.69524L 36.6067 6.78069L 36.7678 6.5895ZM 36.9506 4.85264L 36.7024 4.82203L 36.702 4.82647L 36.9506 4.85264ZM 37.1334 1.85806L 36.8849 1.88615L 36.886 1.89402L 37.1334 1.85806ZM 35.0616 0.00141581L 35.0549 0.251416L 35.0616 0.251416L 35.0616 0.00141581ZM 27.5054 2.51686L 27.3873 2.29653L 27.5054 2.76686L 27.5054 2.51686ZM 27.4445 2.51686L 27.4097 2.76444L 27.427 2.76686L 27.4445 2.76686L 27.4445 2.51686ZM 7.63996 11.0814L 7.8152 11.2597L 7.83962 11.2357L 7.85668 11.206L 7.63996 11.0814ZM 7.51809 11.3209L 7.29526 11.2076L 7.69333 11.4992L 7.51809 11.3209ZM 7.63996 11.0814L 7.84482 11.2247L 8.11993 10.8314L 7.63996 10.8314L 7.63996 11.0814ZM 5.62904 16.5315L 5.73102 16.7598L 5.85762 16.7032L 5.87667 16.5659L 5.62904 16.5315ZM 3.61813 16.4716L 3.74519 16.2562L 3.73794 16.2522L 3.61813 16.4716ZM 2.70407 13.4171L 2.92192 13.5403L 2.9269 13.5305L 2.70407 13.4171ZM 0.571284 12.2792L 0.789131 12.4023L 0.794107 12.3926L 0.571284 12.2792ZM 0.205662 15.8128L -0.0335602 15.8858L -0.0310924 15.8931L 0.205662 15.8128ZM 9.77275 12.4589L 9.97312 12.6084L 10.0228 12.5419L 10.0228 12.4589L 9.77275 12.4589ZM 9.89463 12.2792L 10.0699 12.4575L 10.0945 12.4333L 10.1116 12.4034L 9.89463 12.2792ZM 27.2007 4.85264L 27.2489 4.60733L 27.236 4.6048L 27.2229 4.60363L 27.2007 4.85264ZM 28.4194 4.73286L 28.2951 4.51597L 28.2886 4.51967L 28.2824 4.52375L 28.4194 4.73286ZM 34.7569 2.39708L 35.0069 2.39708L 35.0069 2.1213L 34.7324 2.14828L 34.7569 2.39708ZM 34.5741 4.55318L 34.3256 4.5251L 34.3254 4.52788L 34.5741 4.55318ZM 34.3303 6.94885L 34.5779 6.98484L 34.579 6.97415L 34.3303 6.94885ZM 34.8178 8.0269L 34.6594 8.22034L 34.6633 8.22342L 34.8178 8.0269ZM 39.0225 13.1776L 39.2517 13.0776L 39.2481 13.07L 39.0225 13.1776ZM 42.5568 15.7529L 42.3084 15.7248L 42.3068 15.7388L 42.3068 15.7529L 42.5568 15.7529ZM 38.9615 23.5388L 39.1881 23.6445L 39.1919 23.6363L 39.1951 23.628L 38.9615 23.5388ZM 36.8287 27.0125L 36.6403 26.8482L 36.8287 27.0125ZM 36.585 28.5697L 36.3572 28.6727L 36.3575 28.6735L 36.585 28.5697ZM 35.4881 33.5407L 35.3297 33.3473L 35.326 33.3504L 35.4881 33.5407ZM 29.1507 33.2413L 28.9754 33.4196L 29.1507 33.2413ZM 28.1757 32.283L 28.3509 32.1047L 28.1757 32.283ZM 27.0788 31.9237L 27.044 31.6759L 27.0354 31.6775L 27.0788 31.9237ZM 19.7664 31.6841L 19.6988 31.9249L 19.7053 31.9265L 19.7664 31.6841ZM 18.6086 31.9836L 18.7838 32.1619L 18.6086 31.9836ZM 17.3289 33.2413L 17.1537 33.063L 17.3289 33.2413ZM 13.9774 34.5589L 13.9657 34.8089L 13.9774 34.8089L 13.9774 34.5589ZM 10.6868 33.0616L 10.5009 33.2289L 10.5055 33.2338L 10.6868 33.0616ZM 10.5649 27.3719L 10.7629 27.5247L 10.7672 27.5189L 10.5649 27.3719ZM 10.5649 25.9345L 10.7672 25.7875L 10.765 25.7845L 10.5649 25.9345ZM 7.94465 18.3283L 7.69465 18.3179L 7.69465 18.3283L 7.94465 18.3283ZM 7.63996 11.4407L 7.88996 11.4407L 7.88996 10.8445L 7.46472 11.2624L 7.63996 11.4407ZM 2.47194 18.8521C 3.22799 19.222 4.01464 19.4149 4.83687 19.4167L 4.83687 18.9167C 4.07473 18.9186 3.3989 18.7521 2.69246 18.4033L 2.47194 18.8521ZM 4.83687 19.4167C 5.17159 19.4149 5.41534 19.355 5.68998 19.3568L 5.68998 18.8568C 5.35525 18.8587 5.11151 18.9186 4.83687 18.9167L 4.83687 19.4167ZM 5.44024 19.1181C 5.56633 21.8491 6.50144 24.5473 8.03993 26.9096L 8.45873 26.6364C 6.95038 24.3271 6.05738 21.7549 5.93973 19.0956L 5.44024 19.1181ZM 8.03416 26.6457C 6.45675 29.3123 6.76944 32.6664 8.79516 34.9063L 9.16599 34.5709C 7.29174 32.4985 6.99506 29.3843 8.4645 26.9003L 8.03416 26.6457ZM 8.79385 34.9048C 10.1195 36.3939 11.9517 37.2623 14.0309 37.3242L 14.0458 36.8245C 12.1031 36.7666 10.401 35.958 9.1673 34.5723L 8.79385 34.9048ZM 14.0383 37.3243L 14.2211 37.3243L 14.2211 36.8243L 14.0383 36.8243L 14.0383 37.3243ZM 14.2211 37.3243C 16.0972 37.3197 17.9513 36.5661 19.3281 35.2802L 18.986 34.9156C 17.6815 36.1452 16.0013 36.829 14.2211 36.8243L 14.2211 37.3243ZM 19.3323 35.2762L 20.1245 34.4976L 19.774 34.141L 18.9818 34.9196L 19.3323 35.2762ZM 19.8986 34.5641C 22.2362 35.0468 24.6574 35.1078 26.9953 34.746L 26.9186 34.252C 24.6253 34.6089 22.2934 34.5501 19.9999 34.0745L 19.8986 34.5641ZM 26.7817 34.6773L 27.3301 35.2163L 27.6806 34.8597L 27.1322 34.3207L 26.7817 34.6773ZM 27.3322 35.2183C 30.103 37.8797 34.4526 38.0695 37.3568 35.5874L 37.0319 35.2073C 34.3299 37.5166 30.2702 37.3471 27.6786 34.8577L 27.3322 35.2183ZM 37.3554 35.5886C 39.5697 33.7232 40.3296 30.7361 39.3172 28.062L 38.8496 28.239C 39.7872 30.7155 39.0846 33.4781 37.0333 35.2062L 37.3554 35.5886ZM 39.2803 28.3046C 39.8969 27.5162 40.5206 26.5352 41.0758 25.3842L 40.6254 25.1672C 40.0837 26.2921 39.4886 27.2276 38.8865 27.9964L 39.2803 28.3046ZM 40.857 25.5256C 43.3051 25.4623 45.2443 23.4977 45.2443 21.0833L 44.7443 21.0833C 44.7443 23.2206 43.0272 24.9693 40.8441 25.0258L 40.857 25.5256ZM 45.2443 21.0833L 45.2443 15.8128L 44.7443 15.8128L 44.7443 21.0833L 45.2443 21.0833ZM 45.2439 15.8262C 45.3088 14.6152 44.8538 13.4639 43.9441 12.6336L 43.607 13.0029C 44.4035 13.7298 44.8017 14.7345 44.7446 15.7994L 45.2439 15.8262ZM 43.9508 12.6399C 43.1184 11.8219 42.0217 11.3105 40.8506 11.3105L 40.8506 11.8105C 41.8732 11.8105 42.8483 12.2574 43.6003 12.9965L 43.9508 12.6399ZM 41.0719 11.4443C 40.0833 9.5648 38.6511 7.85047 36.9289 6.3983L 36.6067 6.78069C 38.2969 8.20333 39.6678 9.84292 40.6292 11.6767L 41.0719 11.4443ZM 37.0164 6.61566L 37.1992 4.87881L 36.702 4.82647L 36.5192 6.56333L 37.0164 6.61566ZM 37.1987 4.88324C 37.4421 2.90998 37.4473 2.27919 37.3808 1.8221L 36.886 1.89402C 36.9414 2.27541 36.9466 2.84245 36.7025 4.82204L 37.1987 4.88324ZM 37.3818 1.82997C 37.2459 0.627405 36.2875 -0.248584 35.0616 -0.248584L 35.0616 0.251416C 36.0293 0.251416 36.7772 0.93261 36.885 1.88614L 37.3818 1.82997ZM 35.0682 -0.248496C 33.8875 -0.27986 32.2932 0.186338 30.852 0.733443C 29.402 1.28415 28.062 1.93487 27.3873 2.29653L 27.6235 2.7372C 28.2894 2.38016 29.6001 1.74321 31.0294 1.20089C 32.4675 0.654976 33.981 0.2228 35.0549 0.251328L 35.0682 -0.248496ZM 27.5054 2.51686C 27.5054 2.76686 27.5054 2.51686 27.5054 2.26686L 27.5054 2.26686C 27.5054 2.26686 27.5054 2.26686 27.5054 2.26686C 27.5054 2.26686 27.5053 2.26686 27.5053 2.26686C 27.5051 2.26686 27.5049 2.26686 27.5044 2.26686C 27.5035 2.26686 27.5016 2.26686 27.4978 2.26686C 27.4902 2.26686 27.4749 2.26686 27.4445 2.26686L 27.4445 2.76686C 27.4749 2.76686 27.4902 2.76686 27.4978 2.76686C 27.5016 2.76686 27.5035 2.76686 27.5044 2.76686C 27.5049 2.76686 27.5051 2.76686 27.5053 2.76686C 27.5053 2.76686 27.5054 2.76686 27.5054 2.76686C 27.5054 2.76686 27.5054 2.76686 27.5054 2.76686L 27.5054 2.76686C 27.5054 2.51686 27.5054 2.26686 27.5054 2.51686ZM 27.4792 2.26929C 26.1995 2.08962 24.9025 1.90812 24.0929 1.90752L 24.0929 2.40752C 24.8677 2.40691 26.13 2.58476 27.4097 2.76444L 27.4792 2.26929ZM 24.0929 1.90752C 17.0678 1.90752 10.6419 5.35994 7.42324 10.9567L 7.85668 11.206C 10.9755 5.78273 17.2244 2.40752 24.0929 2.40752L 24.0929 1.90752ZM 7.46472 10.9031C 7.4202 10.9468 7.39348 10.9948 7.37687 11.0307C 7.3621 11.0635 7.34989 11.0984 7.34227 11.1209C 7.33465 11.1433 7.33163 11.1533 7.32736 11.1617C 7.32493 11.167 7.3288 11.1564 7.34285 11.1426L 7.69333 11.4992C 7.73785 11.4555 7.76457 11.4075 7.78118 11.3716C 7.79595 11.3388 7.80816 11.3039 7.81578 11.2814C 7.8234 11.259 7.82642 11.249 7.83069 11.2406C 7.83312 11.2353 7.82925 11.2459 7.8152 11.2597L 7.46472 10.9031ZM 7.74091 11.4343C 7.76184 11.3924 7.77995 11.3458 7.79102 11.3133C 7.80226 11.28 7.80987 11.2538 7.81578 11.2365C 7.81847 11.2285 7.82019 11.2251 7.81922 11.2269C 7.8191 11.2272 7.81517 11.2363 7.80602 11.2489C 7.79658 11.2619 7.77788 11.2837 7.74672 11.3021C 7.7133 11.3218 7.67595 11.3314 7.63996 11.3314L 7.63996 10.8314C 7.52306 10.8314 7.44374 10.8969 7.40155 10.955C 7.36766 11.0016 7.35015 11.0527 7.34227 11.0759C 7.32409 11.1301 7.31457 11.173 7.29526 11.2076L 7.74091 11.4343ZM 7.43511 10.9381C 6.74492 11.9248 5.75311 13.8182 5.38142 16.4972L 5.87667 16.5659C 6.23622 13.9744 7.1944 12.1545 7.84482 11.2247L 7.43511 10.9381ZM 5.52707 16.3033C 4.91847 16.5751 4.27399 16.5681 3.74512 16.2563L 3.49114 16.687C 4.18101 17.0938 4.99901 17.0868 5.73102 16.7598L 5.52707 16.3033ZM 3.73794 16.2522C 3.23254 15.9825 2.92473 15.5755 2.75802 15.0737L 2.28451 15.2343C 2.48342 15.8106 2.90686 16.3619 3.49832 16.691L 3.73794 16.2522ZM 2.75802 15.0737C 2.59896 14.6047 2.65067 14.0197 2.92171 13.5402L 2.48644 13.2941C 2.14811 13.8927 2.07795 14.6252 2.28451 15.2343L 2.75802 15.0737ZM 2.9269 13.5305C 3.28552 12.8256 3.07896 11.9453 2.32684 11.5757L 2.10632 12.0244C 2.57294 12.2537 2.732 12.8109 2.48125 13.3038L 2.9269 13.5305ZM 2.32684 11.5757C 1.61687 11.2268 0.725738 11.4242 0.34846 12.1658L 0.794107 12.3926C 1.0262 11.9363 1.59755 11.7744 2.10632 12.0244L 2.32684 11.5757ZM 0.353646 12.1562C -0.290796 13.2963 -0.418242 14.6251 -0.0334473 15.8858L 0.444771 15.7398C 0.0983238 14.6048 0.214625 13.4182 0.788921 12.4022L 0.353646 12.1562ZM -0.0310924 15.8931C 0.41487 17.208 1.24844 18.2192 2.46734 18.8498L 2.69706 18.4057C 1.60036 17.8384 0.84957 16.933 0.442416 15.7325L -0.0310924 15.8931ZM 10.0228 12.4589C 10.0228 12.4869 10.0156 12.5067 10.0116 12.5156C 10.0079 12.5239 10.0056 12.5259 10.0096 12.5207C 10.0133 12.5158 10.0198 12.5081 10.0308 12.4967C 10.0423 12.4846 10.0546 12.4725 10.0699 12.4575L 9.71939 12.1009C 9.68892 12.1308 9.64622 12.1737 9.61209 12.2174C 9.57852 12.2614 9.52275 12.346 9.52275 12.4589L 10.0228 12.4589ZM 10.1116 12.4034C 12.8033 7.70016 18.1982 4.80318 24.2148 4.80318L 24.2148 4.30318C 18.044 4.30318 12.4702 7.27558 9.67765 12.155L 10.1116 12.4034ZM 24.2148 4.80318C 24.5371 4.80285 25.1015 4.86158 25.6788 4.92877C 26.2562 4.99596 26.8384 5.07121 27.1785 5.10165L 27.2229 4.60363C 26.8927 4.57417 26.3171 4.49969 25.7367 4.43213C 25.1562 4.36457 24.5628 4.30351 24.2148 4.30318L 24.2148 4.80318ZM 27.1525 5.09795C 27.4812 5.16136 27.7491 5.16253 27.8101 5.16253L 27.8101 4.66253C 27.7491 4.66253 27.5296 4.66371 27.2489 4.60733L 27.1525 5.09795ZM 27.8101 5.16253C 28.0932 5.1594 28.345 5.07793 28.5565 4.94197L 28.2824 4.52375C 28.1283 4.62734 28.0144 4.66566 27.8101 4.66253L 27.8101 5.16253ZM 28.5438 4.94974C 28.9012 4.7446 30.013 4.21305 31.2702 3.70704C 32.5364 3.19725 33.9073 2.73178 34.7813 2.64588L 34.7324 2.14828C 33.7783 2.24205 32.3461 2.73485 31.0835 3.24322C 29.8117 3.75537 28.6689 4.30187 28.2951 4.51597L 28.5438 4.94974ZM 34.5069 2.39708C 34.5073 2.92204 34.3866 3.98607 34.3256 4.5251L 34.8225 4.58126C 34.8834 4.04224 35.0065 2.95017 35.0069 2.39708L 34.5069 2.39708ZM 34.3254 4.52788L 34.0816 6.92354L 34.579 6.97415L 34.8228 4.57849L 34.3254 4.52788ZM 34.0829 6.91289C 34.0059 7.44251 34.2467 7.88229 34.6594 8.2203L 34.9762 7.83349C 34.6577 7.57259 34.5328 7.29366 34.5777 6.98481L 34.0829 6.91289ZM 34.6633 8.22342C 36.4706 9.64256 37.8971 11.3947 38.7968 13.2852L 39.2481 13.07C 38.3197 11.1274 36.8212 9.28603 34.9723 7.83037L 34.6633 8.22342ZM 38.7933 13.2775C 39.0144 13.7844 39.5287 14.1463 40.1193 14.1463L 40.1193 13.6463C 39.735 13.6463 39.3962 13.4092 39.2516 13.0777L 38.7933 13.2775ZM 40.1193 14.1463L 40.7896 14.1463L 40.7896 13.6463L 40.1193 13.6463L 40.1193 14.1463ZM 40.7896 14.1463C 41.2079 14.1463 41.5725 14.2976 41.8941 14.6136L 42.2445 14.257C 41.8348 13.8543 41.3463 13.6463 40.7896 13.6463L 40.7896 14.1463ZM 41.8941 14.6136C 42.2124 14.9264 42.3596 15.2721 42.3084 15.7248L 42.8052 15.781C 42.8759 15.1557 42.6575 14.6629 42.2445 14.257L 41.8941 14.6136ZM 42.3068 15.7529L 42.3068 21.0234L 42.8068 21.0234L 42.8068 15.7529L 42.3068 15.7529ZM 42.3068 21.0234C 42.3068 21.8449 41.5643 22.5701 40.7896 22.5701L 40.7896 23.0701C 41.8431 23.0701 42.8068 22.1184 42.8068 21.0234L 42.3068 21.0234ZM 40.7896 22.5701L 40.1193 22.5701L 40.1193 23.0701L 40.7896 23.0701L 40.7896 22.5701ZM 40.1193 22.5701C 39.5605 22.5701 38.958 22.8467 38.7279 23.4497L 39.1951 23.628C 39.3306 23.2727 39.7032 23.0701 40.1193 23.0701L 40.1193 22.5701ZM 38.7349 23.4332C 38.0709 24.8581 37.3584 26.0262 36.6403 26.8482L 37.0171 27.1769C 37.7616 26.3219 38.5115 25.0944 39.1881 23.6445L 38.7349 23.4332ZM 36.6403 26.8482C 36.2161 27.3346 36.0696 28.0369 36.3572 28.6727L 36.8128 28.4667C 36.6128 28.0245 36.7101 27.529 37.0171 27.1769L 36.6403 26.8482ZM 36.3575 28.6735C 37.1051 30.3126 36.6998 32.2252 35.3297 33.3473L 35.6465 33.7341C 37.2014 32.4606 37.6492 30.3006 36.8124 28.466L 36.3575 28.6735ZM 35.326 33.3504C 33.6001 34.8206 31.0041 34.7124 29.3259 33.063L 28.9754 33.4196C 30.8316 35.2439 33.7199 35.3753 35.6502 33.7311L 35.326 33.3504ZM 29.3259 33.063L 28.3509 32.1047L 28.0005 32.4613L 28.9754 33.4196L 29.3259 33.063ZM 28.3509 32.1047C 27.9903 31.7502 27.5468 31.6055 27.0441 31.6761L 27.1136 32.1712C 27.4639 32.122 27.7517 32.2169 28.0005 32.4613L 28.3509 32.1047ZM 27.0354 31.6775C 24.6834 32.0936 22.1766 32.0353 19.8275 31.4417L 19.7053 31.9265C 22.1093 32.5307 24.7212 32.5922 27.1223 32.1699L 27.0354 31.6775ZM 19.834 31.4434C 19.3185 31.2987 18.8 31.4449 18.4334 31.8053L 18.7838 32.1619C 19.0266 31.9233 19.3612 31.83 19.6988 31.9248L 19.834 31.4434ZM 18.4334 31.8053L 17.1537 33.063L 17.5042 33.4196L 18.7838 32.1619L 18.4334 31.8053ZM 17.1537 33.063C 16.346 33.8568 15.2506 34.3089 14.1602 34.3089L 14.1602 34.8089C 15.3854 34.8089 16.6057 34.3027 17.5042 33.4196L 17.1537 33.063ZM 14.1602 34.3089L 13.9774 34.3089L 13.9774 34.8089L 14.1602 34.8089L 14.1602 34.3089ZM 13.9891 34.3092C 12.7739 34.2523 11.6769 33.7411 10.8681 32.8895L 10.5055 33.2338C 11.403 34.1788 12.6215 34.7457 13.9657 34.8086L 13.9891 34.3092ZM 10.8726 32.8944C 9.55621 31.4318 9.49195 29.1712 10.7628 27.5247L 10.367 27.2191C 8.95669 29.0463 9.0143 31.5771 10.501 33.2289L 10.8726 32.8944ZM 10.7672 27.5189C 11.1355 27.012 11.1355 26.2944 10.7672 25.7875L 10.3627 26.0815C 10.6037 26.4131 10.6037 26.8933 10.3627 27.2249L 10.7672 27.5189ZM 10.765 25.7845C 9.07945 23.5413 8.19117 20.9818 8.19465 18.3283L 7.69465 18.3283C 7.69812 21.0649 8.63795 23.776 10.3649 26.0845L 10.765 25.7845ZM 8.19443 18.3386C 8.31413 15.4564 9.33159 13.4682 9.97312 12.6084L 9.57238 12.3094C 8.8733 13.2463 7.81891 15.3307 7.69486 18.3179L 8.19443 18.3386ZM 7.38996 11.4407C 7.3933 11.4599 7.38797 11.4652 7.37274 11.5102C 7.3575 11.5551 7.33236 11.6396 7.32902 11.7402L 7.82902 11.7402C 7.82569 11.721 7.83101 11.7157 7.84625 11.6707C 7.86148 11.6258 7.88663 11.5413 7.88996 11.4407L 7.38996 11.4407ZM 7.82902 11.7402C 7.82902 11.6756 7.82953 11.635 7.83404 11.6039C 7.83607 11.5884 7.83936 11.5843 7.837 11.5884C 7.83586 11.5913 7.83012 11.6044 7.8152 11.619L 7.46472 11.2624C 7.37571 11.3499 7.34954 11.4612 7.33924 11.532C 7.32968 11.6024 7.32902 11.6803 7.32902 11.7402L 7.82902 11.7402Z"/>
</defs>
</svg>
