<svg width="51" height="42" viewBox="0 0 51 42" version="1.1" xmlns="http://www.w3.org/2000/svg" xmlns:xlink="http://www.w3.org/1999/xlink">
<title>qwestions</title>
<desc>Created using Figma</desc>
<g id="Canvas" transform="translate(17126 -3742)">
<g id="qwestions">
<g id="?">
<use xlink:href="#path0_fill" transform="translate(-17094.6 3742)" fill="#4141BE"/>
</g>
<g id="Vector">
<use xlink:href="#path1_fill" transform="translate(-17126 3749.61)" fill="#4141BE"/>
</g>
<g id="Vector">
<use xlink:href="#path2_fill" transform="translate(-17126 3756.51)" fill="#4141BE"/>
</g>
<g id="Vector">
<use xlink:href="#path2_fill" transform="translate(-17126 3761.18)" fill="#4141BE"/>
</g>
<g id="Vector">
<use xlink:href="#path3_fill" transform="translate(-17126 3765.86)" fill="#4141BE"/>
</g>
<g id="Vector">
<use xlink:href="#path4_fill" transform="translate(-17126 3770.53)" fill="#4141BE"/>
</g>
<g id="Vector">
<use xlink:href="#path5_fill" transform="translate(-17126 3775.21)" fill="#4141BE"/>
</g>
<g id="Vector">
<use xlink:href="#path6_fill" transform="translate(-17097.8 3762.3)" fill="#4141BE"/>
</g>
<g id="Vector">
<use xlink:href="#path7_fill" transform="translate(-17097.8 3769.2)" fill="#4141BE"/>
</g>
<g id="Vector">
<use xlink:href="#path8_fill" transform="translate(-17097.8 3773.87)" fill="#4141BE"/>
</g>
<g id="Vector">
<use xlink:href="#path8_fill" transform="translate(-17097.8 3778.55)" fill="#4141BE"/>
</g>
</g>
</g>
<defs>
<path id="path0_fill" d="M 3.42195 11.0289C 3.42195 9.97125 3.54221 9.1382 3.78273 8.52971C 4.02325 7.91397 4.41318 7.38155 4.95253 6.93242C 5.49188 6.4833 5.90003 6.07402 6.177 5.70458C 6.46125 5.3279 6.60337 4.91499 6.60337 4.46587C 6.60337 3.37204 6.12962 2.82513 5.18212 2.82513C 4.74481 2.82513 4.39132 2.98449 4.12164 3.30322C 3.85197 3.62196 3.70984 4.05297 3.69526 4.59626L 0 4.59626C 0.014577 3.14748 0.473752 2.02105 1.37752 1.21698C 2.2813 0.405659 3.54949 0 5.18212 0C 6.80745 0 8.06472 0.373062 8.95391 1.11918C 9.8504 1.86531 10.2986 2.92654 10.2986 4.30288C 10.2986 4.90413 10.1784 5.45104 9.93786 5.94363C 9.69734 6.43622 9.31105 6.93967 8.77899 7.45399L 7.52172 8.61663C 7.16459 8.9571 6.91678 9.30843 6.7783 9.67062C 6.63981 10.0256 6.56329 10.4783 6.54871 11.0289L 3.42195 11.0289ZM 2.9737 14.3321C 2.9737 13.796 3.16685 13.3578 3.55314 13.0173C 3.94672 12.6696 4.43505 12.4957 5.01813 12.4957C 5.60121 12.4957 6.08589 12.6696 6.47218 13.0173C 6.86576 13.3578 7.06255 13.796 7.06255 14.3321C 7.06255 14.8681 6.86576 15.31 6.47218 15.6577C 6.08589 15.9982 5.60121 16.1684 5.01813 16.1684C 4.43505 16.1684 3.94672 15.9982 3.55314 15.6577C 3.16685 15.31 2.9737 14.8681 2.9737 14.3321Z"/>
<path id="path1_fill" d="M 11.4069 0C 9.50131 0 0 0.193656 0 4.00668C 0 7.8197 9.50131 8.01335 11.4069 8.01335C 13.3126 8.01335 22.8139 7.8197 22.8139 4.00668C 22.8139 0.193656 13.3126 0 11.4069 0ZM 11.4069 5.34224C 6.92468 5.34224 4.02598 4.57429 2.97922 4.00668C 4.02598 3.43906 6.92468 2.67112 11.4069 2.67112C 15.8892 2.67112 18.7879 3.43906 19.8347 4.00668C 18.7879 4.57429 15.8892 5.34224 11.4069 5.34224Z"/>
<path id="path2_fill" d="M 21.4762 0.111112C 21.1545 0.106992 20.8421 0.218001 20.5957 0.423917C 20.3494 0.629833 20.1856 0.916955 20.1342 1.23298C 19.5437 1.79392 16.4772 2.78223 11.4112 2.78223C 6.3452 2.78223 3.25862 1.78056 2.68827 1.23298C 2.67417 1.05759 2.6255 0.886685 2.54503 0.730017C 2.46457 0.573349 2.35388 0.433989 2.2193 0.319892C 2.08471 0.205796 1.92886 0.119198 1.76065 0.0650425C 1.59244 0.0108874 1.41515 -0.00976389 1.23892 0.00426716C 1.06269 0.0182982 0.890957 0.0667372 0.733534 0.146818C 0.576112 0.226899 0.43608 0.337055 0.321434 0.470995C 0.206787 0.604935 0.119772 0.760035 0.0653563 0.927442C 0.0109403 1.09485 -0.00981102 1.27128 0.00428762 1.44667C 0.00428762 5.25969 9.50559 5.45335 11.4112 5.45335C 13.3169 5.45335 22.8182 5.25969 22.8182 1.44667C 22.8182 1.09246 22.6768 0.752753 22.4251 0.502287C 22.1734 0.251821 21.8321 0.111112 21.4762 0.111112Z"/>
<path id="path3_fill" d="M 21.4762 0.111115C 21.1545 0.106995 20.8421 0.218004 20.5957 0.42392C 20.3494 0.629836 20.1856 0.916958 20.1342 1.23298C 19.5437 1.79392 16.4772 2.78223 11.4112 2.78223C 6.34521 2.78223 3.25862 1.78056 2.68828 1.23298C 2.6598 0.878772 2.49111 0.550324 2.2193 0.319895C 1.94749 0.0894667 1.59484 -0.0240667 1.23892 0.00427029C 0.883005 0.0326073 0.552975 0.200495 0.321437 0.470998C 0.0898982 0.741501 -0.0241827 1.09246 0.00429076 1.44667C 0.00429076 5.2597 9.5056 5.45335 11.4112 5.45335C 13.3169 5.45335 22.8182 5.2597 22.8182 1.44667C 22.8182 1.09246 22.6768 0.752756 22.4251 0.50229C 22.1734 0.251824 21.8321 0.111115 21.4762 0.111115Z"/>
<path id="path4_fill" d="M 21.4762 0.111115C 21.1545 0.106995 20.8421 0.218001 20.5957 0.423917C 20.3494 0.629834 20.1856 0.916958 20.1342 1.23298C 19.5437 1.79392 16.4772 2.78223 11.4112 2.78223C 6.34521 2.78223 3.25862 1.78056 2.68828 1.23298C 2.6598 0.878772 2.49111 0.550327 2.2193 0.319898C 1.94749 0.0894693 1.59484 -0.0240693 1.23892 0.00426772C 0.883005 0.0326047 0.552975 0.200495 0.321437 0.470998C 0.0898982 0.741501 -0.0241827 1.09246 0.00429076 1.44667C 0.00429076 5.25969 9.5056 5.45335 11.4112 5.45335C 13.3169 5.45335 22.8182 5.25969 22.8182 1.44667C 22.8182 1.09246 22.6768 0.752756 22.4251 0.50229C 22.1734 0.251824 21.8321 0.111115 21.4762 0.111115Z"/>
<path id="path5_fill" d="M 21.4762 0.111112C 21.1545 0.106992 20.8421 0.217998 20.5957 0.423914C 20.3494 0.629831 20.1856 0.916955 20.1342 1.23298C 19.5437 1.79392 16.4772 2.78223 11.4112 2.78223C 6.3452 2.78223 3.25862 1.78056 2.68827 1.23298C 2.67417 1.05759 2.6255 0.886685 2.54503 0.730017C 2.46457 0.573349 2.35388 0.433991 2.2193 0.319895C 2.08471 0.205798 1.92886 0.1192 1.76065 0.065045C 1.59244 0.0108899 1.41515 -0.00976643 1.23892 0.00426462C 1.06269 0.0182957 0.890957 0.0667347 0.733534 0.146816C 0.576112 0.226897 0.43608 0.337055 0.321434 0.470995C 0.206787 0.604935 0.119772 0.760032 0.0653563 0.927439C 0.0109403 1.09485 -0.00981102 1.27128 0.00428762 1.44667C 0.00428762 5.25969 9.50559 5.45335 11.4112 5.45335C 13.3169 5.45335 22.8182 5.25969 22.8182 1.44667C 22.8182 1.09246 22.6768 0.752753 22.4251 0.502287C 22.1734 0.251821 21.8321 0.111112 21.4762 0.111112Z"/>
<path id="path6_fill" d="M 11.4069 8.01335C 13.3126 8.01335 22.8139 7.8197 22.8139 4.00668C 22.8139 0.193656 13.3126 0 11.4069 0C 9.50131 0 0 0.193656 0 4.00668C 0 7.8197 9.50131 8.01335 11.4069 8.01335ZM 11.4069 2.67112C 15.8892 2.67112 18.7879 3.43906 19.8346 4.00668C 18.7879 4.57429 15.8892 5.34224 11.4069 5.34224C 6.92468 5.34224 4.02598 4.57429 2.97922 4.00668C 4.02598 3.43906 6.92468 2.67112 11.4069 2.67112Z"/>
<path id="path7_fill" d="M 21.4762 0.111115C 21.1545 0.106995 20.8421 0.218004 20.5957 0.42392C 20.3494 0.629836 20.1856 0.916958 20.1342 1.23298C 19.5437 1.79392 16.4772 2.78223 11.4112 2.78223C 6.34521 2.78223 3.25862 1.78056 2.68828 1.23298C 2.6598 0.878772 2.49111 0.550324 2.2193 0.319895C 1.94749 0.0894667 1.59484 -0.0240667 1.23892 0.00427029C 0.883005 0.0326073 0.552975 0.200495 0.321436 0.470998C 0.0898976 0.741501 -0.0241827 1.09246 0.00429076 1.44667C 0.00429076 5.2597 9.5056 5.45335 11.4112 5.45335C 13.3169 5.45335 22.8182 5.2597 22.8182 1.44667C 22.8182 1.09246 22.6768 0.752756 22.4251 0.50229C 22.1734 0.251824 21.8321 0.111115 21.4762 0.111115Z"/>
<path id="path8_fill" d="M 21.4762 0.111115C 21.1545 0.106995 20.8421 0.218001 20.5957 0.423917C 20.3494 0.629834 20.1856 0.916958 20.1342 1.23298C 19.5437 1.79392 16.4772 2.78223 11.4112 2.78223C 6.34521 2.78223 3.25862 1.78056 2.68828 1.23298C 2.6598 0.878772 2.49111 0.550327 2.2193 0.319898C 1.94749 0.0894693 1.59484 -0.0240692 1.23892 0.00426774C 0.883005 0.0326047 0.552975 0.200495 0.321436 0.470998C 0.0898976 0.741501 -0.0241827 1.09246 0.00429076 1.44667C 0.00429076 5.2597 9.5056 5.45335 11.4112 5.45335C 13.3169 5.45335 22.8182 5.2597 22.8182 1.44667C 22.8182 1.09246 22.6768 0.752756 22.4251 0.50229C 22.1734 0.251824 21.8321 0.111115 21.4762 0.111115Z"/>
</defs>
</svg>
