<svg width="16" height="13" viewBox="0 0 16 13" version="1.1" xmlns="http://www.w3.org/2000/svg" xmlns:xlink="http://www.w3.org/1999/xlink">
<title>twitter 1</title>
<desc>Created using Figma</desc>
<g id="Canvas" transform="translate(22749 -7492)">
<g id="twitter 1">
<use xlink:href="#path0_fill" transform="translate(-22749 7492)" fill="#FFFFFF"/>
</g>
</g>
<defs>
<path id="path0_fill" d="M 15.6204 1.46532C 15.0464 1.71259 14.4254 1.87744 13.7761 1.95987C 14.4348 1.57522 14.9429 0.961616 15.1876 0.228956C 14.5665 0.586128 13.8796 0.842559 13.155 0.989091C 12.5716 0.384646 11.7341 6.98719e-08 10.812 6.98719e-08C 9.04292 6.98719e-08 7.6032 1.40121 7.6032 3.12296C 7.6032 3.37024 7.63143 3.60835 7.68789 3.83731C 5.02489 3.70909 2.663 2.46357 1.08214 0.57697C 0.80925 1.03488 0.649284 1.57522 0.649284 2.14303C 0.649284 3.2237 1.21388 4.18532 2.07959 4.74397C 1.55264 4.72566 1.06332 4.58828 0.630463 4.35017C 0.630463 4.35933 0.630463 4.37764 0.630463 4.3868C 0.630463 5.89791 1.73142 7.16175 3.19937 7.44566C 2.92648 7.51892 2.64418 7.55556 2.35247 7.55556C 2.14546 7.55556 1.94785 7.53724 1.75024 7.50061C 2.15487 8.73697 3.34052 9.64364 4.74259 9.67111C 3.64163 10.5045 2.25838 11.0082 0.762204 11.0082C 0.498727 11.0082 0.244656 10.9899 -1.14867e-06 10.9624C 1.42089 11.8508 3.10527 12.3636 4.91197 12.3636C 10.812 12.3636 14.0396 7.6105 14.0396 3.48013C 14.0396 3.34276 14.0396 3.21455 14.0302 3.07717C 14.6512 2.64673 15.1876 2.09724 15.6204 1.46532Z"/>
</defs>
</svg>
