<svg width="18" height="11" viewBox="0 0 18 11" version="1.1" xmlns="http://www.w3.org/2000/svg" xmlns:xlink="http://www.w3.org/1999/xlink">
<title>vk x5F alt 1</title>
<desc>Created using Figma</desc>
<g id="Canvas" transform="translate(22830 -7493)">
<g id="vk x5F alt 1">
<use xlink:href="#path0_fill" transform="translate(-22830 7493)" fill="#FFFFFF"/>
</g>
</g>
<defs>
<path id="path0_fill" fill-rule="evenodd" d="M 8.41968 9.99918L 9.44183 9.99918C 9.44183 9.99918 9.75564 9.96236 9.90807 9.78746C 10.0515 9.63097 10.0515 9.3272 10.0515 9.3272C 10.0515 9.3272 10.0336 7.90958 10.6702 7.70707C 11.2978 7.50455 12.1137 9.06945 12.9655 9.677C 13.6111 10.1373 14.1042 10.036 14.1042 10.036L 16.3996 9.99918C 16.3996 9.99918 17.6011 9.92554 17.0272 8.95898C 16.9824 8.87614 16.6955 8.24097 15.3236 6.93382C 13.8891 5.56224 14.0773 5.78317 15.8078 3.41741C 16.8658 1.97218 17.2872 1.08848 17.1527 0.71106C 17.0272 0.352055 16.2472 0.444107 16.2472 0.444107L 13.6649 0.462518C 13.6649 0.462518 13.4766 0.434902 13.3331 0.526955C 13.1987 0.609802 13.109 0.812318 13.109 0.812318C 13.109 0.812318 12.6966 1.92616 12.1586 2.8835C 11.0109 4.89025 10.5447 4.99151 10.3564 4.87184C 9.91703 4.57727 10.0246 3.70277 10.0246 3.08602C 10.0246 1.14371 10.3115 0.333644 9.46873 0.121923C 9.19077 0.0482804 8.98455 0.00225449 8.26726 0.00225449C 7.34374 -0.00695078 6.56368 0.00225462 6.12434 0.223181C 5.82846 0.370466 5.6043 0.701855 5.73879 0.720265C 5.90915 0.747881 6.2947 0.830729 6.50092 1.11609C 6.76991 1.4843 6.75197 2.31278 6.75197 2.31278C 6.75197 2.31278 6.9044 4.59568 6.39333 4.88105C 6.04364 5.07436 5.56844 4.67853 4.54629 2.85589C 4.01729 1.92616 3.62278 0.895166 3.62278 0.895166C 3.62278 0.895166 3.54208 0.701855 3.40759 0.600597C 3.2462 0.471723 3.01308 0.434902 3.01308 0.434902L 0.556342 0.453313C 0.556342 0.453313 0.188729 0.462518 0.0542359 0.628213C -0.0623244 0.775497 0.0452697 1.07927 0.0452697 1.07927C 0.0452697 1.07927 1.96403 5.69111 4.14281 8.02005C 6.1602 10.1373 8.41968 9.99918 8.41968 9.99918Z"/>
</defs>
</svg>
