<svg width="37" height="28" viewBox="0 0 37 28" version="1.1" xmlns="http://www.w3.org/2000/svg" xmlns:xlink="http://www.w3.org/1999/xlink">
<title>wallet</title>
<desc>Created using Figma</desc>
<g id="Canvas" transform="translate(17120 -3810)">
<g id="wallet">
<g id="Vector">
<use xlink:href="#path0_fill" transform="translate(-17120 3810)" fill="#4141BE"/>
</g>
</g>
</g>
<defs>
<path id="path0_fill" d="M 35.8438 11.6667L 34.6875 11.6667L 34.6875 5.83333C 34.6875 5.18817 34.1707 4.66667 33.5312 4.66667L 32.375 4.66667L 32.375 1.16667C 32.375 0.5215 31.8582 0 31.2188 0L 5.78125 0C 2.59347 0 0 2.61683 0 5.83333L 0 22.1667C 0 25.3832 2.59347 28 5.78125 28L 33.5312 28C 34.1707 28 34.6875 27.4785 34.6875 26.8333L 34.6875 21L 35.8438 21C 36.4832 21 37 20.4785 37 19.8333L 37 12.8333C 37 12.1882 36.4832 11.6667 35.8438 11.6667ZM 32.375 25.6667L 5.78125 25.6667C 3.86881 25.6667 2.3125 24.0963 2.3125 22.1667L 2.3125 5.83333C 2.3125 3.90367 3.86881 2.33333 5.78125 2.33333L 30.0625 2.33333L 30.0625 4.66667L 5.78125 4.66667C 5.143 4.66667 4.625 5.18817 4.625 5.83333C 4.625 6.4785 5.143 7 5.78125 7L 32.375 7L 32.375 11.6667L 26.5938 11.6667C 25.9543 11.6667 25.4375 12.1882 25.4375 12.8333L 25.4375 19.8333C 25.4375 20.4785 25.9543 21 26.5938 21L 32.375 21L 32.375 25.6667ZM 34.6875 18.6667L 27.75 18.6667L 27.75 14L 34.6875 14L 34.6875 18.6667Z"/>
</defs>
</svg>
