<?xml version="1.0" encoding="utf-8"?><svg xmlns="http://www.w3.org/2000/svg" xmlns:xlink="http://www.w3.org/1999/xlink"><symbol viewBox="0 0 98.48 98.48" id="eye" xmlns="http://www.w3.org/2000/svg"><path d="M97.204 45.788c-.865-1.02-21.537-24.945-47.963-24.945-26.427 0-47.098 23.925-47.965 24.946a5.307 5.307 0 0 0 .001 6.904c.866 1.02 21.537 24.944 47.964 24.944 26.426 0 47.098-23.926 47.964-24.946a5.306 5.306 0 0 0-.001-6.903zM57.313 35.215c1.777-.97 4.255.143 5.534 2.485 1.279 2.343.875 5.029-.902 5.999-1.776.971-4.255-.143-5.535-2.485-1.278-2.343-.875-5.029.903-5.999zm-8.072 33.754c-18.46 0-33.995-14.177-39.372-19.729 3.631-3.75 11.898-11.429 22.567-16.021a19.995 19.995 0 0 0-3.301 11.021c0 11.104 9.001 20.105 20.105 20.105s20.106-9.001 20.106-20.105c0-4.072-1.219-7.855-3.3-11.021C76.715 37.812 84.981 45.49 88.612 49.24 83.235 54.795 67.7 68.969 49.241 68.969z"/></symbol><symbol viewBox="0 0 51.997 51.997" id="like" xmlns="http://www.w3.org/2000/svg"><path d="M51.911 16.242c-.759-8.354-6.672-14.415-14.072-14.415-4.93 0-9.444 2.653-11.984 6.905-2.517-4.307-6.846-6.906-11.697-6.906C6.759 1.826.845 7.887.087 16.241c-.06.369-.306 2.311.442 5.478 1.078 4.568 3.568 8.723 7.199 12.013l18.115 16.439 18.426-16.438c3.631-3.291 6.121-7.445 7.199-12.014.748-3.166.502-5.108.443-5.477z"/></symbol><symbol viewBox="0 0 27 30" id="logo" xmlns="http://www.w3.org/2000/svg"><title>LOGO</title><desc>Created using Figma</desc><use xlink:href="#ca" transform="translate(6.3 13.33)"/><use xlink:href="#cb" transform="translate(0 16.93)"/><use xlink:href="#cc" transform="translate(7 1.77)"/><use xlink:href="#cd" transform="translate(12.8)"/><use xlink:href="#ce" transform="translate(17.3 2.87)"/><use xlink:href="#cf" transform="translate(21.4 9.01)"/><defs><path id="ca" fill-rule="evenodd" d="M15.53 11.223c-.89 2.636-3.152 4.591-6.235 5.163-3.015.571-5.825.241-7.492-.703-1.28-.725-1.805-1.472-1.782-2.9-.114-2.022.228-6.438 1.302-8.218.251-.417.662-.769 1.348-.967 1.096-.351 2.101-.33 1.964.044-.548 1.758-1.827 7.12-1.142 8.635.502 1.077 2.49 1.428 4.294 1.296 2.261-.153 3.86-.944 4.683-3.098.616-1.603.456-3.58-.526-5.207-1.919-3.12-7.286-3.581-10.461-2.57-.526.153-.64.373-.8.022-.41-.967.274-1.692 1.508-2.154 2.764-1.076 6.898-.527 9.548.88 4.043 2.13 5.002 6.261 3.791 9.776z"/><path id="cb" fill-rule="evenodd" d="M5.17 3.933a5.982 5.982 0 0 1-.662-.681C3.89 2.46 3.274 1.648 2.658.857 2.52.68 2.337.593 2.177.439 1.949.22 1.47 0 1.127 0 .853 0 .579.11.373.308.122.57-.037.967.008 1.318c.045.484.251.88.502 1.319.16.307.366.593.526.878.502.835.982 1.67 1.53 2.461.16.22 1.074 1.516 1.759 2.22.617.636 1.096.592 1.05-.242-.045-.835-.09-1.956-.045-2.373.114-.703.411-1.165-.16-1.648z"/><path id="cc" fill-rule="evenodd" d="M1.186 10.214c.068.154.114.242.296.307.206.088.389.022.572-.044.228-.065.41-.087.64-.153.228-.066.456-.044.707-.066.206-.022.411 0 .548-.154.274-.286.092-1.186.046-1.582-.114-.79-.685-4.548-.822-5.669-.092-.9-.137-2.02-1.028-2.636C1.55-.201.523-.003.249.7c-.297.791-.274 1.538-.206 2.351.115 1.406.366 2.835.571 4.24L.89 9.204c.045.308.182.835.297 1.01z"/><path id="cd" fill-rule="evenodd" d="M3.184.013c.297.044.594.22.823.528.228.33.32.593.32.966 0 1.121-.937 10.02-1.006 10.239-.045.198-.068.418-.32.461-.205.044-.388-.043-.593-.088a6.478 6.478 0 0 0-.64-.11c-.434-.043-.822-.043-1.256-.087-.434-.044-.548-.176-.503-.572.023-.197.023-.373.023-.57.114-1.868.343-3.714.594-5.56.137-.922.274-1.845.48-2.768.091-.505.182-1.142.502-1.604.366-.57.982-.922 1.576-.835z"/><path id="ce" fill-rule="evenodd" d="M4.713.003c.25.022.48.132.685.285.457.33.365 1.407.251 1.956-.274 1.362-2.238 7.646-2.353 7.91-.114.241-.297.856-.57.922-.32.088-.663-.154-.891-.307-.252-.154-.503-.308-.777-.44-.206-.088-.343-.154-.571-.22-.183-.043-.434-.11-.48-.307-.045-.176.137-.66.229-.879.137-.373.228-.659.342-1.033.274-.944.617-1.889.937-2.812.297-.857.616-1.692.936-2.527.16-.395.274-.834.48-1.23.251-.461.457-.835.96-1.12.25-.11.525-.22.822-.198z"/><path id="cf" fill-rule="evenodd" d="M5.381.362C4.88-.297 4.125.055 3.668.538 3.166 1.065.698 4.8.333 5.328c-.182.263-.388.527-.32.857.092.351.366.703.572 1.01.114.154.205.308.296.462.069.131.16.263.32.33.16.065.343.021.594-.199.297-.285.503-.659.731-.988.548-.77 1.05-1.56 1.53-2.373l.96-1.648c.365-.637.89-1.736.365-2.417z"/></defs></symbol><symbol viewBox="0 0 30 21" id="menu" xmlns="http://www.w3.org/2000/svg"><title>Group</title><desc>Created using Figma</desc><use xlink:href="#da"/><use xlink:href="#da" transform="translate(0 9)"/><use xlink:href="#da" transform="translate(0 18)"/><defs><path id="da" d="M0 0h30v3H0V0z"/></defs></symbol><symbol viewBox="0 0 511.626 511.627" id="share" xmlns="http://www.w3.org/2000/svg"><path d="M506.206 179.012L360.025 32.834c-3.617-3.617-7.898-5.426-12.847-5.426s-9.233 1.809-12.847 5.426c-3.617 3.619-5.428 7.902-5.428 12.85v73.089H264.95c-135.716 0-218.984 38.354-249.823 115.06C5.042 259.335 0 291.03 0 328.907c0 31.594 12.087 74.514 36.259 128.762.57 1.335 1.566 3.614 2.996 6.849a603.829 603.829 0 0 0 3.854 8.565c1.146 2.471 2.384 4.565 3.715 6.276 2.282 3.237 4.948 4.859 7.994 4.859 2.855 0 5.092-.951 6.711-2.854 1.615-1.902 2.424-4.284 2.424-7.132 0-1.718-.238-4.236-.715-7.569-.476-3.333-.715-5.564-.715-6.708-.953-12.938-1.429-24.653-1.429-35.114 0-19.223 1.668-36.449 4.996-51.675 3.333-15.229 7.948-28.407 13.85-39.543 5.901-11.14 13.512-20.745 22.841-28.835 9.325-8.09 19.364-14.702 30.118-19.842 10.756-5.141 23.413-9.186 37.974-12.135 14.56-2.95 29.215-4.997 43.968-6.14s31.455-1.711 50.109-1.711h63.953v73.091c0 4.948 1.807 9.232 5.421 12.847 3.62 3.613 7.901 5.424 12.847 5.424 4.948 0 9.232-1.811 12.854-5.424l146.178-146.183c3.617-3.617 5.424-7.898 5.424-12.847-.001-4.948-1.807-9.232-5.421-12.856z"/></symbol></svg>